<?xml version="1.0"?>
<!DOCTYPE svg PUBLIC "-//W3C//DTD SVG 1.1//EN" "http://www.w3.org/Graphics/SVG/1.1/DTD/svg11.dtd">
<svg version='1.1' width='226px' height='94px' xmlns='http://www.w3.org/2000/svg' xmlns:xlink='http://www.w3.org/1999/xlink'>
	<g transform="translate(105.9,53.4)">
		<path d="M 11.75 -53.4 Q 19.4 -53.35 25.95 -50.65 Q 32.5 -47.95 37.35 -43.2 Q 42.45 -44.7 48.1 -44.75 Q 54.2 -44.7 59.65 -42.95 Q 65.1 -41.15 69.6 -37.95 Q 74.1 -34.75 77.25 -30.4 Q 80.7 -31.05 84.45 -31.05 Q 91.75 -31 98.05 -28.55 Q 104.4 -26.05 109.2 -21.65 Q 114 -17.25 116.7 -11.4 Q 119.4 -5.6 119.45 1.1 Q 119.4 7.8 116.7 13.6 Q 114 19.45 109.2 23.85 Q 104.4 28.25 98.05 30.75 Q 91.75 33.2 84.45 33.25 Q 77.9 33.25 72.1 31.2 Q 66.35 29.2 61.7 25.55 Q 56.95 29.65 50.85 31.95 Q 44.75 34.2 37.75 34.25 Q 30.45 34.2 24.1 31.7 Q 17.7 29.2 12.9 24.75 Q 9.85 29.55 5.25 33.1 Q 0.65 36.65 -5.05 38.6 Q -10.8 40.55 -17.25 40.6 Q -26.2 40.5 -33.6 36.85 Q -41.05 33.2 -45.85 26.9 Q -50.7 31.45 -57.1 34 Q -63.5 36.55 -70.9 36.6 Q -78.2 36.55 -84.5 34.05 Q -90.85 31.6 -95.65 27.2 Q -100.45 22.75 -103.15 16.95 Q -105.85 11.15 -105.9 4.45 Q -105.85 -2.25 -103.15 -8.1 Q -100.45 -13.9 -95.65 -18.3 Q -90.85 -22.7 -84.5 -25.2 Q -78.2 -27.7 -70.9 -27.75 Q -66.2 -27.7 -61.85 -26.65 Q -59.15 -32.5 -54.35 -36.9 Q -49.55 -41.35 -43.2 -43.85 Q -36.9 -46.35 -29.55 -46.4 Q -21.1 -46.3 -13.95 -43.05 Q -9.1 -47.85 -2.5 -50.6 Q 4.05 -53.35 11.75 -53.4 Z" fill="#FFFFFF" fill-opacity="0.556863"/>
	</g>
</svg>
