<?xml version="1.0"?>
<!DOCTYPE svg PUBLIC "-//W3C//DTD SVG 1.1//EN" "http://www.w3.org/Graphics/SVG/1.1/DTD/svg11.dtd">
<svg version='1.1' width='168px' height='19px' xmlns='http://www.w3.org/2000/svg' xmlns:xlink='http://www.w3.org/1999/xlink'>
	<g transform="translate(83.9,-7.1)">
		<path d="M 5.5 4.45 Q 6.75 4.5 7.55 5.15 Q 8.35 5.75 8.4 6.75 L 8.4 8 L 8.3 8 Q 8.05 7.75 7.45 7.55 Q 6.85 7.3 6.1 7.3 Q 3.5 7.4 3.45 9.6 Q 3.55 12.1 5.95 12.1 Q 7.5 12.05 8.35 11.5 L 8.4 11.5 L 8.4 12.55 Q 8.4 13.55 7.5 14.25 Q 6.65 14.95 5.25 14.95 L 5.2 14.95 Q 2.9 14.95 1.45 13.55 Q 0.05 12.15 0 9.8 Q 0 7.6 1.4 6.05 Q 2.85 4.55 5.5 4.45 Z M 11.1 1.25 Q 13.35 1.15 13.35 3.6 L 13.4 10.9 Q 13.4 12.1 14.8 12.05 L 15.6 12.05 L 15.6 13.25 Q 15.6 14.15 14.9 14.5 Q 14.2 14.85 13.35 14.85 Q 11.9 14.85 10.95 14 Q 9.95 13.15 9.9 11.4 L 9.85 1.25 Z M 18.45 0.65 Q 19.25 0.7 19.75 1.15 Q 20.25 1.65 20.3 2.35 Q 20.25 3.1 19.75 3.6 Q 19.25 4.05 18.5 4.1 L 18.45 4.1 Q 17.7 4.1 17.2 3.6 Q 16.65 3.1 16.65 2.4 Q 16.65 1.65 17.2 1.2 Q 17.7 0.7 18.45 0.65 Z M 21.7 12.2 L 22.15 12.2 L 22.15 13.2 Q 22.15 14.1 21.55 14.45 Q 21 14.8 20.2 14.8 L 20.15 14.8 Q 18.75 14.85 17.85 14.05 Q 16.95 13.3 16.9 11.55 L 16.85 5 L 17.7 4.95 Q 17.75 5 17.75 4.95 Q 19.2 4.95 19.75 5.5 Q 20.35 6 20.3 7.35 L 20.35 11.05 Q 20.3 12.25 21.7 12.2 Z M 31.4 11.4 L 31.45 11.4 L 31.45 12.45 Q 31.45 13.45 30.55 14.15 Q 29.7 14.8 28.3 14.85 L 28.25 14.85 Q 25.95 14.8 24.5 13.45 Q 23.1 12.05 23.05 9.7 Q 23.05 7.45 24.45 5.95 Q 25.9 4.4 28.55 4.35 Q 29.75 4.35 30.6 5 Q 31.4 5.65 31.45 6.65 L 31.45 7.85 L 31.35 7.9 Q 31.1 7.6 30.5 7.4 Q 29.9 7.2 29.15 7.2 Q 26.55 7.3 26.5 9.45 Q 26.6 12 29 11.95 Q 30.55 11.95 31.4 11.4 Z M 40.95 4.55 L 43.35 4.55 L 43.35 4.65 Q 43 5 42.3 5.8 Q 41.6 6.6 40.85 7.55 Q 40.1 8.45 39.65 9.15 Q 40.5 10.55 41.55 11.8 Q 42.05 12.4 42.45 12.6 Q 42.8 12.8 43.35 12.9 Q 43.1 14.6 41.25 14.65 Q 40.8 14.65 40.3 14.5 Q 39.8 14.35 39.45 13.95 Q 37.8 12 36.5 9.8 L 36.5 14.6 L 35.1 14.6 Q 34.15 14.6 33.6 14.05 Q 33.05 13.5 33.05 12.55 L 32.95 1.15 L 34.3 1.1 Q 35.45 1.15 35.95 1.75 Q 36.45 2.35 36.45 3.15 L 36.45 8.85 Q 37.65 6.9 39.1 5.25 Q 39.4 4.9 39.8 4.7 Q 40.15 4.55 40.95 4.55 Z M 51.95 2.05 L 51.95 4.5 L 54.9 4.5 L 54.9 5.7 Q 54.9 6.35 54.35 6.8 Q 53.85 7.2 53.2 7.2 L 52 7.25 L 52 10.85 Q 52.05 11.9 53.1 11.9 Q 53.7 11.9 54.05 11.85 Q 54.4 11.8 54.65 11.7 L 54.75 11.7 L 54.75 13.05 Q 54.8 13.7 54.15 14.15 Q 53.55 14.65 52.2 14.65 Q 50.85 14.7 49.75 13.9 Q 48.7 13.1 48.65 11.1 L 48.6 4.9 Q 48.6 4.2 48.95 3.65 Q 49.3 3.15 49.8 2.75 Q 50.5 2.15 51.6 2.05 Z M 61.3 4.15 Q 61.3 4.2 61.35 4.15 Q 63.45 4.2 64.95 5.6 Q 66.45 6.95 66.5 9.3 Q 66.5 11.8 65.1 13.25 Q 63.7 14.7 61.1 14.75 L 61.05 14.75 Q 58.85 14.7 57.4 13.3 Q 55.95 11.95 55.9 9.7 Q 55.9 7.2 57.4 5.7 Q 58.9 4.2 61.3 4.15 Z M 61.3 12.05 Q 62.15 12 62.6 11.35 Q 63.1 10.7 63.1 9.65 Q 63 6.95 61.1 6.9 Q 60.35 6.95 59.85 7.6 Q 59.3 8.25 59.3 9.3 Q 59.4 12.1 61.3 12.05 Z M 76.4 11.35 Q 77 12 77.9 12 Q 78.75 11.95 79.15 11.3 Q 79.6 10.65 79.6 9.5 Q 79.6 7.95 79.1 7.3 Q 78.6 6.7 77.55 6.7 L 77.5 6.7 Q 76.8 6.75 76.3 7.35 Q 75.8 8 75.8 9.1 Q 75.85 10.7 76.4 11.35 Z M 84.8 0.85 L 86.05 0.85 Q 88.25 0.8 88.25 3.25 L 88.3 10.5 Q 88.3 11.75 89.75 11.65 L 90.5 11.65 L 90.55 12.85 Q 90.5 13.75 89.8 14.15 Q 89.15 14.5 88.3 14.5 Q 88.25 14.45 88.25 14.5 Q 86.85 14.5 85.85 13.65 Q 84.9 12.8 84.85 11.05 Z M 81.6 5.45 Q 83 6.8 83.05 9.15 Q 83.05 11.7 81.75 13.2 Q 80.45 14.65 78.35 14.65 Q 77.35 14.65 76.7 14.25 Q 76.1 13.9 75.75 13.3 L 75.8 17.5 L 74.5 17.5 Q 72.45 17.55 72.4 15.1 L 72.4 9.8 Q 72.4 7.05 73.8 5.6 Q 75.2 4.1 77.9 4.05 Q 77.9 4.1 77.95 4.05 Q 80.15 4.1 81.6 5.45 Z M 94.6 11.2 Q 94.55 12.15 95.95 12.15 Q 96.45 12.15 96.75 11.85 Q 97.1 11.6 97.1 10.9 L 97.1 10.15 L 96.4 10.15 Q 94.5 10.15 94.6 11.2 Z M 95.8 4 L 95.85 4 Q 97.9 4 99.15 5.05 Q 100.35 6.1 100.4 8.3 L 100.4 9.85 Q 100.45 12.55 99.35 13.55 Q 98.3 14.6 95.6 14.55 L 95.55 14.55 Q 94.05 14.6 92.7 13.85 Q 91.4 13.1 91.3 11.4 Q 91.3 9.75 92.55 8.9 Q 93.8 8.05 96.55 8 L 97.05 8 L 97.05 7.6 Q 97 7 96.55 6.8 Q 96.1 6.6 95.1 6.6 Q 95.05 6.6 95 6.6 Q 93.65 6.6 92.95 6.9 Q 92.25 7.2 91.75 7.7 L 91.65 7.7 L 91.65 6.5 Q 91.65 5.5 92.65 4.75 Q 93.65 4.05 95.8 4 Z M 108.4 4.2 L 110.05 4.2 Q 111.55 4.25 111.55 5.45 Q 111.5 6.35 110.95 8.1 Q 110.35 9.9 109.5 11.6 Q 108.15 14.25 107.3 15.55 Q 106.45 16.8 105.7 17.2 Q 104.95 17.6 103.95 17.55 L 103.9 17.55 Q 103.05 17.55 102.5 17.1 Q 101.9 16.7 101.9 15.85 L 101.85 15 L 103.35 14.85 Q 104.05 14.8 104.4 14.5 Q 104.8 14.2 105.05 13.6 Q 104.3 12.5 103.55 10.8 Q 102.75 9.15 102.15 7.4 Q 101.55 5.65 101.35 4.25 L 103.15 4.25 Q 103.8 4.25 104.35 4.6 Q 104.9 5 105.1 5.65 Q 105.35 6.85 105.8 8.15 Q 106.25 9.45 106.7 10.4 Q 107.25 9.2 107.75 7.45 Q 108.2 5.75 108.4 4.2 Z M 122.5 7.45 Q 122.5 6.9 122 6.65 Q 121.55 6.45 120.55 6.45 Q 120.5 6.45 120.45 6.45 Q 119.1 6.5 118.4 6.75 Q 117.7 7.05 117.2 7.55 L 117.1 7.55 L 117.1 6.35 Q 117.1 5.4 118.1 4.65 Q 119.1 3.9 121.25 3.85 L 121.3 3.85 Q 123.35 3.85 124.6 4.9 Q 125.8 6 125.85 8.2 L 125.85 9.75 Q 125.9 12.4 124.8 13.45 Q 123.75 14.5 121.05 14.45 L 121 14.45 Q 119.5 14.45 118.15 13.7 Q 116.85 12.95 116.75 11.25 Q 116.75 9.6 118 8.75 Q 119.25 7.9 122 7.9 L 122.5 7.9 Z M 122.2 11.75 Q 122.55 11.45 122.55 10.8 L 122.55 10.05 L 121.85 10.05 Q 119.95 10.05 120.05 11.05 Q 120 12 121.4 12 Q 121.9 12 122.2 11.75 Z M 133.65 7.05 Q 133.25 6.6 132.45 6.6 Q 130.85 6.65 130.85 8.45 Q 130.85 9.55 131.3 10 Q 131.75 10.45 132.55 10.45 Q 133.3 10.45 133.65 9.95 Q 134.05 9.45 134.05 8.6 Q 134.05 7.5 133.65 7.05 Z M 132.95 3.8 Q 135.25 3.8 136.3 5 Q 137.4 6.2 137.4 8.25 L 137.45 10.9 Q 137.45 11.25 137.5 12 Q 137.5 12.45 137.5 13 Q 137.5 14.9 136.1 16.15 Q 134.7 17.35 132.3 17.45 Q 132.25 17.4 132.25 17.45 Q 130.15 17.4 129.2 16.65 Q 128.3 15.9 128.3 14.9 L 128.3 13.8 L 128.4 13.8 Q 129.35 14.65 131.75 14.7 L 131.8 14.7 Q 132.9 14.65 133.45 14.15 Q 134.05 13.65 134.05 12.8 Q 134 12.55 134 12.2 L 134 11.9 Q 133.8 12.4 133.3 12.75 Q 132.75 13.1 132 13.15 L 131.95 13.15 Q 130 13.15 128.75 12.15 Q 127.45 11.1 127.4 8.8 Q 127.4 6.65 128.9 5.25 Q 130.35 3.85 132.95 3.8 Z M 142.45 10.95 Q 142.4 11.9 143.8 11.9 Q 144.3 11.9 144.65 11.65 Q 144.95 11.35 145 10.7 L 144.95 9.95 L 144.3 9.95 Q 142.35 9.95 142.45 10.95 Z M 143.65 3.75 L 143.7 3.75 Q 145.75 3.75 147 4.8 Q 148.2 5.85 148.25 8.05 L 148.25 9.6 Q 148.3 12.3 147.25 13.35 Q 146.15 14.35 143.45 14.35 Q 141.9 14.35 140.6 13.6 Q 139.25 12.85 139.15 11.15 Q 139.15 9.5 140.4 8.65 Q 141.7 7.8 144.4 7.8 L 144.9 7.8 L 144.9 7.35 Q 144.9 6.75 144.4 6.55 Q 143.95 6.35 142.95 6.35 L 142.9 6.35 Q 141.5 6.35 140.8 6.65 Q 140.1 6.95 139.6 7.45 L 139.5 7.45 L 139.5 6.25 Q 139.5 5.25 140.5 4.55 Q 141.5 3.8 143.65 3.75 Z M 155.1 11.5 L 155.55 11.5 L 155.55 12.55 Q 155.55 13.4 155 13.8 Q 154.45 14.15 153.6 14.15 L 153.55 14.15 Q 152.15 14.15 151.25 13.4 Q 150.35 12.65 150.3 10.9 L 150.25 4.3 L 151.15 4.3 Q 152.6 4.3 153.2 4.8 Q 153.75 5.35 153.75 6.7 L 153.75 10.35 Q 153.75 11.6 155.1 11.5 Z M 153.2 2.9 Q 152.65 3.4 151.9 3.45 Q 151.1 3.4 150.6 2.95 Q 150.1 2.45 150.05 1.7 Q 150.1 1 150.6 0.5 Q 151.1 0 151.9 0 Q 152.65 0 153.15 0.5 Q 153.65 1 153.7 1.7 Q 153.7 2.45 153.2 2.9 Z M 166.8 13.95 L 165.3 13.95 Q 164.2 13.95 163.75 13.5 Q 163.3 13.05 163.35 11.9 L 163.3 8.4 Q 163.35 6.4 161.7 6.45 Q 160.15 6.5 160.15 8.35 L 160.15 13.95 L 159 14 Q 156.75 14.05 156.7 11.95 L 156.7 8.45 Q 156.7 6.25 158 4.95 Q 159.35 3.7 161.75 3.65 L 161.8 3.65 Q 164.45 3.65 165.6 4.95 Q 166.8 6.2 166.75 8.45 Z" transform="translate(-83.4,7.6)" fill="#A939EA"/>
		<path d="M 6 4.45 Q 7.4 4.45 8.35 5.25 Q 9.35 6 9.4 7.25 L 9.4 9 L 8.6 9 L 8.45 8.85 Q 8.35 8.7 7.85 8.5 Q 7.3 8.3 6.7 8.3 Q 6.65 8.3 6.6 8.3 Q 5.45 8.35 4.95 8.8 Q 4.45 9.25 4.45 10.1 Q 4.5 11.2 5 11.65 Q 5.45 12.05 6.45 12.1 Q 7.9 12.05 8.6 11.55 L 8.75 11.5 L 9.4 11.5 L 9.4 13.05 Q 9.35 14.35 8.3 15.15 Q 7.3 15.95 5.75 15.95 L 5.7 15.95 Q 3.2 15.95 1.65 14.4 Q 0.05 12.85 0 10.3 Q 0 7.9 1.55 6.2 Q 3.15 4.55 6 4.45 Z M 7.7 6 Q 7.05 5.5 6 5.45 Q 3.55 5.55 2.25 6.9 Q 1 8.25 1 10.3 Q 1.05 12.5 2.35 13.7 Q 3.6 14.95 5.75 14.95 Q 7 14.9 7.7 14.35 Q 8.4 13.8 8.4 13.05 L 8.4 12.75 Q 7.6 13.05 6.45 13.1 Q 5.15 13.1 4.3 12.35 Q 3.45 11.5 3.45 10.1 Q 3.45 8.85 4.3 8.05 Q 5.15 7.3 6.6 7.3 Q 7.65 7.35 8.4 7.65 L 8.4 7.25 Q 8.4 6.55 7.7 6 Z M 11.6 1.25 Q 12.85 1.2 13.65 1.95 Q 14.35 2.75 14.35 4.1 L 14.4 11.4 Q 14.4 11.85 14.55 11.9 Q 14.7 12 15.3 12.05 L 16.6 12.05 L 16.6 13.75 Q 16.55 14.95 15.65 15.45 Q 14.8 15.85 13.85 15.85 Q 12.3 15.85 11.1 14.9 Q 9.95 13.9 9.9 11.9 L 9.85 1.25 Z M 11.6 2.25 L 10.85 2.25 L 10.9 11.9 Q 11 13.45 11.8 14.15 Q 12.6 14.85 13.85 14.85 Q 14.65 14.85 15.15 14.55 Q 15.6 14.35 15.6 13.75 L 15.6 13.05 L 15.35 13.05 Q 14.55 13.1 13.95 12.7 Q 13.35 12.2 13.4 11.4 L 13.35 4.1 Q 13.3 3 12.95 2.65 Q 12.55 2.25 11.6 2.25 Z M 19.9 2.05 Q 19.55 1.7 18.95 1.65 Q 18.4 1.7 18.05 2.05 Q 17.65 2.4 17.65 2.9 Q 17.65 3.4 18.05 3.75 Q 18.4 4.1 19 4.1 Q 19.55 4.05 19.9 3.75 Q 20.25 3.4 20.3 2.9 Q 20.25 2.35 19.9 2.05 Z M 20.35 11.55 L 20.3 7.85 Q 20.3 6.6 19.9 6.35 Q 19.6 6 18.3 5.95 Q 18.25 6 18.2 5.95 L 17.85 5.95 L 17.9 12.05 Q 17.95 13.6 18.65 14.2 Q 19.4 14.8 20.65 14.8 Q 21.4 14.8 21.8 14.55 Q 22.15 14.35 22.15 13.7 L 22.15 13.2 Q 21.4 13.2 20.85 12.85 Q 20.3 12.35 20.35 11.55 Z M 20.6 1.3 Q 21.25 1.9 21.3 2.85 Q 21.25 3.7 20.75 4.3 Q 20.2 4.9 19.4 5.05 Q 20.1 5.2 20.6 5.6 Q 21.4 6.4 21.3 7.85 L 21.35 11.55 Q 21.35 12.05 21.5 12.05 Q 21.55 12.15 22.2 12.2 L 23.15 12.2 L 23.15 13.7 Q 23.15 14.85 22.35 15.35 Q 21.6 15.85 20.7 15.8 L 20.65 15.8 Q 19.1 15.85 18 14.95 Q 16.9 14 16.9 12.05 L 16.85 5 L 18.2 4.95 Q 17.55 4.75 17.1 4.2 Q 16.65 3.65 16.65 2.9 Q 16.7 1.95 17.35 1.3 Q 18 0.7 18.95 0.65 Q 19.95 0.7 20.6 1.3 Z M 32.45 7.15 L 32.45 8.85 L 31.95 8.85 L 31.65 8.9 L 31.5 8.7 Q 31.4 8.6 30.85 8.4 Q 30.35 8.2 29.7 8.2 L 29.65 8.2 Q 28.5 8.25 28 8.65 Q 27.5 9.1 27.5 9.95 Q 27.55 11.05 28 11.5 Q 28.5 11.95 29.5 11.95 Q 30.95 11.95 31.65 11.45 L 31.8 11.4 L 32.45 11.4 L 32.45 12.95 Q 32.4 14.25 31.35 15.05 Q 30.35 15.8 28.8 15.85 L 28.75 15.85 Q 26.25 15.85 24.7 14.3 Q 23.1 12.75 23.05 10.2 Q 23.05 7.8 24.6 6.1 Q 26.2 4.4 29.05 4.35 Q 30.45 4.35 31.4 5.1 Q 32.4 5.9 32.45 7.15 Z M 31.45 7.55 L 31.45 7.15 Q 31.4 6.45 30.75 5.9 Q 30.1 5.35 29.05 5.35 Q 26.6 5.4 25.3 6.8 Q 24.05 8.15 24.05 10.2 Q 24.1 12.35 25.4 13.6 Q 26.65 14.8 28.8 14.85 Q 30.05 14.8 30.75 14.25 Q 31.45 13.7 31.45 12.95 L 31.45 12.65 Q 30.65 12.95 29.5 12.95 L 29.45 12.95 Q 28.2 13 27.35 12.2 Q 26.5 11.4 26.5 9.95 Q 26.5 8.7 27.35 7.95 Q 28.2 7.2 29.65 7.2 Q 30.7 7.2 31.45 7.55 Z M 36.45 3.65 Q 36.45 3 36.1 2.6 Q 35.75 2.15 34.8 2.1 L 33.95 2.1 L 34.05 13.05 Q 34.05 14.55 35.65 14.6 L 36.5 14.6 Z M 44.35 4.55 L 44.35 5.35 L 44.2 5.45 Q 43.75 6 42.65 7.3 Q 41.55 8.6 40.75 9.65 Q 41.55 10.9 42.4 11.95 Q 42.95 12.55 43.2 12.7 Q 43.4 12.8 43.95 12.95 L 44.4 13.05 L 44.35 13.45 Q 44.25 14.45 43.55 15.05 Q 42.85 15.65 41.85 15.65 Q 41.8 15.65 41.75 15.65 Q 41.25 15.65 40.65 15.5 Q 40.05 15.3 39.55 14.8 Q 38.4 13.45 37.5 12 L 37.5 15.6 L 35.6 15.6 Q 34.5 15.6 33.75 14.9 Q 33.05 14.2 33.05 13.05 L 32.95 1.15 L 34.85 1.1 Q 36.15 1.15 36.85 1.9 Q 37.45 2.7 37.45 3.65 L 37.45 7.7 Q 38.25 6.45 39.25 5.4 Q 39.85 4.55 41.3 4.55 Q 41.35 4.55 41.45 4.55 Z M 42.8 5.55 L 41.45 5.55 Q 40.7 5.55 40.45 5.65 Q 40.2 5.75 39.95 6.05 Q 38.6 7.7 37.4 9.6 L 37.25 9.8 L 37.4 10.05 Q 38.75 12.2 40.35 14.15 Q 40.5 14.35 40.95 14.5 Q 41.35 14.65 41.7 14.65 L 41.75 14.65 Q 43 14.6 43.25 13.8 Q 42.5 13.6 41.65 12.6 Q 40.55 11.3 39.75 9.95 L 39.55 9.65 L 39.75 9.4 Q 40.3 8.55 41.2 7.45 Q 42.05 6.4 42.8 5.55 Z M 52.95 2.05 L 52.95 4.5 L 55.9 4.45 L 55.9 6.2 Q 55.85 7.15 55.2 7.65 Q 54.55 8.2 53.75 8.2 L 53 8.2 L 53 11.35 Q 53 11.95 53.6 11.9 Q 54.2 11.9 54.5 11.85 Q 54.8 11.8 55 11.75 L 55.05 11.7 L 55.75 11.7 L 55.75 13.55 Q 55.75 14.45 54.95 15.05 Q 54.15 15.65 52.7 15.65 Q 51.25 15.7 49.95 14.8 Q 48.7 13.85 48.65 11.6 L 48.6 5.4 Q 48.6 4.55 49 3.9 Q 49.4 3.25 50 2.85 Q 50.35 2.55 50.9 2.3 Q 51.45 2.05 52.1 2.05 Z M 51.95 5.5 L 51.95 3.05 Q 51.15 3.15 50.6 3.65 Q 49.65 4.3 49.6 5.4 L 49.65 11.6 Q 49.7 13.4 50.6 14.05 Q 51.5 14.65 52.7 14.65 Q 53.95 14.6 54.35 14.25 Q 54.8 13.9 54.75 13.55 L 54.75 12.85 Q 54.3 12.9 53.6 12.9 Q 52.9 12.9 52.45 12.5 Q 52 12.05 52 11.35 L 52 7.25 L 53.75 7.2 Q 54.15 7.2 54.55 6.9 Q 54.9 6.6 54.9 6.2 L 54.9 5.5 Z M 66.5 9.8 Q 66.45 7.7 65.1 6.45 Q 63.75 5.2 61.8 5.15 Q 59.6 5.2 58.25 6.55 Q 56.95 7.85 56.9 10.2 Q 56.95 12.25 58.25 13.45 Q 59.6 14.7 61.6 14.75 Q 64.05 14.7 65.25 13.4 Q 66.5 12.15 66.5 9.8 Z M 61.6 7.9 Q 61.15 7.9 60.75 8.4 Q 60.3 8.9 60.3 9.8 Q 60.35 11.1 60.75 11.6 Q 61.1 12.05 61.8 12.05 Q 63 12 63.1 10.15 Q 63.05 8.9 62.65 8.4 Q 62.25 7.9 61.6 7.9 Z M 61.6 6.9 L 61.65 6.9 Q 62.75 6.9 63.45 7.8 Q 64.1 8.7 64.1 10.15 Q 64.1 11.35 63.5 12.15 Q 62.9 13 61.8 13.05 L 61.75 13.05 Q 60.65 13.05 59.95 12.2 Q 59.3 11.3 59.3 9.8 Q 59.3 8.6 59.95 7.75 Q 60.6 6.95 61.6 6.9 Z M 61.8 4.15 Q 64.1 4.2 65.75 5.75 Q 67.4 7.25 67.5 9.8 Q 67.55 12.45 65.95 14.1 Q 64.4 15.7 61.6 15.75 Q 59.2 15.7 57.6 14.2 Q 55.95 12.65 55.9 10.2 Q 55.9 7.5 57.55 5.85 Q 59.2 4.2 61.8 4.15 Z M 78 6.7 L 78.05 6.7 Q 79.25 6.65 79.95 7.5 Q 80.6 8.35 80.6 10 Q 80.6 11.25 80.1 12.1 Q 79.5 12.95 78.45 13 Q 78.45 12.95 78.4 13 Q 77.3 13 76.55 12.15 Q 75.8 11.3 75.8 9.6 Q 75.8 8.35 76.4 7.55 Q 77 6.75 78 6.7 Z M 78 7.7 Q 77.55 7.7 77.2 8.15 Q 76.85 8.6 76.8 9.6 Q 76.85 11.05 77.3 11.55 Q 77.7 12 78.4 12 Q 79.5 12.05 79.6 10 Q 79.55 8.5 79.2 8.1 Q 78.95 7.7 78 7.7 Z M 82.4 5.55 Q 84 7.05 84.05 9.65 Q 84.05 12.4 82.6 14 Q 81.15 15.65 78.85 15.65 Q 78.8 15.7 78.8 15.65 Q 77.55 15.65 76.8 15.1 L 76.8 18.5 L 75 18.5 Q 73.85 18.5 73.1 17.75 Q 72.4 16.95 72.4 15.6 L 72.4 10.3 Q 72.35 7.4 73.95 5.75 Q 75.55 4.1 78.4 4.05 Q 78.4 4.1 78.45 4.05 Q 80.85 4.1 82.4 5.55 Z M 83.05 9.65 Q 83 7.5 81.75 6.3 Q 80.45 5.1 78.4 5.05 Q 73.4 5.2 73.4 10.3 L 73.4 15.6 Q 73.45 16.7 73.8 17.1 Q 74.15 17.5 75.05 17.5 L 75.8 17.5 L 75.75 12 L 76.7 13.55 Q 77 14.05 77.45 14.35 Q 77.95 14.65 78.85 14.65 Q 80.7 14.65 81.85 13.35 Q 83 12.05 83.05 9.65 Z M 88.25 3.75 Q 88.2 2.6 87.85 2.25 Q 87.5 1.9 86.5 1.85 L 85.8 1.85 L 85.85 11.55 Q 85.9 13.1 86.7 13.8 Q 87.5 14.45 88.8 14.5 Q 89.55 14.45 90.05 14.2 Q 90.5 13.95 90.55 13.35 L 90.55 12.65 L 90.25 12.65 Q 89.5 12.7 88.85 12.3 Q 88.25 11.85 88.3 11 Z M 95.75 11.35 Q 95.55 11.45 95.6 11.7 Q 95.6 11.95 95.7 12 Q 95.8 12.1 96.45 12.15 Q 96.8 12.1 96.95 12 Q 97.1 11.9 97.1 11.4 L 97.1 11.15 L 96.9 11.15 Q 96 11.2 95.75 11.35 Z M 94.6 11.7 Q 94.6 10.9 95.25 10.5 Q 95.9 10.15 96.9 10.15 L 98.1 10.15 L 98.1 11.4 Q 98.1 12.25 97.6 12.75 Q 97.05 13.15 96.45 13.15 Q 95.65 13.15 95.1 12.8 Q 94.55 12.35 94.6 11.7 Z M 99.3 5.9 Q 98.25 5 96.3 5 Q 94.25 5.05 93.45 5.7 Q 92.6 6.3 92.65 7 L 92.65 7.25 Q 93.55 6.6 95.45 6.6 L 95.5 6.6 Q 96.55 6.55 97.25 6.85 Q 98 7.2 98.05 8.1 L 98.05 9 L 97.05 9 Q 94.4 9.05 93.35 9.8 Q 92.3 10.45 92.3 11.9 Q 92.35 13.3 93.5 13.9 Q 94.05 14.25 94.7 14.4 Q 95.4 14.55 96.05 14.55 L 96.1 14.55 Q 98.75 14.55 99.5 13.7 Q 100.4 12.95 100.4 10.35 L 100.4 8.8 Q 100.35 6.8 99.3 5.9 Z M 101.4 8.8 L 101.4 10.35 Q 101.5 13.1 100.2 14.45 Q 98.85 15.65 96.1 15.55 Q 94.75 15.6 93.45 15 Q 92.1 14.45 91.55 13.1 L 91.55 13.35 Q 91.5 14.55 90.55 15.05 Q 89.7 15.5 88.8 15.5 Q 88.75 15.45 88.75 15.5 Q 87.2 15.5 86.05 14.5 Q 84.9 13.5 84.85 11.55 L 84.8 0.85 L 86.55 0.85 Q 87.8 0.85 88.55 1.55 Q 89.3 2.35 89.25 3.75 L 89.3 11 Q 89.35 11.5 89.45 11.5 Q 89.6 11.65 90.2 11.65 L 91.3 11.65 Q 91.4 9.95 92.75 8.95 Q 94.25 8 97 8 Q 97.05 7.8 96.8 7.75 Q 96.55 7.6 95.6 7.6 L 95.5 7.6 Q 94.2 7.6 93.65 7.85 Q 93.05 8.1 92.6 8.55 L 92.45 8.7 L 91.65 8.7 L 91.65 7 Q 91.65 5.7 92.85 4.9 Q 94.05 4.05 96.3 4 Q 96.3 3.95 96.35 4 Q 98.55 3.95 99.95 5.15 Q 101.35 6.4 101.4 8.8 Z M 111.35 5.4 Q 111.15 5.25 110.55 5.2 L 109.35 5.2 Q 109.1 6.7 108.65 8.35 Q 108.2 9.95 107.65 11.1 L 107.15 12.05 L 106.7 11.1 Q 106.3 10.1 105.85 8.8 Q 105.4 7.5 105.1 6.25 Q 105 5.8 104.6 5.5 Q 104.15 5.25 103.65 5.25 L 102.45 5.25 Q 102.7 6.6 103.3 8.2 Q 103.9 9.85 104.6 11.35 Q 105.3 12.85 105.95 13.85 L 106.1 14.05 L 106 14.3 Q 105.5 15.75 103.9 15.85 L 102.9 15.95 L 102.9 16.35 Q 102.95 17.5 104.4 17.55 Q 105.15 17.55 105.65 17.4 Q 106.1 17.25 106.6 16.75 Q 107.1 16.2 107.85 15.05 Q 108.55 13.85 109.55 11.85 Q 110.1 10.8 110.55 9.6 Q 111 8.4 111.3 7.4 Q 111.55 6.4 111.55 5.95 Q 111.5 5.55 111.35 5.4 Z M 112 4.65 Q 112.55 5.2 112.55 5.95 Q 112.5 7 111.9 8.8 Q 111.3 10.55 110.45 12.3 Q 109.4 14.35 108.7 15.55 Q 107.95 16.8 107.3 17.45 Q 106.7 18.1 106 18.35 Q 105.3 18.55 104.5 18.55 L 104.4 18.55 Q 103.45 18.55 102.7 18 Q 101.95 17.45 101.9 16.35 L 101.85 15.05 L 103.8 14.9 Q 104.3 14.8 104.55 14.65 Q 104.8 14.55 105 14.15 Q 104.25 12.95 103.45 11.3 Q 102.7 9.65 102.15 7.9 Q 101.55 6.2 101.35 4.8 L 101.25 4.25 L 103.65 4.25 Q 104.45 4.25 105.15 4.7 Q 105.85 5.15 106.1 6.05 Q 106.25 6.9 106.55 7.8 Q 106.85 8.75 107.2 9.6 Q 107.6 8.45 107.95 7.1 Q 108.25 5.8 108.4 4.65 L 108.45 4.2 L 110.6 4.2 Q 111.45 4.2 112 4.65 Z M 122.55 11.05 L 122.35 11.05 Q 121.45 11.05 121.2 11.25 Q 121 11.3 121.05 11.55 Q 121.05 11.8 121.15 11.9 Q 121.25 11.95 121.9 12 Q 122.25 12 122.4 11.9 Q 122.55 11.75 122.55 11.3 Z M 123.55 10.05 L 123.55 11.3 Q 123.55 12.15 123.05 12.6 Q 122.55 13.05 121.9 13 Q 121.1 13.05 120.55 12.7 Q 120 12.25 120.05 11.55 Q 120.05 10.8 120.7 10.35 Q 121.35 10.05 122.35 10.05 Z M 121.8 3.85 Q 124 3.85 125.4 5.05 Q 126.8 6.3 126.85 8.7 L 126.85 10.25 Q 126.95 13 125.65 14.3 Q 125 14.95 123.95 15.2 Q 122.95 15.45 121.55 15.45 Q 120.5 15.45 119.4 15.1 Q 118.35 14.75 117.55 13.9 Q 116.8 13.1 116.75 11.75 Q 116.7 9.85 118.25 8.85 Q 119.7 7.9 122.45 7.9 Q 122.45 7.7 122.3 7.6 Q 122 7.45 121.05 7.45 L 120.95 7.45 Q 119.65 7.5 119.1 7.75 Q 118.5 8 118.05 8.45 L 117.9 8.55 L 117.1 8.55 L 117.1 6.85 Q 117.1 5.6 118.3 4.75 Q 119.5 3.9 121.75 3.85 Z M 124.75 5.75 Q 123.7 4.85 121.75 4.85 Q 119.7 4.9 118.9 5.55 Q 118.05 6.2 118.1 6.85 L 118.1 7.1 Q 119 6.5 120.9 6.45 L 120.95 6.45 Q 122 6.45 122.7 6.7 Q 123.05 6.85 123.3 7.2 Q 123.5 7.55 123.5 7.95 L 123.5 8.9 L 122.5 8.9 Q 119.85 8.95 118.8 9.65 Q 117.75 10.35 117.75 11.75 Q 117.8 13.15 118.95 13.8 Q 119.5 14.1 120.15 14.3 Q 120.85 14.45 121.5 14.45 L 121.55 14.45 Q 124.2 14.45 124.95 13.6 Q 125.85 12.85 125.85 10.25 L 125.85 8.7 Q 125.8 6.65 124.75 5.75 Z M 134.05 9.1 Q 134 8.1 133.75 7.85 Q 133.6 7.6 132.95 7.6 Q 132.4 7.6 132.1 7.9 Q 131.85 8.2 131.85 8.95 Q 131.9 9.9 132.15 10.15 Q 132.45 10.45 133.05 10.45 Q 134 10.5 134.05 9.1 Z M 136.45 5.85 Q 135.55 4.85 133.45 4.8 Q 131.05 4.85 129.7 6.1 Q 128.4 7.35 128.4 9.25 Q 128.45 11.4 129.55 12.25 Q 130.65 13.15 132.5 13.15 Q 133.1 13.1 133.5 12.85 Q 133.9 12.55 134 12.2 L 134.5 10.85 Q 133.95 11.45 133.1 11.45 L 133.05 11.45 Q 132.1 11.5 131.45 10.85 Q 130.8 10.15 130.85 8.95 Q 130.8 7.9 131.4 7.25 Q 132 6.6 132.95 6.6 L 133 6.6 Q 133.9 6.55 134.5 7.2 Q 135.05 7.9 135.05 9.1 Q 135.05 9.45 135 9.8 L 135 12.7 Q 135 12.95 135.05 13.3 Q 135.05 14.35 134.3 15 Q 133.55 15.7 132.3 15.7 Q 130.45 15.7 129.3 15.15 L 129.3 15.4 Q 129.25 16.15 130 16.75 Q 130.75 17.35 132.75 17.4 Q 135 17.35 136.25 16.25 Q 137.5 15.15 137.5 13.5 Q 137.5 12.95 137.5 12.5 Q 137.45 11.8 137.45 11.4 L 137.4 8.75 Q 137.4 6.85 136.45 5.85 Z M 133.45 3.8 L 133.5 3.8 Q 135.9 3.8 137.2 5.15 Q 138.45 6.55 138.4 8.75 L 138.45 11.4 Q 138.45 11.75 138.5 12.45 Q 138.5 12.95 138.5 13.5 Q 138.45 15.6 136.9 17 Q 135.35 18.35 132.8 18.45 Q 132.75 18.4 132.75 18.45 Q 130.55 18.4 129.4 17.55 Q 128.3 16.65 128.3 15.4 L 128.3 13.8 L 129.1 13.8 L 129.25 13.95 Q 129.9 14.65 132.2 14.7 Q 132.25 14.7 132.3 14.7 Q 133.8 14.6 134 13.7 Q 133.35 14.1 132.5 14.15 L 132.45 14.15 Q 130.4 14.2 128.9 13 Q 127.45 11.8 127.4 9.3 Q 127.4 6.95 129.05 5.4 Q 130.7 3.85 133.45 3.8 Z M 142.45 11.45 Q 142.45 10.65 143.1 10.25 Q 143.75 9.9 144.8 9.95 L 145.95 9.95 L 146 11.15 Q 146 12 145.45 12.5 Q 144.95 12.95 144.3 12.9 Q 143.5 12.95 143 12.55 Q 142.45 12.1 142.45 11.45 Z M 143.45 11.45 Q 143.45 11.7 143.55 11.75 Q 143.65 11.85 144.3 11.9 Q 144.65 11.85 144.8 11.75 Q 144.95 11.65 145 11.2 L 145 10.95 L 144.8 10.95 Q 143.85 10.95 143.6 11.1 Q 143.45 11.2 143.45 11.45 Z M 145.9 7.85 L 145.9 8.75 L 144.9 8.8 Q 142.25 8.8 141.2 9.55 Q 140.15 10.25 140.15 11.65 Q 140.25 13.05 141.35 13.65 Q 142.5 14.3 143.95 14.35 Q 146.6 14.35 147.4 13.45 Q 148.25 12.75 148.25 10.1 L 148.25 8.55 Q 148.2 6.55 147.15 5.65 Q 146.1 4.75 144.15 4.75 Q 142.1 4.8 141.3 5.45 Q 140.45 6.05 140.5 6.75 L 140.5 7 Q 141.4 6.4 143.3 6.35 Q 143.35 6.35 143.4 6.35 Q 144.4 6.3 145.1 6.6 Q 145.9 6.95 145.9 7.85 Z M 144.15 3.75 L 144.2 3.75 Q 146.4 3.75 147.8 4.9 Q 149.2 6.2 149.25 8.55 L 149.25 10.1 Q 149.35 12.9 148.1 14.2 Q 147.4 14.85 146.35 15.1 Q 145.35 15.35 143.95 15.35 Q 142.9 15.35 141.8 15 Q 140.75 14.6 139.95 13.8 Q 139.2 13 139.15 11.65 Q 139.15 9.75 140.65 8.75 Q 142.1 7.75 144.9 7.8 Q 144.9 7.55 144.7 7.5 Q 144.4 7.35 143.5 7.35 Q 143.45 7.35 143.4 7.35 Q 142.05 7.35 141.5 7.6 Q 140.9 7.85 140.45 8.3 L 140.3 8.45 L 139.5 8.45 L 139.5 6.75 Q 139.5 5.5 140.7 4.65 Q 141.9 3.8 144.15 3.75 Z M 153.75 10.85 L 153.75 7.2 Q 153.7 5.95 153.35 5.7 Q 153 5.3 151.7 5.3 Q 151.65 5.3 151.6 5.3 L 151.25 5.3 L 151.3 11.4 Q 151.35 12.95 152.1 13.55 Q 152.8 14.15 154.1 14.15 Q 154.85 14.1 155.2 13.9 Q 155.55 13.65 155.55 13.05 L 155.55 12.5 Q 154.85 12.55 154.3 12.15 Q 153.75 11.65 153.75 10.85 Z M 153.3 1.35 Q 152.95 1 152.4 1 Q 151.8 1 151.45 1.35 Q 151.1 1.7 151.05 2.2 Q 151.1 2.7 151.45 3.05 Q 151.8 3.4 152.4 3.45 Q 152.95 3.4 153.35 3.05 Q 153.7 2.7 153.7 2.2 Q 153.7 1.7 153.3 1.35 Z M 152.4 0 Q 153.35 0 154 0.65 Q 154.65 1.25 154.7 2.2 Q 154.7 3.05 154.15 3.65 Q 153.6 4.25 152.8 4.4 Q 153.5 4.5 154 4.95 Q 154.8 5.75 154.75 7.15 L 154.75 10.85 Q 154.8 11.35 154.9 11.4 Q 155 11.5 155.6 11.5 L 156.55 11.5 L 156.55 13.05 Q 156.55 14.15 155.8 14.7 Q 155 15.15 154.1 15.15 L 154.05 15.15 Q 152.55 15.2 151.45 14.3 Q 150.35 13.3 150.3 11.4 L 150.25 4.3 L 151.65 4.3 Q 150.95 4.05 150.5 3.5 Q 150.1 2.95 150.05 2.2 Q 150.1 1.25 150.75 0.65 Q 151.4 0.05 152.4 0 Z M 162.25 3.65 L 162.3 3.65 Q 165.05 3.65 166.45 5.1 Q 167.8 6.6 167.75 8.95 L 167.8 14.95 L 165.85 14.95 Q 164.6 15 163.9 14.35 Q 163.25 13.65 163.35 12.4 L 163.3 8.9 Q 163.3 7.95 163.05 7.75 Q 162.9 7.5 162.2 7.45 Q 161.65 7.45 161.4 7.75 Q 161.2 8.05 161.15 8.85 L 161.15 14.95 L 159.5 15 Q 158.3 15 157.5 14.4 Q 156.7 13.7 156.7 12.45 L 156.7 8.95 Q 156.7 6.55 158.15 5.1 Q 159.7 3.7 162.25 3.65 Z M 165.75 5.8 Q 164.75 4.7 162.25 4.65 Q 160 4.7 158.85 5.8 Q 157.7 6.95 157.7 8.95 L 157.7 12.45 Q 157.75 13.35 158.1 13.65 Q 158.5 13.95 159.5 14 L 160.15 13.95 L 160.15 8.85 Q 160.1 7.8 160.65 7.15 Q 161.2 6.45 162.15 6.45 L 162.25 6.45 Q 163.25 6.45 163.8 7.1 Q 164.35 7.8 164.3 8.9 L 164.35 12.4 Q 164.35 13.45 164.6 13.65 Q 164.8 13.9 165.8 13.95 L 166.8 13.95 L 166.75 8.95 Q 166.75 6.85 165.75 5.8 Z" transform="translate(-83.9,7.1)" fill="#FFFFFF"/>
	</g>
</svg>
