<?xml version="1.0"?>
<!DOCTYPE svg PUBLIC "-//W3C//DTD SVG 1.1//EN" "http://www.w3.org/Graphics/SVG/1.1/DTD/svg11.dtd">
<svg version='1.1' width='300px' height='250px' xmlns='http://www.w3.org/2000/svg' xmlns:xlink='http://www.w3.org/1999/xlink'>
		<path d="M 300 0 L 300 250 L 0 250 L 0 0 Z M 282.25 24.95 Q 281.05 22.95 279.05 21.75 Q 277 20.55 274.5 20.5 L 25.5 20.5 Q 23 20.55 20.95 21.75 Q 18.95 22.95 17.75 24.95 Q 16.55 27 16.5 29.5 L 16.5 202.5 Q 16.55 205 17.75 207.05 Q 18.95 209.05 20.95 210.25 Q 23 211.45 25.5 211.5 L 274.5 211.5 Q 277 211.45 279.05 210.25 Q 281.05 209.05 282.25 207.05 Q 283.45 205 283.5 202.5 L 283.5 29.5 Q 283.45 27 282.25 24.95 Z" fill="#4122B2"/>
</svg>
