<?xml version="1.0"?>
<!DOCTYPE svg PUBLIC "-//W3C//DTD SVG 1.1//EN" "http://www.w3.org/Graphics/SVG/1.1/DTD/svg11.dtd">
<svg version='1.1' width='238px' height='161px' xmlns='http://www.w3.org/2000/svg' xmlns:xlink='http://www.w3.org/1999/xlink'>
	<g transform="translate(-31.15,-34)">
		<path d="M 257.15 34 Q 260.35 34.05 262.95 35.55 Q 265.55 37.1 267.1 39.7 Q 268.6 42.3 268.65 45.5 L 268.65 183.5 Q 268.6 186.7 267.1 189.3 Q 265.55 191.9 262.95 193.45 Q 260.35 194.95 257.15 195 L 42.65 195 Q 39.45 194.95 36.85 193.45 Q 34.25 191.9 32.7 189.3 Q 31.2 186.7 31.15 183.5 L 31.15 45.5 Q 31.2 42.3 32.7 39.7 Q 34.25 37.1 36.85 35.55 Q 39.45 34.05 42.65 34 Z M 261.25 35.8 Q 259.35 35 257.15 35 L 42.65 35 Q 40.45 35 38.55 35.85 Q 36.65 36.65 35.25 38.1 Q 33.8 39.5 32.95 41.4 Q 32.15 43.3 32.15 45.5 L 32.15 183.5 Q 32.15 185.7 33 187.6 Q 33.8 189.5 35.25 190.9 Q 36.65 192.35 38.55 193.2 Q 40.45 194 42.65 194 L 257.15 194 Q 259.35 194 261.25 193.15 Q 263.15 192.35 264.55 190.9 Q 266 189.5 266.85 187.6 Q 267.65 185.7 267.65 183.5 L 267.65 45.5 Q 267.65 43.3 266.8 41.4 Q 266 39.5 264.55 38.1 Q 263.15 36.65 261.25 35.8 Z" fill="#4A83BA"/>
		<path d="M 261.25 35.8 Q 263.15 36.65 264.55 38.1 Q 266 39.5 266.8 41.4 Q 267.65 43.3 267.65 45.5 L 267.65 183.5 Q 267.65 185.7 266.85 187.6 Q 266 189.5 264.55 190.9 Q 263.15 192.35 261.25 193.15 Q 259.35 194 257.15 194 L 42.65 194 Q 40.45 194 38.55 193.2 Q 36.65 192.35 35.25 190.9 Q 33.8 189.5 33 187.6 Q 32.15 185.7 32.15 183.5 L 32.15 45.5 Q 32.15 43.3 32.95 41.4 Q 33.8 39.5 35.25 38.1 Q 36.65 36.65 38.55 35.85 Q 40.45 35 42.65 35 L 257.15 35 Q 259.35 35 261.25 35.8 Z" fill="#24E8ED" fill-opacity="0.498039"/>
	</g>
</svg>
