<?xml version="1.0"?>
<!DOCTYPE svg PUBLIC "-//W3C//DTD SVG 1.1//EN" "http://www.w3.org/Graphics/SVG/1.1/DTD/svg11.dtd">
<svg version='1.1' width='53px' height='10px' xmlns='http://www.w3.org/2000/svg' xmlns:xlink='http://www.w3.org/1999/xlink'>
	<g transform="translate(-3.9,-5.39821)">
		<path d="M 9 7.95 Q 9.8 8.7 9.8 10 Q 9.8 11.4 9.1 12.2 Q 8.35 13.05 7.2 13.05 Q 6.1 12.95 5.75 12.3 L 5.75 14.6 L 5.05 14.6 Q 3.9 14.65 3.9 13.25 L 3.9 10.3 Q 3.95 7.25 6.95 7.15 Q 8.2 7.15 9 7.95 Z M 6.95 11.55 Q 7.9 11.5 7.9 10.2 Q 7.9 9.3 7.6 8.95 Q 7.35 8.6 6.75 8.6 Q 5.9 8.65 5.8 9.95 Q 5.9 11.65 6.95 11.55 Z M 17.2 10.6 Q 16.15 10.6 16.2 11.15 Q 16.2 11.7 16.95 11.7 Q 17.55 11.75 17.6 11 L 17.6 10.6 Z M 14.65 9.2 L 14.6 9.2 L 14.6 8.55 Q 14.6 8 15.15 7.6 Q 15.7 7.2 16.9 7.15 Q 18.05 7.15 18.75 7.75 Q 19.4 8.35 19.4 9.55 L 19.4 10.45 Q 19.45 11.9 18.85 12.5 Q 18.25 13.05 16.75 13.05 Q 15.9 13.05 15.15 12.6 Q 14.45 12.2 14.4 11.25 Q 14.3 9.4 17.3 9.4 L 17.55 9.4 L 17.55 9.15 Q 17.6 8.55 16.45 8.6 Q 15.7 8.6 15.3 8.75 Q 14.9 8.95 14.65 9.2 Z M 10.8 5.4 L 11.45 5.4 Q 12.75 5.35 12.7 6.7 L 12.7 10.75 Q 12.7 11.45 13.5 11.4 L 13.95 11.4 L 13.95 12.05 Q 13.95 12.55 13.55 12.75 Q 13.15 12.95 12.7 12.95 Q 11.9 12.95 11.35 12.5 Q 10.8 12 10.8 11.05 Z M 23.5 9.1 Q 23.8 8.15 23.9 7.3 L 24.8 7.3 Q 25.6 7.35 25.6 8.05 Q 25.6 8.5 25.25 9.5 Q 24.95 10.5 24.45 11.4 Q 23.35 13.6 22.75 14.2 Q 22.15 14.8 21.35 14.7 Q 20.9 14.7 20.55 14.45 Q 20.25 14.2 20.25 13.75 L 20.25 13.3 L 21.05 13.2 Q 21.75 13.2 22 12.5 Q 21.35 11.55 20.75 10.05 Q 20.15 8.5 19.95 7.3 L 20.95 7.3 Q 21.3 7.3 21.65 7.55 Q 21.95 7.75 22.05 8.1 Q 22.2 8.8 22.45 9.5 Q 22.7 10.2 22.9 10.75 Q 23.25 10.05 23.5 9.1 Z M 37.85 10.6 Q 36.8 10.6 36.85 11.15 Q 36.8 11.7 37.6 11.7 Q 38.15 11.75 38.25 11 L 38.25 10.6 Z M 32.15 12.15 Q 32.15 12 32.15 11.85 L 32.15 11.65 Q 31.9 12.25 31 12.35 Q 29.95 12.35 29.25 11.75 Q 28.5 11.2 28.5 9.9 Q 28.5 8.75 29.35 7.95 Q 30.15 7.2 31.6 7.15 Q 32.85 7.15 33.45 7.85 Q 34.05 8.5 34.05 9.65 L 34.05 11.1 Q 34.05 11.3 34.1 11.7 Q 34.1 11.95 34.1 12.3 Q 34.05 13.3 33.3 14 Q 32.5 14.7 31.2 14.7 Q 30 14.7 29.5 14.25 Q 28.95 13.85 28.95 13.3 L 28.95 12.7 L 29.05 12.7 Q 29.55 13.2 30.9 13.2 Q 32.15 13.15 32.15 12.15 Z M 31.35 10.85 Q 32.15 10.8 32.2 9.8 Q 32.2 8.65 31.3 8.7 Q 30.4 8.75 30.4 9.7 Q 30.45 10.9 31.35 10.85 Z M 35.25 9.2 L 35.2 9.2 L 35.2 8.55 Q 35.2 8 35.75 7.6 Q 36.35 7.2 37.5 7.15 Q 38.7 7.15 39.35 7.75 Q 40.05 8.35 40.05 9.55 L 40.05 10.45 Q 40.1 11.9 39.5 12.5 Q 38.9 13.05 37.4 13.05 Q 36.55 13.05 35.8 12.6 Q 35.05 12.2 35 11.25 Q 34.95 9.4 37.9 9.4 L 38.2 9.4 L 38.2 9.15 Q 38.2 8.55 37.1 8.6 Q 36.35 8.6 35.95 8.75 Q 35.55 8.95 35.25 9.2 Z M 44.85 7.5 Q 45.3 7.8 45.45 8.15 Q 45.65 7.8 46.1 7.5 Q 46.55 7.2 47.15 7.15 Q 49.65 7.2 49.75 9.85 L 49.75 12.85 L 49.1 12.85 Q 48.35 12.85 48.1 12.55 Q 47.8 12.25 47.85 11.75 L 47.85 9.7 Q 47.85 8.7 47.05 8.7 Q 46.3 8.8 46.3 9.65 L 46.3 12.85 L 45.65 12.85 Q 45.05 12.9 44.75 12.65 Q 44.45 12.4 44.45 11.75 L 44.45 9.65 Q 44.45 8.7 43.7 8.7 Q 42.9 8.7 42.95 9.7 L 42.95 12.85 L 42.3 12.85 Q 41 12.85 41.05 11.75 L 41.05 9.8 Q 41.05 8.6 41.7 7.85 Q 42.4 7.15 43.75 7.15 Q 44.4 7.2 44.85 7.5 Z M 53.55 7.15 Q 54.65 7.15 55.35 7.75 Q 56.1 8.3 56.1 9.4 Q 56.15 10.2 55.45 10.5 Q 54.8 10.8 53.4 10.8 L 52.55 10.8 Q 52.75 11.6 53.95 11.6 Q 55.25 11.6 55.7 11.25 L 55.75 11.25 L 55.75 11.7 Q 55.8 12.25 55.3 12.65 Q 54.8 13 53.6 13.05 Q 52.15 13 51.4 12.2 Q 50.65 11.4 50.65 10.2 Q 50.7 8.9 51.45 8.05 Q 52.25 7.2 53.55 7.15 Z M 54.35 9.15 Q 54.35 8.65 53.55 8.6 Q 52.55 8.65 52.5 9.55 L 53.25 9.55 Q 53.95 9.55 54.15 9.45 Q 54.35 9.35 54.35 9.15 Z" fill="#FFFFFF" fill-opacity="0.6"/>
	</g>
</svg>
