<?xml version="1.0"?>
<!DOCTYPE svg PUBLIC "-//W3C//DTD SVG 1.1//EN" "http://www.w3.org/Graphics/SVG/1.1/DTD/svg11.dtd">
<svg version='1.1' width='7px' height='7px' xmlns='http://www.w3.org/2000/svg' xmlns:xlink='http://www.w3.org/1999/xlink'>
		<path d="M 1.35 5.4 Q 0.55 4.6 0.5 3.4 Q 0.55 2.15 1.35 1.35 Q 2.15 0.55 3.4 0.5 Q 4.6 0.55 5.4 1.35 Q 6.2 2.15 6.25 3.4 Q 6.2 4.6 5.4 5.4 Q 4.6 6.2 3.4 6.25 Q 2.15 6.2 1.35 5.4 Z" fill="#9C6DA3"/>
		<path d="M 5.05 1.7 Q 4.4 1.05 3.4 1 Q 2.35 1.05 1.7 1.7 Q 1.05 2.35 1 3.4 Q 1.05 4.4 1.7 5.05 Q 2.35 5.7 3.4 5.75 Q 4.4 5.7 5.05 5.05 Q 5.7 4.4 5.75 3.4 Q 5.7 2.35 5.05 1.7 Z M 6.75 3.4 Q 6.7 4.8 5.75 5.75 Q 4.8 6.7 3.4 6.75 Q 1.95 6.7 1 5.75 Q 0.05 4.8 0 3.4 Q 0.05 1.95 1 1 Q 1.95 0.05 3.4 0 Q 4.8 0.05 5.75 1 Q 6.7 1.95 6.75 3.4 Z" fill="#841B93"/>
</svg>
