<?xml version="1.0"?>
<!DOCTYPE svg PUBLIC "-//W3C//DTD SVG 1.1//EN" "http://www.w3.org/Graphics/SVG/1.1/DTD/svg11.dtd">
<svg version='1.1' width='149px' height='79px' xmlns='http://www.w3.org/2000/svg' xmlns:xlink='http://www.w3.org/1999/xlink'>
	<g transform="translate(1.42109e-14,-0)">
		<path d="M 159.75 97.05 Q 158.05 97.05 157.3 97.5 Q 156.55 97.9 156.55 98.8 Q 156.5 100.45 158.9 100.45 L 158.95 100.45 Q 159.75 100.45 160.35 99.95 Q 160.9 99.5 160.95 98.35 L 160.9 97.05 Z M 135.45 91.15 Q 136.55 89.05 138.7 87.8 Q 140.8 86.55 143.85 86.5 Q 145.95 86.55 147.35 87.65 Q 148.8 88.8 148.85 90.5 L 148.85 92.6 L 148.7 92.6 Q 148.25 92.15 147.2 91.8 Q 146.15 91.45 144.9 91.4 L 144.85 91.4 Q 142.65 91.45 141.5 92.45 Q 140.35 93.5 140.35 95.3 Q 140.35 97.5 141.5 98.6 Q 142.6 99.65 144.6 99.65 Q 147.3 99.6 148.8 98.65 L 148.85 98.65 L 148.85 100.45 Q 148.8 102.2 147.3 103.35 Q 145.8 104.55 143.4 104.6 L 143.35 104.6 Q 139.35 104.55 136.9 102.15 Q 134.45 99.8 134.4 95.7 Q 134.35 93.2 135.45 91.15 Z M 117.4 92.85 Q 117.45 90.75 118.55 89.35 Q 119.7 88 121.45 87.25 Q 123.25 86.55 125.25 86.55 Q 125.3 86.55 125.35 86.55 Q 128.2 86.55 129.8 87.65 Q 131.4 88.7 131.45 90.65 L 131.45 92.4 L 131.3 92.4 Q 129.5 91.1 126.05 91 L 126 91 Q 124.35 91.05 123.65 91.4 Q 123 91.8 123.05 92.35 Q 122.95 92.8 123.7 93.1 Q 124.4 93.4 127.05 93.8 Q 129.25 94.15 130.55 95.35 Q 131.85 96.55 131.9 98.7 Q 131.85 101.55 129.85 103.15 Q 127.9 104.75 124.3 104.8 Q 124.25 104.8 124.2 104.8 Q 120.75 104.8 119.3 103.65 Q 117.85 102.5 117.85 100.6 L 117.85 98.9 L 118 98.9 Q 118.85 99.55 120.15 99.95 Q 121.45 100.35 123.25 100.35 Q 123.3 100.35 123.35 100.35 Q 124.95 100.35 125.55 100 Q 126.2 99.65 126.15 99 Q 126.25 98.45 125.5 98.1 Q 124.8 97.75 122.2 97.4 Q 117.5 96.9 117.4 92.85 Z M 108.9 91.65 Q 108.3 91.1 107.05 91.05 L 107 91.05 Q 105.45 91.1 104.7 91.95 Q 104 92.8 103.9 94.1 L 106.2 94.1 Q 108.25 94.05 108.9 93.75 Q 109.6 93.45 109.5 92.9 Q 109.5 92.2 108.9 91.65 Z M 98.15 96.15 Q 98.15 93.5 99.25 91.35 Q 100.35 89.2 102.3 87.95 Q 104.3 86.65 107 86.6 L 107.05 86.6 Q 110.5 86.65 112.7 88.4 Q 114.95 90.2 115.05 93.5 Q 115.1 96.05 113.05 97 Q 111 97.95 106.65 97.9 L 104.05 97.9 Q 104.6 100.45 108.25 100.45 L 108.3 100.45 Q 112.4 100.35 113.75 99.3 L 114 99.3 L 114 100.7 Q 114.05 102.4 112.5 103.6 Q 110.95 104.85 107.3 104.9 Q 107.25 104.9 107.2 104.9 Q 104.25 104.85 102.25 103.7 Q 100.25 102.5 99.2 100.55 Q 98.15 98.55 98.15 96.15 Z M 197.05 91.5 Q 196.3 92.35 196.2 93.65 L 198.55 93.6 Q 200.6 93.6 201.25 93.3 Q 201.9 93 201.85 92.4 Q 201.85 91.75 201.25 91.2 Q 200.65 90.65 199.35 90.6 Q 197.8 90.65 197.05 91.5 Z M 199.3 86.15 Q 199.35 86.15 199.4 86.15 Q 202.8 86.15 205.05 87.95 Q 207.3 89.75 207.4 93.05 Q 207.4 95.6 205.35 96.55 Q 203.3 97.5 198.95 97.45 L 196.4 97.45 Q 196.9 100 200.6 100 Q 200.6 99.95 200.65 100 Q 204.7 99.9 206.1 98.85 L 206.3 98.85 L 206.3 100.25 Q 206.35 101.95 204.85 103.15 Q 203.3 104.35 199.65 104.45 Q 199.6 104.45 199.55 104.45 Q 196.6 104.4 194.6 103.25 Q 192.55 102.05 191.55 100.1 Q 190.5 98.1 190.5 95.7 Q 190.5 93.05 191.6 90.9 Q 192.65 88.75 194.65 87.45 Q 196.65 86.2 199.3 86.15 Z M 181.15 91.85 Q 180.25 90.8 178.45 90.85 L 178.4 90.85 Q 177.15 90.85 176.35 91.95 Q 175.5 93.05 175.5 94.95 Q 175.55 97.65 176.55 98.8 Q 177.55 99.95 179.1 99.9 L 179.15 99.9 Q 180.55 99.85 181.3 98.75 Q 182 97.6 182 95.65 Q 182 92.95 181.15 91.85 Z M 166.55 93.85 L 166.55 96.5 Q 166.65 101.15 164.8 102.9 Q 162.95 104.65 158.3 104.6 L 158.25 104.6 Q 156.55 104.6 154.9 104.05 Q 153.2 103.5 152.1 102.3 Q 150.95 101.1 150.9 99.15 Q 150.9 96.3 153.05 94.85 Q 155.25 93.35 159.95 93.35 L 160.8 93.35 L 160.75 92.6 Q 160.75 91.6 159.95 91.25 Q 159.15 90.85 157.45 90.9 Q 157.4 90.85 157.3 90.9 Q 154.95 90.9 153.75 91.4 Q 152.5 91.95 151.65 92.8 L 151.5 92.8 L 151.5 90.7 Q 151.5 89 153.2 87.75 Q 154.95 86.45 158.65 86.4 L 158.7 86.4 Q 162.3 86.4 164.4 88.2 Q 166.5 90.05 166.55 93.85 Z M 179.1 86.3 L 179.15 86.3 Q 183 86.35 185.45 88.65 Q 187.9 90.95 188 95 Q 187.95 99.45 185.7 101.95 Q 183.45 104.5 179.85 104.55 Q 178.1 104.5 177.05 103.85 Q 176 103.2 175.45 102.2 L 175.45 109.4 L 173.25 109.4 Q 171.5 109.4 170.6 108.4 Q 169.65 107.4 169.65 105.25 L 169.6 96.1 Q 169.6 91.45 172.05 88.9 Q 174.5 86.35 179.1 86.3 Z" transform="translate(-77.35,-53.2)" fill="#2E1B89"/>
		<path d="M 97.4 117 Q 97.1 116.85 96.65 116.75 Q 96.2 116.7 95.8 116.7 Q 94.4 116.8 94.3 117.85 L 94.3 119.1 L 96.75 119.1 L 96.75 120.4 Q 96.75 120.95 96.35 121.3 Q 95.9 121.6 95.2 121.6 L 94.35 121.6 L 94.35 128.65 L 93.2 128.65 Q 90.7 128.7 90.8 126.35 L 90.75 119.05 Q 90.8 116.25 92.15 115.15 Q 93.45 114.1 95.05 114.15 Q 96.4 114.15 96.95 114.7 Q 97.5 115.3 97.5 116.15 L 97.5 117 Z M 109.6 121.25 Q 109.05 121.95 109.05 123.05 Q 109.1 126.05 111.15 125.95 Q 112.05 125.95 112.55 125.25 Q 113.05 124.55 113.05 123.45 Q 113.05 122 112.45 121.25 Q 111.9 120.55 110.95 120.55 Q 110.15 120.55 109.6 121.25 Z M 107 119.25 Q 108.6 117.7 111.15 117.65 Q 113.4 117.65 115 119.15 Q 116.6 120.6 116.7 123.1 Q 116.65 125.7 115.2 127.25 Q 113.7 128.8 110.95 128.85 L 110.9 128.85 Q 108.6 128.8 107 127.35 Q 105.45 125.85 105.4 123.5 Q 105.45 120.8 107 119.25 Z M 103.95 118.1 Q 104.6 118.6 104.6 119.35 L 104.6 120.7 L 104.5 120.7 Q 103.9 120.45 103.25 120.5 L 103.2 120.5 Q 102.5 120.5 102.05 120.9 Q 101.65 121.3 101.6 122.25 L 101.65 128.6 L 100.65 128.6 Q 98.2 128.65 98.1 126.1 L 98.05 121.5 Q 98.05 119.85 99.1 118.75 Q 100.1 117.65 101.9 117.6 L 101.95 117.6 Q 103.3 117.65 103.95 118.1 Z M 160.3 125.75 Q 160.65 125.45 160.65 124.7 L 160.65 123.95 L 159.9 123.95 Q 157.9 123.95 157.95 125 Q 157.9 126 159.4 126 Q 159.9 126.05 160.3 125.75 Z M 125 122.3 Q 125 120.5 123.55 120.55 Q 122.05 120.5 122.15 122.4 L 122.15 128.5 L 120.85 128.5 Q 118.45 128.45 118.5 126.35 L 118.45 122.65 Q 118.45 120.3 119.75 118.95 Q 121.05 117.6 123.6 117.55 Q 124.85 117.6 125.7 118.15 Q 126.6 118.75 126.85 119.4 Q 127.25 118.75 128.15 118.15 Q 129 117.55 130.2 117.5 Q 132.55 117.5 133.8 118.85 Q 135.1 120.15 135.15 122.65 L 135.15 128.4 L 133.9 128.45 Q 133.85 128.4 133.85 128.45 Q 132.45 128.4 131.95 127.85 Q 131.45 127.3 131.5 126.3 L 131.45 122.35 Q 131.45 121.35 131.1 120.95 Q 130.7 120.5 129.95 120.5 L 129.9 120.5 Q 129.15 120.55 128.85 121.05 Q 128.55 121.55 128.55 122.35 L 128.6 128.45 L 127.3 128.45 Q 126.2 128.5 125.6 128 Q 125.05 127.55 125 126.35 Z M 145.55 121 Q 145 121.7 145 122.95 Q 145.05 124.45 145.65 125.15 Q 146.3 125.85 147.3 125.85 Q 149.05 125.8 149.05 123.3 Q 149 121.55 148.4 120.9 Q 147.85 120.25 146.85 120.25 L 146.8 120.25 Q 146.05 120.3 145.55 121 Z M 149.1 114.05 L 150.4 114.05 Q 152.6 114 152.65 116.6 L 152.7 122.75 Q 152.75 125.65 151.4 127.15 Q 150.05 128.65 146.95 128.65 Q 146.9 128.7 146.9 128.65 Q 144.5 128.6 142.95 127.05 Q 141.4 125.45 141.35 123.25 Q 141.4 120.55 142.8 119 Q 144.2 117.45 146.35 117.45 Q 148.45 117.5 149.1 118.85 Z M 164.1 121.95 L 164.1 123.6 Q 164.15 126.45 163.05 127.55 Q 161.9 128.65 159.05 128.6 L 159 128.6 Q 157.4 128.6 156 127.8 Q 154.6 127 154.5 125.25 Q 154.45 123.45 155.8 122.55 Q 157.15 121.65 160.05 121.65 L 160.55 121.65 L 160.55 121.2 Q 160.55 120.6 160.05 120.35 Q 159.55 120.15 158.5 120.15 Q 158.45 120.15 158.4 120.15 Q 156.95 120.15 156.2 120.45 Q 155.45 120.8 154.95 121.3 L 154.85 121.3 L 154.85 120 Q 154.85 119 155.9 118.2 Q 157 117.4 159.25 117.35 L 159.3 117.35 Q 161.5 117.35 162.8 118.5 Q 164.05 119.65 164.1 121.95 Z M 166 122.4 Q 166 120.05 167.4 118.7 Q 168.8 117.35 171.35 117.3 Q 171.4 117.3 171.45 117.3 Q 174.2 117.35 175.45 118.7 Q 176.7 120.05 176.7 122.4 L 176.7 128.2 L 175.15 128.2 Q 173.95 128.25 173.5 127.75 Q 173.05 127.25 173.05 126.05 L 173 122.35 Q 173.1 120.25 171.3 120.3 Q 169.65 120.3 169.65 122.3 L 169.7 128.25 L 168.4 128.25 Q 166.05 128.35 166 126.1 Z M 194.5 121.75 L 195.9 121.75 Q 197.2 121.75 197.6 121.55 Q 198 121.35 197.95 121 Q 197.95 120.6 197.6 120.25 Q 197.2 119.9 196.4 119.9 Q 195.45 119.95 195 120.45 Q 194.55 121 194.5 121.75 Z M 196.4 117.15 L 196.45 117.15 Q 198.55 117.15 199.9 118.25 Q 201.3 119.35 201.35 121.4 Q 201.4 122.95 200.1 123.55 Q 198.85 124.15 196.2 124.1 L 194.6 124.1 Q 194.9 125.7 197.15 125.7 Q 197.2 125.65 197.2 125.7 Q 199.7 125.65 200.55 125 L 200.7 125 L 200.7 125.85 Q 200.75 126.9 199.8 127.65 Q 198.85 128.35 196.6 128.4 Q 196.55 128.45 196.55 128.4 Q 193.8 128.35 192.4 126.85 Q 190.95 125.3 190.95 123.05 Q 191 120.55 192.45 118.9 Q 193.9 117.25 196.4 117.15 Z M 185.55 122.3 Q 185.55 121.15 185.1 120.65 Q 184.7 120.2 183.85 120.2 Q 182.15 120.25 182.1 122.15 Q 182.15 123.35 182.65 123.85 Q 183.1 124.3 183.95 124.3 Q 184.75 124.3 185.15 123.75 Q 185.55 123.2 185.55 122.3 Z M 184.35 117.25 L 184.4 117.25 Q 186.8 117.25 187.95 118.55 Q 189.1 119.8 189.1 122 L 189.15 124.8 Q 189.15 125.15 189.15 125.95 Q 189.2 126.45 189.2 127 Q 189.15 129 187.7 130.3 Q 186.2 131.65 183.65 131.7 L 183.6 131.7 Q 181.4 131.65 180.4 130.85 Q 179.4 130.05 179.45 129 L 179.4 127.85 L 179.55 127.85 Q 180.55 128.8 183.1 128.8 L 183.15 128.8 Q 184.3 128.8 184.9 128.2 Q 185.5 127.65 185.5 126.8 Q 185.5 126.5 185.5 126.2 L 185.5 125.8 Q 185.3 126.35 184.7 126.75 Q 184.15 127.15 183.35 127.15 L 183.3 127.15 Q 181.25 127.2 179.9 126.05 Q 178.55 124.95 178.45 122.5 Q 178.5 120.3 180.05 118.8 Q 181.6 117.3 184.35 117.25 Z M 212.9 123.9 Q 213.75 123.9 214.35 124.5 Q 214.9 125.1 214.95 125.95 Q 214.95 126.85 214.35 127.4 Q 213.75 128 212.9 128.05 Q 212 128 211.4 127.45 Q 210.85 126.85 210.8 125.95 Q 210.85 125.1 211.4 124.5 Q 212 123.95 212.85 123.9 Z M 207 117.1 L 207.05 117.1 Q 208.4 117.1 209.05 117.6 Q 209.7 118.05 209.7 118.8 L 209.7 120.15 L 209.6 120.15 Q 208.95 119.95 208.35 119.95 L 208.3 119.95 Q 207.6 119.95 207.15 120.35 Q 206.7 120.75 206.7 121.7 L 206.75 128.05 L 205.7 128.05 Q 203.25 128.15 203.2 125.55 L 203.15 120.95 Q 203.15 119.3 204.15 118.2 Q 205.15 117.15 207 117.1 Z M 210.8 114.75 L 212.55 114.7 Q 214.35 114.75 214.4 116.65 L 214.2 122.8 L 213 122.8 Q 212.1 122.8 211.6 122.25 Q 211.1 121.75 211.1 120.85 Z" transform="translate(-77.35,-53.2)" fill="#2E1B89"/>
		<path d="M 89.65 63.9 Q 90.3 63.9 90.85 64.2 Q 91.4 64.55 91.7 65.25 L 96.75 78.75 L 94.9 79.45 Q 94.45 79.6 93.95 79.6 Q 93.2 79.6 92.55 79.2 Q 91.95 78.8 91.6 77.95 L 90.1 74 L 85.05 75.9 L 87.45 82.25 L 85.55 82.95 Q 85.1 83.1 84.6 83.1 Q 83.9 83.1 83.25 82.7 Q 82.6 82.3 82.25 81.4 L 77.35 68.3 L 79.55 67.5 Q 79.95 67.35 80.35 67.35 Q 81.05 67.35 81.55 67.7 Q 82.1 68.05 82.35 68.7 L 83.75 72.5 L 88.85 70.6 L 86.7 64.85 L 88.75 64.05 Q 89.15 63.9 89.65 63.9 Z" transform="translate(-77.35,-53.2)" fill="#2E1B89"/>
		<path d="M 103.55 66.7 Q 103.2 66.7 102.85 66.8 Q 101.7 67.1 101.3 67.85 Q 100.9 68.65 101.05 69.6 L 102.75 69.2 Q 104.3 68.8 104.75 68.45 Q 105.2 68.1 105.05 67.7 Q 104.95 67.3 104.55 67 Q 104.2 66.7 103.55 66.7 Z M 107.35 64.25 Q 108.75 65.25 109.25 67.2 Q 109.7 69.1 108.35 70.15 Q 107 71.2 103.75 71.95 L 101.85 72.4 Q 102.45 73.75 104.1 73.75 Q 104.7 73.75 105.45 73.55 Q 108.45 72.8 109.3 71.75 L 109.5 71.7 L 109.7 72.75 Q 110.05 74 109.1 75.2 Q 108.2 76.35 105.5 77.05 Q 104.4 77.3 103.45 77.3 Q 100.95 77.25 99.3 75.85 Q 97.7 74.4 97.15 72.15 Q 96.45 69.15 97.75 66.7 Q 99.05 64.3 102.05 63.5 Q 103.05 63.25 103.95 63.25 Q 105.9 63.25 107.35 64.25 Z" transform="translate(-77.35,-53.2)" fill="#2E1B89"/>
		<path d="M 111.8 57.25 Q 112.25 57.15 112.6 57.15 Q 114.75 57.1 115.2 59.85 L 116.8 69.3 Q 117.05 70.6 118.25 70.55 Q 118.55 70.55 118.95 70.45 L 119.95 70.3 L 120.2 71.85 Q 120.35 73.05 119.55 73.65 Q 118.75 74.25 117.65 74.45 Q 117.15 74.55 116.7 74.5 Q 115.15 74.55 113.95 73.6 Q 112.8 72.7 112.45 70.7 L 110.2 57.5 Z" transform="translate(-77.35,-53.2)" fill="#2E1B89"/>
		<path d="M 127.8 62.8 Q 127.55 62.8 127.3 62.8 Q 126.35 62.95 125.8 63.8 Q 125.25 64.7 125.35 66.15 Q 125.6 68.1 126.35 68.9 Q 127.1 69.7 128.15 69.7 Q 128.3 69.7 128.5 69.65 Q 129.6 69.55 130.05 68.6 Q 130.55 67.7 130.4 66.2 Q 130.2 64.3 129.55 63.55 Q 128.95 62.75 127.8 62.8 Z M 122.25 61.8 Q 123.95 59.7 127.45 59.3 Q 127.9 59.25 128.3 59.25 Q 130.95 59.25 132.75 60.85 Q 134.5 62.4 134.85 65.25 Q 135.15 68.65 133.65 70.75 Q 132.15 72.8 129.4 73.15 Q 129.15 73.15 128.85 73.15 Q 127.8 73.15 127.05 72.75 Q 126.3 72.3 125.85 71.7 L 126.45 77.15 L 124.8 77.35 Q 124.55 77.35 124.3 77.35 Q 122 77.4 121.7 74.45 L 120.95 67.5 Q 120.6 63.95 122.25 61.8 Z" transform="translate(-77.35,-53.2)" fill="#2E1B89"/>
		<path d="M 144.4 54 Q 147.2 53.9 147.3 57.05 L 147.5 66.65 Q 147.55 67.5 148 67.8 Q 148.45 68.15 149.35 68.15 Q 149.4 68.15 149.45 68.15 L 150.5 68.1 L 150.5 69.7 Q 150.5 70.9 149.6 71.4 Q 148.75 71.9 147.6 71.9 Q 147.5 71.9 147.45 71.9 Q 145.65 71.9 144.35 70.8 Q 143.05 69.7 142.95 67.45 L 142.65 54.05 L 144.25 54 Q 144.35 54 144.4 54 Z" transform="translate(-77.35,-53.2)" fill="#2E1B89"/>
		<path d="M 152.3 58.85 L 153.4 58.85 Q 155.35 58.85 156.1 59.55 Q 156.85 60.25 156.8 62.05 L 156.75 66.9 Q 156.7 67.75 157.15 68.1 Q 157.6 68.45 158.55 68.45 L 159.1 68.45 L 159.1 69.8 Q 159.05 70.95 158.3 71.45 Q 157.55 71.9 156.5 71.9 L 156.45 71.9 Q 154.55 71.9 153.35 70.85 Q 152.15 69.8 152.15 67.5 Z M 156.2 53.9 Q 156.85 54.55 156.9 55.5 Q 156.85 56.45 156.15 57.05 Q 155.5 57.7 154.5 57.7 L 154.45 57.7 Q 153.45 57.7 152.8 57.05 Q 152.1 56.4 152.1 55.4 Q 152.15 54.45 152.8 53.85 Q 153.5 53.2 154.5 53.2 L 154.55 53.2 Q 155.55 53.25 156.2 53.9 Z" transform="translate(-77.35,-53.2)" fill="#2E1B89"/>
		<path d="M 165.2 55 Q 165.9 55.75 165.8 57.45 L 165.3 67 Q 165.25 67.85 165.7 68.2 Q 166.2 68.6 167.15 68.6 L 168.15 68.7 L 168.05 70.25 Q 167.95 71.35 167.15 71.8 Q 166.35 72.25 165.3 72.2 Q 165.15 72.2 165 72.2 Q 163.1 72.1 161.85 70.95 Q 160.65 69.75 160.7 67.4 L 161.4 54.05 L 163 54.15 Q 164.5 54.2 165.2 55 Z" transform="translate(-77.35,-53.2)" fill="#2E1B89"/>
		<path d="M 174.85 58.1 Q 174.65 60.1 173.4 61.4 Q 172.15 62.7 170.4 62.75 Q 170.25 62.75 170.1 62.7 L 169.35 62.65 L 169.35 62.45 Q 170 62.15 170.5 61.4 Q 171.05 60.7 171.15 59.95 Q 171.15 59.45 171 59.15 Q 170.8 58.8 170.65 58.6 Q 170.45 58.45 170.2 58 Q 169.9 57.55 169.9 56.9 Q 170.05 55.85 170.65 55.3 Q 171.25 54.75 172.25 54.75 Q 172.4 54.75 172.5 54.75 Q 173.75 54.9 174.35 55.8 Q 174.95 56.65 174.85 58.1 Z" transform="translate(-77.35,-53.2)" fill="#2E1B89"/>
		<path d="M 188.7 57.75 L 190.4 58.05 Q 192.45 58.4 194.2 59.6 Q 195.9 60.85 196.8 62.85 Q 197.7 64.85 197.25 67.65 Q 196.6 71 194.5 73 Q 192.4 74.95 189.35 75 Q 188.6 75 187.85 74.85 L 186.25 74.6 Q 184 74.2 182.7 73.05 Q 181.45 71.85 181.8 69.75 L 183.9 57.7 Q 184.8 57.55 186 57.55 Q 187.55 57.55 188.7 57.75 Z M 188.05 61.45 Q 187.95 61.4 187.9 61.45 L 186.4 69.8 Q 186.3 70.25 186.5 70.6 Q 186.7 70.9 187.15 71 L 187.9 71.15 Q 188.35 71.25 188.75 71.25 Q 190.35 71.2 191.35 70.15 Q 192.35 69.1 192.7 67.2 Q 193.1 64.75 192.2 63.35 Q 191.25 61.95 189.55 61.65 L 188.6 61.45 Q 188.4 61.4 188.05 61.45 Z" transform="translate(-77.35,-53.2)" fill="#2E1B89"/>
		<path d="M 203.8 72.85 Q 202.75 72.85 202.55 73.7 Q 202.15 74.9 203.9 75.4 Q 204.2 75.5 204.45 75.45 Q 205.4 75.55 205.85 74.25 L 206.1 73.3 L 205.2 73.05 Q 204.35 72.8 203.8 72.85 Z M 200.2 77.2 Q 199.1 76.45 198.5 75.35 Q 197.95 74.2 198.3 72.75 Q 199.1 69.8 202.5 69.8 Q 204.05 69.8 206.15 70.4 L 206.8 70.55 L 206.95 70.05 Q 207.15 69.25 206.6 68.8 Q 206.05 68.35 204.75 68 Q 203.35 67.6 202.45 67.65 Q 201.15 67.65 200.2 68.25 L 200.1 68.2 L 200.5 66.65 Q 200.75 65.75 201.65 65.2 Q 202.55 64.6 204.1 64.6 Q 205.2 64.6 206.7 65 Q 209.35 65.75 210.5 67.55 Q 211.65 69.35 210.9 72.15 L 210.35 74.1 Q 209.7 76.65 208.6 77.75 Q 207.55 78.9 205.8 78.9 Q 204.45 78.85 202.6 78.35 Q 201.35 78 200.2 77.2 Z" transform="translate(-77.35,-53.2)" fill="#2E1B89"/>
		<path d="M 220.45 73.7 Q 220 73.55 219.6 73.5 Q 218.35 73.55 217.6 75.2 L 214.65 82 L 213.25 81.35 Q 210.5 80.3 211.55 77.7 L 213.4 73.45 Q 214.2 71.6 215.6 70.65 Q 217 69.65 218.8 69.65 Q 220.35 69.65 222.05 70.4 Q 225.25 71.8 226 73.95 Q 226.75 76.15 225.55 78.85 L 222.7 85.45 L 220.95 84.7 Q 219.55 84.1 219.25 83.35 Q 218.95 82.55 219.55 81.2 L 221.4 76.95 Q 222.55 74.55 220.45 73.7 Z" transform="translate(-77.35,-53.2)" fill="#2E1B89"/>
	</g>
</svg>
