<?xml version="1.0"?>
<!DOCTYPE svg PUBLIC "-//W3C//DTD SVG 1.1//EN" "http://www.w3.org/Graphics/SVG/1.1/DTD/svg11.dtd">
<svg version='1.1' width='174px' height='26px' xmlns='http://www.w3.org/2000/svg' xmlns:xlink='http://www.w3.org/1999/xlink'>
	<g transform="translate(-63.1,-51.75)">
		<path d="M 70.2 52.7 L 70.2 53.5 Q 70.15 53.9 69.8 54.25 Q 69.45 54.6 68.9 54.6 L 67.75 54.6 L 67.75 60.95 L 66.75 60.95 Q 66.2 61 65.85 60.7 Q 65.45 60.45 65.45 59.8 L 65.45 54.6 L 63.1 54.6 L 63.1 53.8 Q 63.1 53.4 63.45 53.05 Q 63.75 52.75 64.4 52.7 Z M 74.8 57.8 Q 74.75 56 73.5 56 Q 73.05 56 72.7 56.45 Q 72.35 56.85 72.35 57.55 Q 72.35 59.4 73.65 59.4 Q 74.2 59.35 74.5 58.95 Q 74.8 58.5 74.8 57.8 Z M 71.1 55.2 Q 72.05 54.2 73.65 54.2 Q 75.05 54.2 76.05 55.15 Q 77.05 56.05 77.1 57.6 Q 77.05 59.25 76.15 60.2 Q 75.2 61.15 73.5 61.15 Q 72.05 61.15 71.05 60.2 Q 70.1 59.3 70.05 57.8 Q 70.1 56.15 71.1 55.2 Z M 123.35 58.25 L 122.9 58.25 Q 121.65 58.25 121.65 58.9 Q 121.65 59.55 122.55 59.55 Q 123.25 59.6 123.35 58.75 Z M 132.7 54.6 Q 133.25 54.2 133.95 54.2 Q 135.4 54.2 136.2 55 Q 137 55.85 137 57.4 L 137 60.95 L 136.2 60.95 Q 135.35 60.95 135.05 60.6 Q 134.7 60.25 134.75 59.65 L 134.75 57.2 Q 134.75 56 133.8 56.05 Q 132.9 56.1 132.95 57.15 L 132.95 60.95 L 132.15 60.95 Q 131.45 61 131.1 60.7 Q 130.75 60.4 130.75 59.65 L 130.75 57.15 Q 130.7 56 129.85 56.05 Q 128.9 56 128.95 57.2 L 128.95 60.95 L 128.15 60.95 Q 126.65 60.95 126.65 59.65 L 126.65 57.35 Q 126.65 55.85 127.45 55.05 Q 128.3 54.2 129.85 54.2 Q 130.65 54.2 131.2 54.55 Q 131.7 54.95 131.9 55.35 Q 132.15 54.95 132.7 54.6 Z M 146.3 61.85 Q 146.55 61.5 146.55 61.1 Q 146.5 60.65 146.25 60.45 Q 146.15 60.4 146 60.2 Q 145.85 59.95 145.85 59.65 Q 145.9 58.5 147.05 58.45 Q 148.3 58.55 148.35 60.05 Q 148.3 61.1 147.7 61.8 Q 147.1 62.5 146.15 62.55 L 145.8 62.55 L 145.8 62.4 Q 146.1 62.25 146.3 61.85 Z M 144.1 59.05 L 144.15 59.05 L 144.15 59.55 Q 144.2 60.2 143.6 60.7 Q 143 61.15 141.6 61.15 Q 139.9 61.15 139 60.15 Q 138.1 59.2 138.1 57.8 Q 138.15 56.25 139.05 55.25 Q 139.95 54.2 141.5 54.15 Q 142.85 54.2 143.7 54.85 Q 144.55 55.55 144.6 56.8 Q 144.6 57.8 143.8 58.15 Q 143 58.5 141.35 58.5 L 140.4 58.5 Q 140.55 59.45 142 59.45 Q 143.55 59.45 144.1 59.05 Z M 142.25 56.9 Q 142.5 56.8 142.5 56.55 Q 142.5 56.3 142.25 56.1 Q 142 55.9 141.5 55.9 Q 140.9 55.9 140.65 56.2 Q 140.35 56.55 140.3 57.05 L 141.2 57.05 Q 142 57.05 142.25 56.9 Z M 155.1 56.35 Q 154.8 56.75 154.8 57.5 Q 154.8 58.55 155.2 58.95 Q 155.55 59.4 156.15 59.4 Q 157.25 59.3 157.3 57.75 Q 157.3 56.75 156.95 56.3 Q 156.6 55.9 155.9 55.9 Q 155.45 55.95 155.1 56.35 Z M 153.5 55.15 Q 154.4 54.2 156.2 54.2 Q 157.65 54.2 158.6 55.1 Q 159.55 56 159.55 57.55 Q 159.55 59.25 158.7 60.2 Q 157.8 61.15 156.45 61.15 Q 155.15 61.1 154.75 60.25 L 154.75 63 L 153.95 63 Q 152.55 63.05 152.55 61.4 L 152.55 57.95 Q 152.55 56.15 153.5 55.15 Z M 81.75 54.8 Q 82.65 54.2 83.8 54.2 Q 86.1 54.25 86.15 55.75 L 86.15 56.45 L 86.1 56.45 Q 85.45 55.9 84.05 55.9 Q 82.85 55.95 82.95 56.4 Q 82.9 56.55 83.2 56.7 Q 83.45 56.8 84.45 56.95 Q 85.3 57.1 85.8 57.55 Q 86.3 58 86.3 58.85 Q 86.3 59.9 85.55 60.55 Q 84.75 61.15 83.4 61.15 Q 82.05 61.15 81.5 60.7 Q 80.95 60.3 80.95 59.55 L 80.95 58.9 L 81 58.9 Q 81.65 59.4 83.05 59.45 Q 84.2 59.45 84.15 58.95 Q 84.15 58.75 83.9 58.6 Q 83.6 58.45 82.6 58.35 Q 80.8 58.1 80.8 56.55 Q 80.85 55.4 81.75 54.8 Z M 96.1 58.75 L 96.1 58.25 L 95.65 58.25 Q 94.4 58.25 94.4 58.9 Q 94.4 59.55 95.3 59.55 Q 96 59.6 96.1 58.75 Z M 93.15 54.7 Q 93.85 54.2 95.25 54.2 Q 96.6 54.2 97.4 54.9 Q 98.25 55.6 98.25 57.05 L 98.25 58.05 Q 98.25 59.85 97.55 60.5 Q 96.85 61.2 95.1 61.15 Q 94.05 61.15 93.2 60.65 Q 92.3 60.15 92.25 59.05 Q 92.2 56.85 95.7 56.85 L 96.05 56.85 L 96.05 56.55 Q 96.05 55.85 94.7 55.9 Q 93.8 55.9 93.35 56.1 Q 92.9 56.3 92.55 56.6 L 92.5 56.6 L 92.5 55.8 Q 92.5 55.2 93.15 54.7 Z M 91.65 54.4 L 91.65 55.2 Q 91.6 55.6 91.25 55.9 Q 90.9 56.15 90.5 56.2 L 89.7 56.2 L 89.7 58.55 Q 89.75 59.25 90.4 59.25 Q 91.15 59.25 91.45 59.15 L 91.5 59.15 L 91.5 60 Q 91.5 60.45 91.1 60.75 Q 90.7 61.05 89.8 61.05 Q 88.95 61.1 88.25 60.55 Q 87.55 60.05 87.5 58.7 L 87.5 54.65 Q 87.55 53.75 88.25 53.2 Q 88.75 52.85 89.45 52.75 L 89.7 52.75 L 89.7 54.4 Z M 101.85 54.15 Q 103.55 54.25 103.55 55.25 L 103.55 56.1 L 103.45 56.1 Q 103.1 55.95 102.65 55.95 Q 101.75 55.9 101.7 57.05 L 101.7 60.95 L 101.05 60.95 Q 99.55 61 99.45 59.4 L 99.45 56.55 Q 99.5 55.55 100.1 54.85 Q 100.75 54.2 101.85 54.15 Z M 106.45 54.4 L 108.35 54.4 L 108.35 55.2 Q 108.35 55.6 108 55.9 Q 107.65 56.15 107.25 56.2 L 106.45 56.2 L 106.45 58.55 Q 106.45 59.25 107.15 59.25 Q 107.9 59.25 108.2 59.15 L 108.25 59.15 L 108.25 60 Q 108.25 60.45 107.85 60.75 Q 107.45 61.05 106.55 61.05 Q 105.7 61.1 104.95 60.55 Q 104.25 60.05 104.2 58.7 L 104.2 54.65 Q 104.3 53.75 105 53.2 Q 105.45 52.85 106.2 52.75 L 106.45 52.75 Z M 120.6 56.1 Q 120.15 56.3 119.8 56.6 L 119.75 56.6 L 119.75 55.8 Q 119.75 55.2 120.4 54.7 Q 121.1 54.2 122.5 54.2 Q 123.85 54.2 124.65 54.9 Q 125.5 55.6 125.5 57.05 L 125.5 58.05 Q 125.5 59.85 124.8 60.5 Q 124.1 61.2 122.35 61.15 Q 121.3 61.15 120.45 60.65 Q 119.55 60.15 119.5 59.05 Q 119.45 56.85 122.95 56.85 L 123.3 56.85 L 123.3 56.55 Q 123.3 55.85 121.95 55.9 Q 121.05 55.9 120.6 56.1 Z M 115.15 58.55 Q 116.15 58.5 116.15 57.35 Q 116.15 55.95 115.1 56 Q 114.05 56.05 114.05 57.25 Q 114.1 58.65 115.15 58.55 Z M 112.75 55.15 Q 113.75 54.2 115.45 54.2 Q 116.95 54.2 117.65 55 Q 118.35 55.8 118.35 57.15 L 118.35 58.9 Q 118.35 59.1 118.4 59.6 Q 118.4 59.9 118.4 60.25 Q 118.4 61.5 117.45 62.3 Q 116.55 63.1 114.95 63.15 Q 113.55 63.15 112.95 62.65 Q 112.35 62.15 112.35 61.5 L 112.35 60.75 L 112.4 60.75 Q 113.05 61.35 114.65 61.35 Q 116.1 61.3 116.1 60.1 Q 116.1 59.95 116.1 59.75 L 116.1 59.5 Q 116 59.85 115.65 60.1 Q 115.25 60.35 114.75 60.35 Q 113.5 60.35 112.65 59.65 Q 111.8 58.95 111.75 57.45 Q 111.8 56.05 112.75 55.15 Z M 205.8 52.1 Q 207.25 52.05 207.25 53.65 L 207.25 58.45 Q 207.25 59.3 208.2 59.2 L 208.7 59.2 L 208.7 60 Q 208.7 60.6 208.25 60.85 Q 207.8 61.05 207.25 61.05 Q 206.3 61.05 205.65 60.5 Q 205 59.95 204.95 58.8 L 204.95 52.1 Z M 219.9 56 Q 219.4 56 219.05 56.45 Q 218.7 56.85 218.7 57.55 Q 218.75 59.4 220 59.4 Q 220.55 59.35 220.9 58.95 Q 221.2 58.5 221.2 57.8 Q 221.15 56 219.9 56 Z M 213.2 60 Q 213.15 60.6 212.7 60.85 Q 212.25 61.05 211.7 61.05 Q 210.75 61.05 210.1 60.5 Q 209.45 59.95 209.45 58.8 L 209.45 52.1 L 210.25 52.1 Q 211.75 52.05 211.7 53.65 L 211.7 58.45 Q 211.7 59.3 212.7 59.2 L 213.2 59.2 Z M 220.05 54.2 Q 221.45 54.2 222.45 55.15 Q 223.4 56.05 223.45 57.6 Q 223.45 59.25 222.55 60.2 Q 221.6 61.15 219.9 61.15 Q 218.45 61.15 217.45 60.2 Q 216.5 59.3 216.45 57.8 Q 216.5 56.15 217.45 55.2 Q 218.45 54.2 220.05 54.2 Z M 228.95 54.4 L 229.8 54.4 Q 231.2 54.35 231.25 55.7 L 231.25 58.05 Q 231.2 59.65 230.3 60.4 Q 229.4 61.15 227.85 61.15 Q 224.6 61.15 224.55 58 L 224.55 54.4 L 225.45 54.4 Q 226.9 54.3 226.9 55.7 L 226.9 58.05 Q 226.9 58.8 227.2 59.05 Q 227.5 59.35 227.95 59.35 Q 228.4 59.35 228.65 59.05 Q 228.95 58.75 228.95 58 Z M 236.7 54.4 L 236.7 55.2 Q 236.7 55.6 236.35 55.9 Q 236 56.15 235.6 56.2 L 234.75 56.2 L 234.75 58.55 Q 234.8 59.25 235.5 59.25 Q 236.25 59.25 236.5 59.15 L 236.6 59.15 L 236.6 60 Q 236.6 60.45 236.2 60.75 Q 235.8 61.05 234.9 61.05 Q 234 61.1 233.3 60.55 Q 232.6 60.05 232.55 58.7 L 232.55 54.65 Q 232.6 53.75 233.35 53.2 Q 233.8 52.85 234.55 52.75 L 234.75 52.75 L 234.75 54.4 Z M 169.1 56.9 Q 169.35 56.8 169.35 56.55 Q 169.35 56.3 169.1 56.1 Q 168.9 55.9 168.4 55.9 Q 167.8 55.9 167.5 56.2 Q 167.25 56.55 167.2 57.05 L 168.05 57.05 Q 168.85 57.05 169.1 56.9 Z M 164.45 59.2 L 164.45 60 Q 164.45 60.6 164 60.85 Q 163.55 61.05 163 61.05 Q 162.05 61.05 161.4 60.5 Q 160.75 59.95 160.75 58.8 L 160.75 52.1 L 161.55 52.1 Q 163 52.05 163 53.65 L 163 58.45 Q 163 59.3 163.95 59.2 Z M 168.4 54.15 Q 169.7 54.2 170.55 54.85 Q 171.4 55.55 171.45 56.8 Q 171.45 57.8 170.7 58.15 Q 169.9 58.5 168.25 58.5 L 167.25 58.5 Q 167.45 59.45 168.85 59.45 Q 170.4 59.45 170.95 59.05 L 171.05 59.05 L 171.05 59.55 Q 171.05 60.2 170.45 60.7 Q 169.85 61.15 168.45 61.15 Q 166.75 61.15 165.9 60.15 Q 165 59.2 165 57.8 Q 165 56.25 165.9 55.25 Q 166.85 54.2 168.4 54.15 Z M 176.2 58.75 L 176.2 58.25 L 175.75 58.25 Q 174.5 58.25 174.55 58.9 Q 174.5 59.55 175.45 59.55 Q 176.1 59.6 176.2 58.75 Z M 173.25 54.7 Q 173.95 54.2 175.35 54.2 Q 176.75 54.2 177.55 54.9 Q 178.35 55.6 178.35 57.05 L 178.35 58.05 Q 178.4 59.85 177.65 60.5 Q 176.95 61.2 175.2 61.15 Q 174.2 61.15 173.3 60.65 Q 172.4 60.15 172.35 59.05 Q 172.3 56.85 175.8 56.85 L 176.15 56.85 L 176.15 56.55 Q 176.15 55.85 174.85 55.9 Q 173.95 55.9 173.45 56.1 Q 173 56.3 172.65 56.6 L 172.6 56.6 L 172.6 55.8 Q 172.6 55.2 173.25 54.7 Z M 190.2 56.55 Q 190.2 56.3 190 56.1 Q 189.75 55.9 189.25 55.9 Q 188.65 55.9 188.35 56.2 Q 188.1 56.55 188.05 57.05 L 188.95 57.05 Q 189.75 57.05 190 56.9 Q 190.25 56.8 190.2 56.55 Z M 184.75 56.45 L 184.7 56.45 Q 184 55.9 182.65 55.9 Q 181.45 55.95 181.5 56.4 Q 181.5 56.55 181.75 56.7 Q 182.05 56.8 183.05 56.95 Q 183.9 57.1 184.4 57.55 Q 184.9 58 184.9 58.85 Q 184.9 59.9 184.1 60.55 Q 183.35 61.15 182 61.15 Q 180.65 61.15 180.1 60.7 Q 179.5 60.3 179.55 59.55 L 179.55 58.9 L 179.6 58.9 Q 180.25 59.4 181.6 59.45 Q 182.8 59.45 182.7 58.95 Q 182.75 58.75 182.45 58.6 Q 182.2 58.45 181.2 58.35 Q 179.4 58.1 179.4 56.55 Q 179.4 55.4 180.3 54.8 Q 181.2 54.2 182.4 54.2 Q 184.65 54.25 184.75 55.75 Z M 189.25 54.15 Q 190.6 54.2 191.45 54.85 Q 192.3 55.55 192.3 56.8 Q 192.35 57.8 191.55 58.15 Q 190.75 58.5 189.1 58.5 L 188.1 58.5 Q 188.3 59.45 189.75 59.45 Q 191.3 59.45 191.8 59.05 L 191.9 59.05 L 191.9 59.55 Q 191.9 60.2 191.35 60.7 Q 190.75 61.15 189.35 61.15 Q 187.6 61.15 186.75 60.15 Q 185.85 59.2 185.85 57.8 Q 185.9 56.25 186.8 55.25 Q 187.7 54.2 189.25 54.15 Z M 200.7 54.6 L 201.25 54.6 Q 202.25 54.55 202.6 54.9 Q 203 55.25 203 56.15 L 203 58.55 Q 202.95 59.4 203.9 59.35 L 204.2 59.35 L 204.2 60 Q 204.15 60.6 203.8 60.85 Q 203.4 61.05 202.85 61.05 Q 201.95 61.1 201.35 60.55 Q 200.75 60.05 200.7 58.9 Z M 198.75 52 Q 199.6 52 199.9 52.35 Q 200.2 52.7 200.15 53.25 L 200.15 53.75 L 200.1 53.75 Q 199.7 53.55 199.2 53.55 Q 198.45 53.65 198.4 54.3 L 198.4 55.05 L 199.95 55.05 L 199.95 55.9 Q 199.85 56.6 198.95 56.6 L 198.4 56.6 L 198.4 60.95 L 197.75 60.95 Q 196.15 61 196.2 59.55 L 196.2 55 Q 196.25 53.4 197 52.7 Q 197.8 51.95 198.75 52 Z M 200.95 52.1 Q 201.3 51.75 201.8 51.75 Q 202.3 51.75 202.65 52.1 Q 202.95 52.4 203 52.9 Q 202.95 53.35 202.65 53.65 Q 202.3 54 201.8 54 Q 201.3 54 200.95 53.7 Q 200.6 53.35 200.6 52.9 Q 200.6 52.4 200.95 52.1 Z" fill="#841B93"/>
		<path d="M 137.95 73.8 Q 138.5 73.75 138.8 73.35 Q 139.15 72.9 139.15 72.2 Q 139.1 70.4 137.85 70.4 Q 137.35 70.4 137 70.85 Q 136.65 71.25 136.65 71.95 Q 136.7 73.8 137.95 73.8 Z M 134.4 72.2 Q 134.4 70.55 135.4 69.6 Q 136.4 68.6 138 68.6 Q 139.35 68.6 140.35 69.55 Q 141.35 70.45 141.4 72 Q 141.4 73.65 140.45 74.6 Q 139.55 75.55 137.8 75.55 Q 136.35 75.55 135.4 74.6 Q 134.45 73.7 134.4 72.2 Z M 130.05 73.95 L 130.05 69.4 Q 130.1 67.65 130.95 67 Q 131.75 66.35 132.75 66.4 Q 133.55 66.4 133.9 66.75 Q 134.25 67.1 134.25 67.65 L 134.25 68.15 L 134.2 68.15 Q 134 68.05 133.7 68 Q 133.45 67.95 133.2 67.95 Q 132.35 68.05 132.3 68.7 L 132.3 69.45 L 133.8 69.45 L 133.8 70.3 Q 133.75 71 132.8 71 L 132.3 71 L 132.3 75.35 L 131.6 75.35 Q 130 75.4 130.05 73.95 Z M 123.85 70.5 Q 123.6 70.3 123.1 70.3 Q 122.5 70.3 122.25 70.6 Q 121.95 70.95 121.9 71.45 L 122.8 71.45 Q 123.6 71.45 123.85 71.3 Q 124.1 71.2 124.05 70.95 Q 124.05 70.7 123.85 70.5 Z M 155.7 73.35 Q 156.05 72.9 156.05 72.2 Q 155.95 70.4 154.75 70.4 Q 154.25 70.4 153.9 70.85 Q 153.55 71.25 153.55 71.95 Q 153.6 73.8 154.85 73.8 Q 155.4 73.75 155.7 73.35 Z M 152.3 69.6 Q 153.3 68.6 154.85 68.6 Q 156.25 68.6 157.25 69.55 Q 158.25 70.45 158.3 72 Q 158.3 73.65 157.35 74.6 Q 156.4 75.55 154.7 75.55 Q 153.25 75.55 152.3 74.6 Q 151.35 73.7 151.3 72.2 Q 151.3 70.55 152.3 69.6 Z M 143.35 66.5 Q 144.85 66.45 144.85 68.05 L 144.85 72.85 Q 144.85 73.7 145.8 73.6 L 146.3 73.6 L 146.3 74.4 Q 146.3 75 145.85 75.25 Q 145.4 75.45 144.8 75.45 Q 143.9 75.45 143.25 74.9 Q 142.6 74.35 142.55 73.2 L 142.55 66.5 Z M 147.05 66.5 L 147.85 66.5 Q 149.3 66.45 149.3 68.05 L 149.3 72.85 Q 149.3 73.7 150.25 73.6 L 150.75 73.6 L 150.75 74.4 Q 150.75 75 150.3 75.25 Q 149.85 75.45 149.3 75.45 Q 148.35 75.45 147.7 74.9 Q 147.05 74.35 147.05 73.2 Z M 119.7 72.2 Q 119.75 70.65 120.65 69.65 Q 121.55 68.6 123.1 68.55 Q 124.45 68.6 125.3 69.25 Q 126.15 69.95 126.2 71.2 Q 126.2 72.2 125.4 72.55 Q 124.6 72.9 122.95 72.9 L 121.95 72.9 Q 122.15 73.85 123.6 73.85 Q 125.15 73.85 125.7 73.45 L 125.75 73.45 L 125.75 73.95 Q 125.8 74.6 125.2 75.1 Q 124.6 75.55 123.2 75.55 Q 121.5 75.55 120.6 74.55 Q 119.7 73.6 119.7 72.2 Z M 111.95 66.5 L 112.7 66.5 Q 114.15 66.5 114.2 67.8 L 114.2 69.5 Q 114.6 68.65 116.1 68.6 Q 117.15 68.6 117.85 69.3 Q 118.6 70.05 118.6 71.4 L 118.6 75.35 L 117.75 75.35 Q 116.85 75.35 116.6 75 Q 116.3 74.6 116.35 74 L 116.35 71.8 Q 116.35 70.4 115.35 70.45 Q 114.7 70.45 114.45 70.8 Q 114.25 71.15 114.25 71.85 L 114.25 75.35 L 113.5 75.35 Q 111.9 75.35 111.95 74 Z M 108.95 67.15 L 109.15 67.15 L 109.15 68.8 L 111.1 68.8 L 111.1 69.6 Q 111.1 70 110.75 70.3 Q 110.4 70.55 110 70.6 L 109.15 70.6 L 109.15 72.95 Q 109.2 73.65 109.9 73.65 Q 110.65 73.65 110.9 73.55 L 111 73.55 L 111 74.4 Q 111 74.85 110.6 75.15 Q 110.2 75.45 109.3 75.45 Q 108.4 75.5 107.7 74.95 Q 107 74.45 106.95 73.1 L 106.95 69.05 Q 107 68.15 107.75 67.6 Q 108.2 67.25 108.95 67.15 Z M 174.4 74.05 L 174.4 71.7 Q 174.45 70.3 175.3 69.45 Q 176.2 68.6 177.75 68.6 Q 179.5 68.6 180.3 69.45 Q 181.05 70.3 181.05 71.8 L 181.05 75.35 L 180.1 75.35 Q 178.7 75.45 178.8 74.05 L 178.8 71.7 Q 178.8 70.4 177.7 70.45 Q 176.7 70.45 176.7 71.7 L 176.7 75.35 L 175.9 75.35 Q 174.45 75.4 174.4 74.05 Z M 170.75 69 Q 171.7 68.95 172.1 69.3 Q 172.5 69.65 172.5 70.55 L 172.5 72.95 Q 172.45 73.8 173.4 73.75 L 173.65 73.75 L 173.65 74.4 Q 173.65 75 173.3 75.25 Q 172.9 75.45 172.35 75.45 Q 171.45 75.5 170.85 74.95 Q 170.2 74.45 170.2 73.3 L 170.2 69 Z M 164.9 69.35 Q 165.25 69.65 165.35 70.05 Q 165.45 70.5 165.7 71.2 Q 165.95 71.9 166.25 72.5 Q 166.5 71.9 166.75 70.9 Q 167.05 69.9 167.2 68.8 L 168.3 68.8 Q 168.8 68.8 169.05 69.05 Q 169.25 69.3 169.25 69.6 Q 169.25 69.85 169.15 70.3 Q 169.05 70.75 168.9 71.1 Q 168.6 72.15 168.05 73.4 Q 167.5 74.65 166.95 75.45 L 166.3 75.45 Q 165.5 75.45 165.3 75 Q 164.95 74.5 164.65 73.75 Q 164.3 72.95 164.1 72.3 Q 163.9 73.05 163.5 74 Q 163.05 74.9 162.65 75.45 L 162.05 75.45 Q 161.3 75.5 161 75 Q 160.3 73.9 159.7 72.2 Q 159.1 70.55 158.85 68.8 L 160.05 68.8 Q 160.6 68.8 160.95 69.1 Q 161.25 69.35 161.3 69.7 Q 161.55 71.1 162.1 72.5 Q 162.85 70.85 163.2 69.05 L 164.1 69.05 Q 164.55 69.05 164.9 69.35 Z M 170.1 67.3 Q 170.1 66.8 170.45 66.5 Q 170.8 66.15 171.3 66.15 Q 171.8 66.15 172.1 66.5 Q 172.45 66.8 172.45 67.3 Q 172.45 67.75 172.1 68.05 Q 171.8 68.4 171.3 68.4 Q 170.75 68.4 170.45 68.1 Q 170.1 67.75 170.1 67.3 Z M 190.6 73.2 Q 190.95 72.8 191.5 72.8 Q 192.05 72.8 192.4 73.2 Q 192.75 73.55 192.75 74.1 Q 192.75 74.65 192.4 75 Q 192.05 75.35 191.5 75.35 Q 190.95 75.35 190.6 75 Q 190.2 74.65 190.2 74.1 Q 190.2 73.55 190.6 73.2 Z M 190.6 69.15 Q 190.95 68.8 191.5 68.8 Q 192.05 68.8 192.4 69.15 Q 192.75 69.5 192.75 70.05 Q 192.75 70.6 192.4 70.95 Q 192.05 71.35 191.5 71.35 Q 190.95 71.35 190.6 70.95 Q 190.2 70.6 190.2 70.05 Q 190.2 69.5 190.6 69.15 Z M 185.55 72.95 Q 186.55 72.9 186.55 71.75 Q 186.55 70.35 185.5 70.4 Q 184.45 70.45 184.45 71.65 Q 184.5 73.05 185.55 72.95 Z M 183.15 69.55 Q 184.15 68.6 185.85 68.6 Q 187.35 68.6 188.05 69.4 Q 188.75 70.2 188.75 71.55 L 188.75 73.3 Q 188.8 73.5 188.8 74 Q 188.8 74.3 188.8 74.65 Q 188.8 75.9 187.85 76.7 Q 186.95 77.5 185.35 77.55 Q 183.95 77.55 183.35 77.05 Q 182.75 76.55 182.75 75.9 L 182.75 75.15 L 182.8 75.15 Q 183.45 75.75 185.05 75.75 Q 186.5 75.7 186.55 74.5 Q 186.5 74.35 186.5 74.15 L 186.5 73.9 Q 186.4 74.25 186.05 74.5 Q 185.7 74.75 185.2 74.75 Q 183.9 74.75 183.05 74.05 Q 182.2 73.35 182.15 71.85 Q 182.2 70.45 183.15 69.55 Z" fill="#841B93"/>
	</g>
</svg>
