<?xml version="1.0"?>
<!DOCTYPE svg PUBLIC "-//W3C//DTD SVG 1.1//EN" "http://www.w3.org/Graphics/SVG/1.1/DTD/svg11.dtd">
<svg version='1.1' width='143px' height='25px' xmlns='http://www.w3.org/2000/svg' xmlns:xlink='http://www.w3.org/1999/xlink'>
	<g transform="translate(66.4,29.0015)">
		<path d="M -10.2 -8.5 Q -10.85 -10.15 -11.1 -11.7 L -9.85 -11.7 Q -9.25 -11.7 -8.9 -11.35 Q -8.55 -11.05 -8.5 -10.7 Q -8.3 -9.85 -7.95 -8.85 Q -7.6 -7.9 -7.35 -7.4 Q -7 -8.05 -6.6 -9.3 Q -6.25 -10.5 -6.05 -11.7 L -4.9 -11.7 Q -3.95 -11.65 -3.95 -10.75 Q -4 -10 -4.25 -9.3 Q -4.65 -8.25 -5.35 -6.85 Q -6.05 -5.45 -6.7 -4.7 L -7.3 -4.7 Q -7.9 -4.7 -8.25 -5 Q -8.6 -5.25 -8.9 -5.7 Q -9.6 -6.85 -10.2 -8.5 Z M -14.75 -6.3 Q -14.05 -6.25 -13.95 -7.15 L -13.95 -7.65 L -14.45 -7.65 Q -15.75 -7.65 -15.7 -6.95 Q -15.75 -6.3 -14.75 -6.3 Z M -14.35 -9.15 L -14 -9.15 L -14 -9.4 Q -14 -10.2 -15.4 -10.1 Q -16.35 -10.1 -16.8 -9.9 Q -17.3 -9.7 -17.65 -9.35 L -17.7 -9.35 L -17.7 -10.2 Q -17.7 -10.85 -17 -11.35 Q -16.3 -11.9 -14.85 -11.9 Q -13.4 -11.9 -12.55 -11.15 Q -11.7 -10.45 -11.7 -8.9 L -11.7 -7.85 Q -11.7 -6 -12.4 -5.3 Q -13.15 -4.6 -15 -4.65 Q -16.05 -4.6 -17 -5.15 Q -17.9 -5.65 -17.95 -6.8 Q -18.05 -9.1 -14.35 -9.15 Z M -7.5 -21.6 Q -7.45 -19.65 -6.15 -19.65 Q -5.55 -19.7 -5.25 -20.15 Q -4.9 -20.6 -4.9 -21.3 Q -4.95 -23.2 -6.25 -23.2 Q -6.75 -23.2 -7.1 -22.75 Q -7.5 -22.3 -7.5 -21.6 Z M -2.55 -21.55 Q -2.55 -19.8 -3.5 -18.8 Q -4.5 -17.85 -6.3 -17.8 Q -7.8 -17.85 -8.8 -18.8 Q -9.8 -19.75 -9.85 -21.3 Q -9.8 -23.05 -8.8 -24.05 Q -7.75 -25.05 -6.1 -25.1 Q -4.65 -25.05 -3.6 -24.1 Q -2.6 -23.15 -2.55 -21.55 Z M -22.9 -10.9 Q -21.9 -9.95 -21.85 -8.35 Q -21.85 -6.6 -22.8 -5.65 Q -23.8 -4.65 -25.6 -4.65 Q -27.1 -4.65 -28.1 -5.6 Q -29.1 -6.55 -29.15 -8.1 Q -29.15 -9.85 -28.1 -10.85 Q -27.05 -11.85 -25.4 -11.9 Q -23.95 -11.85 -22.9 -10.9 Z M -24.55 -6.95 Q -24.2 -7.4 -24.2 -8.1 Q -24.25 -10 -25.55 -10 Q -26.05 -10 -26.4 -9.55 Q -26.8 -9.1 -26.8 -8.4 Q -26.75 -6.45 -25.45 -6.5 Q -24.85 -6.5 -24.55 -6.95 Z M -32.05 -13.4 L -31.8 -13.4 L -31.8 -11.7 L -29.8 -11.7 L -29.8 -10.85 Q -29.85 -10.4 -30.2 -10.15 Q -30.55 -9.85 -30.95 -9.85 L -31.8 -9.85 L -31.8 -7.35 Q -31.8 -6.6 -31.05 -6.6 Q -30.3 -6.6 -30 -6.75 L -29.95 -6.75 L -29.95 -5.8 Q -29.95 -5.35 -30.35 -5.05 Q -30.8 -4.75 -31.7 -4.7 Q -32.6 -4.7 -33.35 -5.25 Q -34.1 -5.75 -34.15 -7.15 L -34.15 -11.45 Q -34.1 -12.4 -33.3 -12.9 Q -32.85 -13.35 -32.05 -13.4 Z M -28.9 -22.75 L -28.95 -22.75 Q -29.65 -23.3 -31.1 -23.3 Q -32.35 -23.25 -32.25 -22.8 Q -32.3 -22.6 -32 -22.5 Q -31.7 -22.35 -30.65 -22.2 Q -29.8 -22.05 -29.3 -21.6 Q -28.75 -21.1 -28.75 -20.2 Q -28.75 -19.1 -29.55 -18.45 Q -30.35 -17.8 -31.8 -17.8 Q -33.2 -17.8 -33.75 -18.3 Q -34.35 -18.75 -34.35 -19.5 L -34.35 -20.2 L -34.3 -20.2 Q -33.6 -19.65 -32.15 -19.6 Q -30.95 -19.6 -31 -20.1 Q -31 -20.35 -31.3 -20.5 Q -31.55 -20.6 -32.6 -20.75 Q -34.5 -21 -34.5 -22.6 Q -34.45 -23.85 -33.5 -24.45 Q -32.6 -25.1 -31.35 -25.1 Q -29 -25.05 -28.9 -23.45 Z M -23.45 -23.1 Q -23.7 -23.3 -24.2 -23.35 Q -24.8 -23.3 -25.1 -23 Q -25.4 -22.65 -25.45 -22.15 L -24.5 -22.15 Q -23.7 -22.15 -23.45 -22.25 Q -23.15 -22.4 -23.2 -22.6 Q -23.2 -22.9 -23.45 -23.1 Z M -21.9 -24.4 Q -21 -23.65 -21 -22.35 Q -21 -21.35 -21.8 -20.95 Q -22.6 -20.6 -24.35 -20.6 L -25.4 -20.6 Q -25.2 -19.55 -23.7 -19.6 Q -22.05 -19.6 -21.5 -20 L -21.45 -20 L -21.45 -19.45 Q -21.4 -18.8 -22.05 -18.3 Q -22.65 -17.85 -24.1 -17.8 Q -25.9 -17.85 -26.8 -18.85 Q -27.75 -19.85 -27.75 -21.3 Q -27.7 -22.9 -26.75 -24 Q -25.8 -25.05 -24.2 -25.1 Q -22.8 -25.1 -21.9 -24.4 Z M -12.7 -24.9 L -11.55 -24.9 Q -10.55 -24.9 -10.55 -24 Q -10.55 -23.4 -10.95 -22.2 Q -11.35 -20.95 -11.95 -19.8 Q -12.9 -18 -13.5 -17.1 Q -14.1 -16.25 -14.6 -16 Q -15.1 -15.7 -15.8 -15.75 Q -16.4 -15.75 -16.8 -16.05 Q -17.2 -16.35 -17.2 -16.95 L -17.2 -17.5 L -16.2 -17.6 Q -15.3 -17.65 -15.05 -18.45 Q -15.55 -19.2 -16.05 -20.35 Q -16.6 -21.5 -17 -22.75 Q -17.4 -23.95 -17.55 -24.9 L -16.3 -24.9 Q -15.85 -24.9 -15.5 -24.65 Q -15.1 -24.4 -15 -23.9 Q -14.8 -23.1 -14.5 -22.2 Q -14.2 -21.3 -13.9 -20.65 Q -13.5 -21.5 -13.15 -22.65 Q -12.8 -23.85 -12.7 -24.9 Z M -43 -11.3 Q -42.1 -11.9 -40.85 -11.9 Q -38.5 -11.85 -38.4 -10.25 L -38.4 -9.55 L -38.45 -9.55 Q -39.15 -10.1 -40.6 -10.15 Q -41.85 -10.1 -41.75 -9.6 Q -41.8 -9.4 -41.5 -9.3 Q -41.2 -9.2 -40.15 -9 Q -39.3 -8.85 -38.75 -8.4 Q -38.25 -7.9 -38.25 -7.05 Q -38.25 -5.9 -39.05 -5.25 Q -39.85 -4.6 -41.3 -4.6 Q -42.7 -4.65 -43.25 -5.1 Q -43.85 -5.55 -43.85 -6.3 L -43.85 -7 L -43.8 -7 Q -43.1 -6.45 -41.65 -6.4 Q -40.45 -6.4 -40.5 -6.95 Q -40.5 -7.15 -40.8 -7.3 Q -41.05 -7.4 -42.1 -7.55 Q -44 -7.8 -44 -9.4 Q -43.95 -10.65 -43 -11.3 Z M -54.45 -9.4 Q -54.45 -9.7 -54.7 -9.9 Q -54.95 -10.15 -55.45 -10.15 Q -56.1 -10.15 -56.4 -9.8 Q -56.65 -9.45 -56.7 -8.95 L -55.8 -8.95 Q -54.95 -8.95 -54.7 -9.05 Q -54.45 -9.2 -54.45 -9.4 Z M -55.45 -11.9 Q -54.1 -11.9 -53.2 -11.2 Q -52.3 -10.45 -52.25 -9.15 Q -52.25 -8.15 -53.05 -7.75 Q -53.9 -7.4 -55.65 -7.4 L -56.65 -7.4 Q -56.45 -6.4 -54.95 -6.4 Q -53.35 -6.4 -52.8 -6.85 L -52.7 -6.85 L -52.7 -6.3 Q -52.7 -5.6 -53.3 -5.1 Q -53.9 -4.65 -55.4 -4.6 Q -57.15 -4.65 -58.1 -5.65 Q -59 -6.65 -59 -8.1 Q -59 -9.75 -58.05 -10.8 Q -57.1 -11.85 -55.45 -11.9 Z M -51.15 -9.55 Q -51.55 -10.75 -51.7 -11.7 L -50.45 -11.7 Q -50 -11.7 -49.6 -11.45 Q -49.25 -11.2 -49.1 -10.75 Q -48.95 -9.9 -48.65 -9 Q -48.35 -8.1 -48.05 -7.45 Q -47.65 -8.3 -47.3 -9.5 Q -46.95 -10.65 -46.85 -11.7 L -45.7 -11.7 Q -44.7 -11.7 -44.7 -10.85 Q -44.7 -10.25 -45.1 -9 Q -45.5 -7.8 -46.1 -6.65 Q -47.05 -4.8 -47.65 -3.95 Q -48.25 -3.05 -48.75 -2.8 Q -49.25 -2.5 -49.95 -2.55 Q -50.55 -2.55 -50.95 -2.85 Q -51.35 -3.15 -51.35 -3.75 L -51.35 -4.3 L -50.35 -4.4 Q -49.5 -4.45 -49.15 -5.25 Q -49.7 -6 -50.2 -7.15 Q -50.75 -8.35 -51.15 -9.55 Z M -64.35 -13.65 Q -64 -13.25 -64 -12.7 L -64 -8.75 Q -63.2 -10.1 -62.2 -11.25 Q -62 -11.5 -61.75 -11.6 Q -61.45 -11.7 -60.95 -11.7 L -59.25 -11.7 L -59.25 -11.65 Q -59.65 -11.25 -60.5 -10.25 Q -61.3 -9.3 -61.85 -8.55 Q -61.25 -7.6 -60.55 -6.7 Q -60.2 -6.3 -59.95 -6.15 Q -59.7 -6 -59.3 -5.95 Q -59.45 -4.8 -60.75 -4.75 Q -61.05 -4.75 -61.4 -4.85 Q -61.75 -5 -62 -5.25 Q -63.1 -6.6 -64 -8.1 L -64 -4.8 L -64.95 -4.8 Q -66.35 -4.9 -66.4 -6.2 L -66.4 -14.1 L -65.5 -14.1 Q -64.7 -14.05 -64.35 -13.65 Z M -41.55 -26.25 Q -41.2 -25.9 -41.15 -25 L -41.15 -21.7 Q -41.15 -20.6 -40.75 -20.2 Q -40.4 -19.75 -39.55 -19.75 Q -38.15 -19.75 -38.15 -21.65 L -38.15 -26.65 L -37.1 -26.65 Q -35.8 -26.7 -35.75 -25.05 L -35.75 -21.7 Q -35.75 -20.05 -36.75 -18.95 Q -37.75 -17.85 -39.75 -17.8 Q -41.45 -17.85 -42.5 -18.85 Q -43.5 -19.85 -43.55 -21.65 L -43.55 -26.65 L -42.55 -26.65 Q -41.95 -26.65 -41.55 -26.25 Z M 70.4 -7 L 70.45 -7 Q 71.1 -6.45 72.55 -6.4 Q 73.8 -6.4 73.7 -6.95 Q 73.75 -7.15 73.45 -7.3 Q 73.15 -7.4 72.1 -7.55 Q 70.25 -7.8 70.2 -9.4 Q 70.25 -10.65 71.2 -11.3 Q 72.15 -11.9 73.35 -11.9 Q 75.75 -11.85 75.8 -10.25 L 75.8 -9.55 L 75.75 -9.55 Q 75.05 -10.1 73.65 -10.15 Q 72.4 -10.1 72.45 -9.6 Q 72.45 -9.4 72.7 -9.3 Q 73 -9.2 74.05 -9 Q 74.95 -8.85 75.45 -8.4 Q 76 -7.9 76 -7.05 Q 75.95 -5.9 75.15 -5.25 Q 74.4 -4.6 72.95 -4.6 Q 71.55 -4.65 70.95 -5.1 Q 70.35 -5.55 70.4 -6.3 Z M 61.95 -14.1 Q 63.5 -14.15 63.5 -12.45 L 63.5 -7.45 Q 63.5 -6.6 64.5 -6.65 L 65.05 -6.65 L 65.05 -5.8 Q 65 -5.2 64.55 -4.95 Q 64.05 -4.7 63.45 -4.7 Q 62.5 -4.7 61.8 -5.3 Q 61.15 -5.9 61.1 -7.1 L 61.1 -14.1 Z M 66.6 -14.1 Q 68.15 -14.15 68.15 -12.45 L 68.15 -7.45 Q 68.15 -6.6 69.15 -6.65 L 69.7 -6.65 L 69.7 -5.8 Q 69.65 -5.2 69.2 -4.95 Q 68.75 -4.7 68.15 -4.7 Q 67.15 -4.7 66.5 -5.3 Q 65.8 -5.9 65.8 -7.1 L 65.8 -14.1 Z M 57.6 -7.15 L 57.6 -7.65 L 57.1 -7.65 Q 55.8 -7.65 55.85 -6.95 Q 55.8 -6.3 56.8 -6.3 Q 57.5 -6.25 57.6 -7.15 Z M 57.55 -9.4 Q 57.55 -10.2 56.15 -10.1 Q 55.2 -10.1 54.75 -9.9 Q 54.25 -9.7 53.9 -9.35 L 53.85 -9.35 L 53.85 -10.2 Q 53.85 -10.85 54.55 -11.35 Q 55.25 -11.9 56.7 -11.9 Q 58.15 -11.9 59 -11.15 Q 59.8 -10.45 59.85 -8.9 L 59.85 -7.85 Q 59.85 -6 59.15 -5.3 Q 58.4 -4.6 56.55 -4.65 Q 55.5 -4.6 54.55 -5.15 Q 53.65 -5.65 53.6 -6.8 Q 53.5 -9.1 57.2 -9.15 L 57.55 -9.15 Z M 47.6 -8.25 Q 47.6 -7.25 48 -6.85 Q 48.35 -6.4 48.95 -6.45 Q 50.15 -6.5 50.2 -8.1 Q 50.2 -10.1 48.9 -10.05 Q 47.7 -10 47.6 -8.25 Z M 45.85 -14.1 Q 46.85 -14.1 47.25 -13.75 Q 47.6 -13.4 47.6 -12.6 L 47.6 -10.95 Q 47.9 -11.35 48.25 -11.6 Q 48.65 -11.9 49.35 -11.9 Q 50.8 -11.9 51.7 -10.95 Q 52.55 -10.05 52.6 -8.35 Q 52.55 -6.6 51.5 -5.65 Q 50.5 -4.65 48.8 -4.65 Q 47.05 -4.65 46.15 -5.55 Q 45.3 -6.4 45.3 -7.95 L 45.3 -14.1 Z M 48.45 -24.9 L 49.55 -24.9 Q 50.1 -24.9 50.35 -24.6 Q 50.6 -24.35 50.6 -24.05 Q 50.6 -23.8 50.45 -23.3 Q 50.35 -22.85 50.2 -22.45 Q 49.9 -21.4 49.3 -20.05 Q 48.75 -18.75 48.15 -17.9 L 47.5 -17.9 Q 46.65 -17.95 46.4 -18.4 Q 46.1 -18.9 45.75 -19.7 Q 45.4 -20.5 45.2 -21.2 Q 44.95 -20.4 44.55 -19.45 Q 44.1 -18.5 43.65 -17.9 L 43.05 -17.9 Q 42.3 -17.85 41.95 -18.4 Q 41.25 -19.55 40.6 -21.3 Q 39.95 -23.05 39.7 -24.9 L 40.95 -24.9 Q 41.55 -24.9 41.85 -24.55 Q 42.2 -24.25 42.25 -23.9 Q 42.5 -22.5 43.1 -21 Q 43.85 -22.75 44.25 -24.6 L 45.2 -24.6 Q 45.65 -24.6 46.05 -24.3 Q 46.4 -24 46.5 -23.6 Q 46.6 -23.05 46.85 -22.35 Q 47.15 -21.6 47.4 -21 Q 47.7 -21.65 48 -22.7 Q 48.25 -23.75 48.45 -24.9 Z M 38.8 -9.9 Q 38.6 -10.15 38.05 -10.15 Q 37.45 -10.15 37.15 -9.8 Q 36.85 -9.45 36.8 -8.95 L 37.75 -8.95 Q 38.55 -8.95 38.8 -9.05 Q 39.1 -9.2 39.05 -9.4 Q 39.05 -9.7 38.8 -9.9 Z M 38.05 -11.9 Q 39.45 -11.9 40.35 -11.2 Q 41.25 -10.45 41.25 -9.15 Q 41.3 -8.15 40.45 -7.75 Q 39.65 -7.4 37.9 -7.4 L 36.9 -7.4 Q 37.1 -6.4 38.55 -6.4 Q 40.2 -6.4 40.75 -6.85 L 40.85 -6.85 L 40.85 -6.3 Q 40.85 -5.6 40.25 -5.1 Q 39.6 -4.65 38.15 -4.6 Q 36.35 -4.65 35.45 -5.65 Q 34.5 -6.65 34.5 -8.1 Q 34.55 -9.75 35.5 -10.8 Q 36.45 -11.85 38.05 -11.9 Z M 27.2 -14.1 Q 28.7 -14.1 28.75 -12.7 L 28.75 -10.95 Q 29.2 -11.85 30.75 -11.9 Q 31.85 -11.9 32.6 -11.15 Q 33.35 -10.35 33.35 -8.95 L 33.35 -4.8 L 32.45 -4.8 Q 31.55 -4.85 31.25 -5.2 Q 30.95 -5.6 31 -6.25 L 31 -8.55 Q 31 -10 29.95 -10 Q 29.3 -10 29.05 -9.6 Q 28.8 -9.25 28.8 -8.5 L 28.8 -4.8 L 28 -4.8 Q 26.35 -4.8 26.45 -6.25 L 26.45 -14.1 Z M 22 -12.9 Q 22.5 -13.35 23.25 -13.4 L 23.5 -13.4 L 23.5 -11.7 L 25.55 -11.7 L 25.55 -10.85 Q 25.5 -10.4 25.15 -10.15 Q 24.8 -9.85 24.35 -9.85 L 23.5 -9.85 L 23.5 -7.35 Q 23.55 -6.6 24.25 -6.6 Q 25.05 -6.6 25.35 -6.75 L 25.4 -6.75 L 25.4 -5.8 Q 25.4 -5.35 25 -5.05 Q 24.55 -4.75 23.65 -4.7 Q 22.7 -4.7 21.95 -5.25 Q 21.25 -5.75 21.2 -7.15 L 21.2 -11.45 Q 21.25 -12.4 22 -12.9 Z M 26.35 -24 L 26.35 -23.1 L 26.3 -23.1 Q 25.85 -23.25 25.45 -23.25 Q 24.5 -23.3 24.4 -22.15 L 24.4 -18 L 23.75 -18 Q 22.15 -17.95 22.1 -19.65 L 22.1 -22.65 Q 22.1 -23.7 22.75 -24.4 Q 23.4 -25.1 24.6 -25.1 Q 26.4 -25.05 26.35 -24 Z M 31.3 -23.1 L 31.25 -23.1 Q 30.85 -23.25 30.4 -23.25 Q 29.45 -23.3 29.35 -22.15 L 29.35 -18 L 28.7 -18 Q 27.15 -17.95 27.05 -19.65 L 27.05 -22.65 Q 27.1 -23.7 27.75 -24.4 Q 28.4 -25.1 29.55 -25.1 Q 31.35 -25.05 31.3 -24 Z M 39.15 -21.55 Q 39.1 -19.8 38.15 -18.8 Q 37.2 -17.85 35.4 -17.8 Q 33.85 -17.85 32.85 -18.8 Q 31.85 -19.75 31.8 -21.3 Q 31.85 -23.05 32.85 -24.05 Q 33.9 -25.05 35.55 -25.1 Q 37 -25.05 38.05 -24.1 Q 39.1 -23.15 39.15 -21.55 Z M 35.55 -19.65 Q 36.1 -19.7 36.45 -20.15 Q 36.8 -20.6 36.8 -21.3 Q 36.7 -23.2 35.4 -23.2 Q 34.9 -23.2 34.55 -22.75 Q 34.2 -22.3 34.15 -21.6 Q 34.2 -19.65 35.55 -19.65 Z M 14.2 -9.65 Q 13.8 -10.1 13.15 -10.05 Q 12.65 -10.05 12.3 -9.6 Q 11.95 -9.15 11.95 -8.35 Q 11.95 -7.35 12.4 -6.9 Q 12.8 -6.45 13.45 -6.45 Q 14.55 -6.45 14.6 -8.1 Q 14.55 -9.25 14.2 -9.65 Z M 0.45 -11.9 Q 1.9 -11.85 2.9 -10.9 Q 3.95 -9.95 4 -8.35 Q 4 -6.6 3 -5.65 Q 2.05 -4.65 0.25 -4.65 Q -1.25 -4.65 -2.25 -5.6 Q -3.25 -6.55 -3.3 -8.1 Q -3.3 -9.85 -2.25 -10.85 Q -1.2 -11.85 0.45 -11.9 Z M 0.4 -6.5 Q 1 -6.5 1.3 -6.95 Q 1.65 -7.4 1.65 -8.1 Q 1.6 -10 0.3 -10 Q -0.2 -10 -0.6 -9.55 Q -0.95 -9.1 -0.95 -8.4 Q -0.9 -6.45 0.4 -6.5 Z M 5.95 -11.5 Q 6.95 -11.5 7.35 -11.15 Q 7.75 -10.8 7.7 -9.85 L 7.7 -7.3 Q 7.7 -6.45 8.7 -6.5 L 8.95 -6.5 L 8.95 -5.8 Q 8.95 -5.2 8.55 -4.95 Q 8.15 -4.7 7.6 -4.7 Q 6.65 -4.7 6 -5.25 Q 5.35 -5.75 5.35 -6.95 L 5.35 -11.5 Z M 5.6 -14.1 Q 5.95 -14.45 6.45 -14.45 Q 7 -14.45 7.35 -14.1 Q 7.7 -13.75 7.7 -13.25 Q 7.7 -12.75 7.35 -12.45 Q 7 -12.1 6.45 -12.1 Q 5.95 -12.1 5.6 -12.45 Q 5.25 -12.75 5.2 -13.25 Q 5.25 -13.75 5.6 -14.1 Z M 15.5 -14.1 Q 16.9 -14.15 16.95 -12.4 L 16.95 -8.4 Q 16.95 -6.55 16.1 -5.6 Q 15.25 -4.6 13.2 -4.6 Q 11.65 -4.65 10.65 -5.7 Q 9.65 -6.7 9.6 -8.15 Q 9.6 -9.9 10.55 -10.9 Q 11.45 -11.9 12.85 -11.9 Q 14.2 -11.85 14.65 -11 L 14.65 -14.1 Z M 11.2 -24 L 11.2 -23.1 L 11.1 -23.1 Q 10.7 -23.25 10.3 -23.25 Q 9.35 -23.3 9.25 -22.15 L 9.25 -18 L 8.6 -18 Q 7 -17.95 6.95 -19.65 L 6.95 -22.65 Q 6.95 -23.7 7.6 -24.4 Q 8.25 -25.1 9.45 -25.1 Q 11.2 -25.05 11.2 -24 Z M 17.75 -19.5 Q 18.5 -19.45 18.55 -20.3 L 18.55 -20.85 L 18.1 -20.85 Q 16.8 -20.85 16.85 -20.15 Q 16.8 -19.5 17.75 -19.5 Z M 18.5 -22.3 L 18.5 -22.6 Q 18.55 -23.4 17.15 -23.3 Q 16.2 -23.3 15.7 -23.1 Q 15.25 -22.9 14.9 -22.55 L 14.85 -22.55 L 14.85 -23.4 Q 14.8 -24.05 15.5 -24.55 Q 16.2 -25.05 17.7 -25.1 Q 19.15 -25.1 19.95 -24.35 Q 20.8 -23.6 20.85 -22.1 L 20.85 -21.05 Q 20.85 -19.2 20.1 -18.5 Q 19.35 -17.8 17.5 -17.8 Q 16.45 -17.8 15.55 -18.35 Q 14.65 -18.85 14.6 -20 Q 14.5 -22.3 18.2 -22.3 Z M 3.2 -24.9 L 4.1 -24.9 Q 5.55 -24.95 5.6 -23.5 L 5.6 -21.05 Q 5.55 -19.4 4.6 -18.6 Q 3.65 -17.8 2.05 -17.8 Q -1.35 -17.8 -1.4 -21.1 L -1.4 -24.9 L -0.45 -24.9 Q 1.05 -25 1.05 -23.5 L 1.05 -21.05 Q 1.05 -20.3 1.35 -20 Q 1.65 -19.7 2.15 -19.7 Q 2.6 -19.7 2.9 -20 Q 3.15 -20.35 3.2 -21.15 Z" transform="translate(0,-2.35)" fill="#0C6F8E"/>
	</g>
</svg>
