<?xml version="1.0"?>
<!DOCTYPE svg PUBLIC "-//W3C//DTD SVG 1.1//EN" "http://www.w3.org/Graphics/SVG/1.1/DTD/svg11.dtd">
<svg version='1.1' width='211px' height='82px' xmlns='http://www.w3.org/2000/svg' xmlns:xlink='http://www.w3.org/1999/xlink'>
	<g transform="translate(105.226,40.9972)">
		<path d="M 14.45 -31.15 Q 19.35 -29.35 23 -26.15 Q 26.85 -27.15 31.1 -27.2 Q 38 -27.1 43.7 -24.55 Q 49.4 -21.95 53 -17.55 Q 55.6 -18 58.4 -18 Q 65.75 -17.95 71.7 -15.05 Q 77.6 -12.2 81.1 -7.3 Q 84.6 -2.45 84.7 3.6 Q 84.65 9.6 81.1 14.5 Q 77.6 19.35 71.7 22.25 Q 65.75 25.1 58.4 25.2 Q 50.8 25.1 44.75 22.05 Q 44.8 22.35 44.8 22.7 Q 44.7 25.55 41.35 27.85 Q 38 30.15 32.3 31.55 Q 26.6 32.9 19.55 32.95 Q 14.25 32.9 9.7 32.1 Q 5.1 31.3 1.65 29.9 Q -1.8 28.5 -3.75 26.65 Q -6.85 28.3 -10.45 29.2 Q -14.05 30.1 -18.05 30.1 Q -24.8 30.05 -30.35 27.6 Q -35.95 25.15 -39.55 20.9 Q -43.2 23.95 -48 25.65 Q -52.8 27.4 -58.4 27.4 Q -65.75 27.35 -71.65 24.45 Q -77.6 21.6 -81.1 16.7 Q -84.6 11.85 -84.7 5.8 Q -84.6 -0.2 -81.1 -5.05 Q -77.6 -9.95 -71.65 -12.8 Q -65.75 -15.7 -58.4 -15.75 Q -54.85 -15.75 -51.6 -15.05 Q -49.55 -18.95 -45.95 -21.95 Q -42.35 -24.9 -37.6 -26.6 Q -32.8 -28.25 -27.3 -28.3 Q -20.95 -28.25 -15.6 -26.05 Q -11.95 -29.3 -7 -31.1 Q -2 -32.95 3.75 -33 Q 9.5 -32.95 14.45 -31.15 Z" transform="scale(1.24234,1.24234)" fill="#FFFFFF" fill-opacity="0.458824"/>
	</g>
</svg>
