<?xml version="1.0"?>
<!DOCTYPE svg PUBLIC "-//W3C//DTD SVG 1.1//EN" "http://www.w3.org/Graphics/SVG/1.1/DTD/svg11.dtd">
<svg version='1.1' width='35px' height='9px' xmlns='http://www.w3.org/2000/svg' xmlns:xlink='http://www.w3.org/1999/xlink'>
	<g transform="translate(-162.6,-129.05)">
		<path d="M 187.05 135.95 Q 187.1 135.8 187.1 135.6 L 187.1 134.6 Q 187.05 134.6 186.95 134.6 Q 186.1 134.6 185.4 134.85 Q 184.7 135.1 184.65 135.9 Q 184.65 136.45 184.95 136.65 Q 185.25 136.9 185.65 136.9 Q 186.2 136.9 186.6 136.6 Q 186.95 136.35 187.05 135.95 Z M 185.8 132.4 L 185.75 132.4 Q 184.9 132.4 184.25 132.85 L 184 132.15 Q 184.75 131.65 185.95 131.65 Q 187.25 131.65 187.7 132.4 Q 188.2 133.1 188.15 134 L 188.15 136.15 Q 188.15 136.95 188.25 137.55 L 187.3 137.55 L 187.2 136.85 L 187.15 136.85 Q 186.65 137.6 185.4 137.7 Q 184.5 137.65 184.05 137.2 Q 183.6 136.7 183.6 136.05 Q 183.65 133.9 187.05 133.85 Q 187.05 133.9 187.1 133.85 L 187.1 133.75 Q 187.1 133.35 186.9 132.9 Q 186.65 132.45 185.8 132.4 Z M 189.85 129.05 L 190.9 129.05 L 190.9 137.55 L 189.85 137.55 Z M 194.9 132.35 Q 194.1 132.4 193.7 132.95 Q 193.3 133.5 193.25 134.1 L 196.35 134.1 Q 196.35 133.55 196.05 133 Q 195.75 132.4 194.9 132.35 Z M 194.95 131.6 Q 196.35 131.7 196.85 132.6 Q 197.4 133.5 197.35 134.35 Q 197.35 134.7 197.3 134.85 L 193.25 134.85 Q 193.3 135.9 193.85 136.4 Q 194.4 136.85 195.25 136.85 Q 196.3 136.85 196.85 136.55 L 197.05 137.3 Q 196.45 137.6 195.1 137.7 Q 193.75 137.65 193 136.85 Q 192.25 136.1 192.25 134.75 Q 192.25 133.4 192.95 132.5 Q 193.7 131.65 194.95 131.6 Z M 171.7 134.1 Q 171.75 133.55 171.45 133 Q 171.1 132.4 170.25 132.35 Q 169.45 132.4 169.1 132.95 Q 168.7 133.5 168.65 134.1 Z M 162.6 129.5 L 166.95 129.5 L 166.95 130.35 L 163.65 130.35 L 163.65 133.05 L 166.7 133.05 L 166.7 133.9 L 163.65 133.9 L 163.65 137.55 L 162.6 137.55 Z M 172.75 134.35 Q 172.75 134.7 172.7 134.85 L 168.65 134.85 Q 168.7 135.9 169.25 136.4 Q 169.8 136.85 170.6 136.85 Q 171.7 136.85 172.2 136.55 L 172.4 137.3 Q 171.85 137.6 170.45 137.7 Q 169.15 137.65 168.4 136.85 Q 167.6 136.1 167.6 134.75 Q 167.65 133.4 168.35 132.5 Q 169.05 131.65 170.35 131.6 Q 171.75 131.7 172.25 132.6 Q 172.75 133.5 172.75 134.35 Z M 175.7 131.95 Q 176.1 131.65 176.85 131.65 Q 178.05 131.7 178.45 132.8 L 178.5 132.8 Q 178.8 132.3 179.15 132.05 Q 179.65 131.65 180.45 131.65 Q 181.05 131.6 181.7 132.15 Q 182.3 132.65 182.35 134.15 L 182.35 137.55 L 181.3 137.55 L 181.3 134.3 Q 181.3 132.55 180.05 132.5 Q 179.6 132.5 179.25 132.8 Q 178.95 133.05 178.8 133.45 Q 178.7 133.7 178.7 133.95 L 178.7 137.55 L 177.7 137.55 L 177.7 134.1 Q 177.7 133.35 177.35 132.95 Q 177.05 132.5 176.45 132.5 Q 176 132.5 175.65 132.8 Q 175.3 133.15 175.15 133.55 Q 175.05 133.8 175.1 134.05 L 175.1 137.55 L 174.05 137.55 L 174.05 133.35 Q 174.05 132.45 174 131.75 L 174.9 131.75 L 174.95 132.7 L 175 132.7 Q 175.25 132.25 175.7 131.95 Z" fill="#841B93"/>
	</g>
</svg>
