<?xml version="1.0"?>
<!DOCTYPE svg PUBLIC "-//W3C//DTD SVG 1.1//EN" "http://www.w3.org/Graphics/SVG/1.1/DTD/svg11.dtd">
<svg version='1.1' width='35px' height='15px' xmlns='http://www.w3.org/2000/svg' xmlns:xlink='http://www.w3.org/1999/xlink'>
	<g transform="translate(-150.1,-91.75)">
		<path d="M 184.1 92.6 Q 184.65 93.15 184.7 94 L 184.7 104 Q 184.65 104.85 184.1 105.4 Q 183.55 106 182.7 106 L 152.35 106 Q 151.5 106 150.95 105.4 Q 150.35 104.85 150.35 104 L 150.35 94 Q 150.35 93.15 150.95 92.6 Q 151.5 92 152.35 92 L 182.7 92 Q 183.55 92 184.1 92.6 Z" fill="#FFFFFF"/>
		<path d="M 184.3 92.4 Q 184.9 93.05 184.95 94 L 184.95 104 Q 184.9 104.95 184.3 105.6 Q 183.65 106.25 182.7 106.25 L 152.35 106.25 Q 151.4 106.25 150.75 105.6 Q 150.1 104.95 150.1 104 L 150.1 94 Q 150.1 93.05 150.75 92.4 Q 151.4 91.75 152.35 91.75 L 182.7 91.75 Q 183.65 91.75 184.3 92.4 Z M 183.9 92.75 Q 183.45 92.25 182.7 92.25 L 152.35 92.25 Q 151.6 92.25 151.1 92.75 Q 150.6 93.25 150.6 94 L 150.6 104 Q 150.6 104.75 151.1 105.25 Q 151.6 105.75 152.35 105.75 L 182.7 105.75 Q 183.45 105.75 183.9 105.25 Q 184.4 104.75 184.45 104 L 184.45 94 Q 184.4 93.25 183.9 92.75 Z" fill="#841B93"/>
	</g>
</svg>
