<?xml version="1.0"?>
<!DOCTYPE svg PUBLIC "-//W3C//DTD SVG 1.1//EN" "http://www.w3.org/Graphics/SVG/1.1/DTD/svg11.dtd">
<svg version='1.1' width='300px' height='37px' xmlns='http://www.w3.org/2000/svg' xmlns:xlink='http://www.w3.org/1999/xlink'>
	<g transform="translate(1.65,-8.05)">
		<path d="M 274 0 Q 277.4 0.1 279.65 2.35 Q 281.9 4.6 282 8 Q 281.9 11.4 279.65 13.65 Q 277.4 15.9 274 16 Q 272.05 16 270.4 15.15 Q 268.75 14.3 267.65 12.9 Q 266.55 14.3 264.9 15.15 Q 263.3 16 261.35 16 Q 259.35 16 257.75 15.15 Q 256.1 14.3 255 12.9 Q 253.9 14.3 252.25 15.15 Q 250.6 16 248.65 16 Q 246.7 16 245.1 15.15 Q 243.45 14.3 242.35 12.9 Q 241.2 14.3 239.6 15.15 Q 237.95 16 236 16 Q 234.05 16 232.4 15.15 Q 230.75 14.3 229.65 12.9 Q 228.55 14.3 226.9 15.15 Q 225.3 16 223.35 16 Q 221.4 16 219.75 15.15 Q 218.1 14.3 217 12.9 Q 215.9 14.3 214.25 15.15 Q 212.6 16 210.65 16 Q 208.7 16 207.1 15.15 Q 205.45 14.3 204.35 12.9 Q 203.2 14.3 201.6 15.15 Q 199.95 16 198 16 Q 196.05 16 194.4 15.15 Q 192.75 14.3 191.65 12.9 Q 190.55 14.3 188.9 15.15 Q 187.3 16 185.35 16 Q 183.4 16 181.75 15.15 Q 180.1 14.3 179 12.9 Q 177.9 14.3 176.25 15.15 Q 174.6 16 172.65 16 Q 170.7 16 169.1 15.15 Q 167.45 14.3 166.35 12.9 Q 165.2 14.3 163.6 15.15 Q 161.95 16 160 16 Q 158.05 16 156.4 15.15 Q 154.75 14.3 153.65 12.9 Q 152.55 14.3 150.9 15.15 Q 149.3 16 147.35 16 Q 145.4 16 143.75 15.15 Q 142.1 14.3 141 12.9 Q 139.9 14.3 138.25 15.15 Q 136.6 16 134.65 16 Q 132.7 16 131.1 15.15 Q 129.45 14.3 128.35 12.9 Q 127.2 14.3 125.6 15.15 Q 123.95 16 122 16 Q 120.05 16 118.4 15.15 Q 116.75 14.3 115.65 12.9 Q 114.55 14.3 112.9 15.15 Q 111.3 16 109.35 16 Q 107.4 16 105.75 15.15 Q 104.1 14.3 103 12.9 Q 101.9 14.3 100.25 15.15 Q 98.6 16 96.65 16 Q 94.7 16 93.1 15.15 Q 91.45 14.3 90.35 12.9 Q 89.2 14.3 87.6 15.15 Q 85.95 16 84 16 Q 82.05 16 80.4 15.15 Q 78.8 14.3 77.65 12.9 Q 76.55 14.3 74.9 15.15 Q 73.3 16 71.35 16 Q 69.4 16 67.75 15.15 Q 66.1 14.3 65 12.9 Q 63.9 14.3 62.25 15.15 Q 60.6 16 58.65 16 Q 56.7 16 55.1 15.15 Q 53.45 14.3 52.35 12.9 Q 51.2 14.3 49.6 15.15 Q 47.95 16 46 16 Q 44.05 16 42.4 15.15 Q 40.8 14.3 39.65 12.9 Q 38.55 14.3 36.9 15.15 Q 35.3 16 33.35 16 Q 31.4 16 29.75 15.15 Q 28.1 14.3 27 12.9 Q 25.9 14.3 24.25 15.15 Q 22.6 16 20.65 16 Q 18.7 16 17.1 15.15 Q 15.45 14.3 14.35 12.9 Q 13.2 14.3 11.6 15.15 Q 9.95 16 8 16 Q 4.6 15.9 2.35 13.65 Q 0.1 11.4 0 8 Q 0.1 4.6 2.35 2.35 Q 4.6 0.1 8 0 Q 9.95 0 11.6 0.85 Q 13.2 1.7 14.35 3.15 Q 15.45 1.7 17.1 0.85 Q 18.7 0 20.65 0 Q 22.6 0 24.25 0.85 Q 25.9 1.7 27 3.15 Q 28.1 1.7 29.75 0.85 Q 31.4 0 33.35 0 Q 35.3 0 36.9 0.85 Q 38.55 1.7 39.65 3.15 Q 40.8 1.7 42.4 0.85 Q 44.05 0 46 0 Q 47.95 0 49.6 0.85 Q 51.2 1.7 52.35 3.15 Q 53.45 1.7 55.1 0.85 Q 56.7 0 58.65 0 Q 60.6 0 62.25 0.85 Q 63.9 1.7 65 3.15 Q 66.1 1.7 67.75 0.85 Q 69.4 0 71.35 0 Q 73.3 0 74.9 0.85 Q 76.55 1.7 77.65 3.15 Q 78.8 1.7 80.4 0.85 Q 82.05 0 84 0 Q 85.95 0 87.6 0.85 Q 89.2 1.7 90.35 3.15 Q 91.45 1.7 93.1 0.85 Q 94.7 0 96.65 0 Q 98.6 0 100.25 0.85 Q 101.9 1.7 103 3.15 Q 104.1 1.7 105.75 0.85 Q 107.4 0 109.35 0 Q 111.3 0 112.9 0.85 Q 114.55 1.7 115.65 3.15 Q 116.8 1.7 118.4 0.85 Q 120.05 0 122 0 Q 123.95 0 125.6 0.85 Q 127.2 1.7 128.35 3.15 Q 129.45 1.7 131.1 0.85 Q 132.7 0 134.65 0 Q 136.6 0 138.25 0.85 Q 139.9 1.7 141 3.15 Q 142.1 1.7 143.75 0.85 Q 145.4 0 147.35 0 Q 149.3 0 150.9 0.85 Q 152.55 1.7 153.65 3.15 Q 154.8 1.7 156.4 0.85 Q 158.05 0 160 0 Q 161.95 0 163.6 0.85 Q 165.2 1.7 166.35 3.15 Q 167.45 1.7 169.1 0.85 Q 170.7 0 172.65 0 Q 174.6 0 176.25 0.85 Q 177.9 1.7 179 3.15 Q 180.1 1.7 181.75 0.85 Q 183.4 0 185.35 0 Q 187.3 0 188.9 0.85 Q 190.55 1.7 191.65 3.15 Q 192.8 1.7 194.4 0.85 Q 196.05 0 198 0 Q 199.95 0 201.6 0.85 Q 203.2 1.7 204.35 3.15 Q 205.45 1.7 207.05 0.85 Q 208.7 0 210.65 0 Q 212.6 0 214.25 0.85 Q 215.9 1.7 217 3.15 Q 218.1 1.7 219.75 0.85 Q 221.4 0 223.35 0 Q 225.3 0 226.9 0.85 Q 228.55 1.7 229.65 3.15 Q 230.75 1.7 232.4 0.85 Q 234.05 0 236 0 Q 237.95 0 239.6 0.85 Q 241.2 1.7 242.35 3.15 Q 243.45 1.7 245.05 0.85 Q 246.7 0 248.65 0 Q 250.6 0 252.25 0.85 Q 253.9 1.7 255 3.15 Q 256.1 1.7 257.75 0.85 Q 259.4 0 261.35 0 Q 263.3 0 264.9 0.85 Q 266.55 1.7 267.65 3.15 Q 268.75 1.7 270.4 0.85 Q 272.05 0 274 0 Z" transform="translate(-1.65,26.3)" fill="#7DD6F9"/>
		<path d="M 274 0 Q 277.4 0.1 279.65 2.35 Q 281.9 4.6 282 8 Q 281.9 11.4 279.65 13.65 Q 277.4 15.9 274 16 Q 272.05 16 270.4 15.15 Q 268.75 14.3 267.65 12.9 Q 266.55 14.3 264.9 15.15 Q 263.3 16 261.35 16 Q 259.35 16 257.75 15.15 Q 256.1 14.3 255 12.9 Q 253.9 14.3 252.25 15.15 Q 250.6 16 248.65 16 Q 246.7 16 245.1 15.15 Q 243.45 14.3 242.35 12.9 Q 241.2 14.3 239.6 15.15 Q 237.95 16 236 16 Q 234.05 16 232.4 15.15 Q 230.75 14.3 229.65 12.9 Q 228.55 14.3 226.9 15.15 Q 225.3 16 223.35 16 Q 221.4 16 219.75 15.15 Q 218.1 14.3 217 12.9 Q 215.9 14.3 214.25 15.15 Q 212.6 16 210.65 16 Q 208.7 16 207.1 15.15 Q 205.45 14.3 204.35 12.9 Q 203.2 14.3 201.6 15.15 Q 199.95 16 198 16 Q 196.05 16 194.4 15.15 Q 192.75 14.3 191.65 12.9 Q 190.55 14.3 188.9 15.15 Q 187.3 16 185.35 16 Q 183.4 16 181.75 15.15 Q 180.1 14.3 179 12.9 Q 177.9 14.3 176.25 15.15 Q 174.6 16 172.65 16 Q 170.7 16 169.1 15.15 Q 167.45 14.3 166.35 12.9 Q 165.2 14.3 163.6 15.15 Q 161.95 16 160 16 Q 158.05 16 156.4 15.15 Q 154.75 14.3 153.65 12.9 Q 152.55 14.3 150.9 15.15 Q 149.3 16 147.35 16 Q 145.4 16 143.75 15.15 Q 142.1 14.3 141 12.9 Q 139.9 14.3 138.25 15.15 Q 136.6 16 134.65 16 Q 132.7 16 131.1 15.15 Q 129.45 14.3 128.35 12.9 Q 127.2 14.3 125.6 15.15 Q 123.95 16 122 16 Q 120.05 16 118.4 15.15 Q 116.75 14.3 115.65 12.9 Q 114.55 14.3 112.9 15.15 Q 111.3 16 109.35 16 Q 107.4 16 105.75 15.15 Q 104.1 14.3 103 12.9 Q 101.9 14.3 100.25 15.15 Q 98.6 16 96.65 16 Q 94.7 16 93.1 15.15 Q 91.45 14.3 90.35 12.9 Q 89.2 14.3 87.6 15.15 Q 85.95 16 84 16 Q 82.05 16 80.4 15.15 Q 78.8 14.3 77.65 12.9 Q 76.55 14.3 74.9 15.15 Q 73.3 16 71.35 16 Q 69.4 16 67.75 15.15 Q 66.1 14.3 65 12.9 Q 63.9 14.3 62.25 15.15 Q 60.6 16 58.65 16 Q 56.7 16 55.1 15.15 Q 53.45 14.3 52.35 12.9 Q 51.2 14.3 49.6 15.15 Q 47.95 16 46 16 Q 44.05 16 42.4 15.15 Q 40.8 14.3 39.65 12.9 Q 38.55 14.3 36.9 15.15 Q 35.3 16 33.35 16 Q 31.4 16 29.75 15.15 Q 28.1 14.3 27 12.9 Q 25.9 14.3 24.25 15.15 Q 22.6 16 20.65 16 Q 18.7 16 17.1 15.15 Q 15.45 14.3 14.35 12.9 Q 13.2 14.3 11.6 15.15 Q 9.95 16 8 16 Q 4.6 15.9 2.35 13.65 Q 0.1 11.4 0 8 Q 0.1 4.6 2.35 2.35 Q 4.6 0.1 8 0 Q 9.95 0 11.6 0.85 Q 13.2 1.7 14.35 3.15 Q 15.45 1.7 17.1 0.85 Q 18.7 0 20.65 0 Q 22.6 0 24.25 0.85 Q 25.9 1.7 27 3.15 Q 28.1 1.7 29.75 0.85 Q 31.4 0 33.35 0 Q 35.3 0 36.9 0.85 Q 38.55 1.7 39.65 3.15 Q 40.8 1.7 42.4 0.85 Q 44.05 0 46 0 Q 47.95 0 49.6 0.85 Q 51.2 1.7 52.35 3.15 Q 53.45 1.7 55.1 0.85 Q 56.7 0 58.65 0 Q 60.6 0 62.25 0.85 Q 63.9 1.7 65 3.15 Q 66.1 1.7 67.75 0.85 Q 69.4 0 71.35 0 Q 73.3 0 74.9 0.85 Q 76.55 1.7 77.65 3.15 Q 78.8 1.7 80.4 0.85 Q 82.05 0 84 0 Q 85.95 0 87.6 0.85 Q 89.2 1.7 90.35 3.15 Q 91.45 1.7 93.1 0.85 Q 94.7 0 96.65 0 Q 98.6 0 100.25 0.85 Q 101.9 1.7 103 3.15 Q 104.1 1.7 105.75 0.85 Q 107.4 0 109.35 0 Q 111.3 0 112.9 0.85 Q 114.55 1.7 115.65 3.15 Q 116.8 1.7 118.4 0.85 Q 120.05 0 122 0 Q 123.95 0 125.6 0.85 Q 127.2 1.7 128.35 3.15 Q 129.45 1.7 131.1 0.85 Q 132.7 0 134.65 0 Q 136.6 0 138.25 0.85 Q 139.9 1.7 141 3.15 Q 142.1 1.7 143.75 0.85 Q 145.4 0 147.35 0 Q 149.3 0 150.9 0.85 Q 152.55 1.7 153.65 3.15 Q 154.8 1.7 156.4 0.85 Q 158.05 0 160 0 Q 161.95 0 163.6 0.85 Q 165.2 1.7 166.35 3.15 Q 167.45 1.7 169.1 0.85 Q 170.7 0 172.65 0 Q 174.6 0 176.25 0.85 Q 177.9 1.7 179 3.15 Q 180.1 1.7 181.75 0.85 Q 183.4 0 185.35 0 Q 187.3 0 188.9 0.85 Q 190.55 1.7 191.65 3.15 Q 192.8 1.7 194.4 0.85 Q 196.05 0 198 0 Q 199.95 0 201.6 0.85 Q 203.2 1.7 204.35 3.15 Q 205.45 1.7 207.05 0.85 Q 208.7 0 210.65 0 Q 212.6 0 214.25 0.85 Q 215.9 1.7 217 3.15 Q 218.1 1.7 219.75 0.85 Q 221.4 0 223.35 0 Q 225.3 0 226.9 0.85 Q 228.55 1.7 229.65 3.15 Q 230.75 1.7 232.4 0.85 Q 234.05 0 236 0 Q 237.95 0 239.6 0.85 Q 241.2 1.7 242.35 3.15 Q 243.45 1.7 245.05 0.85 Q 246.7 0 248.65 0 Q 250.6 0 252.25 0.85 Q 253.9 1.7 255 3.15 Q 256.1 1.7 257.75 0.85 Q 259.4 0 261.35 0 Q 263.3 0 264.9 0.85 Q 266.55 1.7 267.65 3.15 Q 268.75 1.7 270.4 0.85 Q 272.05 0 274 0 Z" transform="translate(16.3,28.95)" fill="#7DD6F9"/>
		<path d="M 274 0 Q 277.4 0.1 279.65 2.35 Q 281.9 4.6 282 8 Q 281.9 11.4 279.65 13.65 Q 277.4 15.9 274 16 Q 272.05 16 270.4 15.15 Q 268.75 14.3 267.65 12.9 Q 266.55 14.3 264.9 15.15 Q 263.3 16 261.35 16 Q 259.35 16 257.75 15.15 Q 256.1 14.3 255 12.9 Q 253.9 14.3 252.25 15.15 Q 250.6 16 248.65 16 Q 246.7 16 245.1 15.15 Q 243.45 14.3 242.35 12.9 Q 241.2 14.3 239.6 15.15 Q 237.95 16 236 16 Q 234.05 16 232.4 15.15 Q 230.75 14.3 229.65 12.9 Q 228.55 14.3 226.9 15.15 Q 225.3 16 223.35 16 Q 221.4 16 219.75 15.15 Q 218.1 14.3 217 12.9 Q 215.9 14.3 214.25 15.15 Q 212.6 16 210.65 16 Q 208.7 16 207.1 15.15 Q 205.45 14.3 204.35 12.9 Q 203.2 14.3 201.6 15.15 Q 199.95 16 198 16 Q 196.05 16 194.4 15.15 Q 192.75 14.3 191.65 12.9 Q 190.55 14.3 188.9 15.15 Q 187.3 16 185.35 16 Q 183.4 16 181.75 15.15 Q 180.1 14.3 179 12.9 Q 177.9 14.3 176.25 15.15 Q 174.6 16 172.65 16 Q 170.7 16 169.1 15.15 Q 167.45 14.3 166.35 12.9 Q 165.2 14.3 163.6 15.15 Q 161.95 16 160 16 Q 158.05 16 156.4 15.15 Q 154.75 14.3 153.65 12.9 Q 152.55 14.3 150.9 15.15 Q 149.3 16 147.35 16 Q 145.4 16 143.75 15.15 Q 142.1 14.3 141 12.9 Q 139.9 14.3 138.25 15.15 Q 136.6 16 134.65 16 Q 132.7 16 131.1 15.15 Q 129.45 14.3 128.35 12.9 Q 127.2 14.3 125.6 15.15 Q 123.95 16 122 16 Q 120.05 16 118.4 15.15 Q 116.75 14.3 115.65 12.9 Q 114.55 14.3 112.9 15.15 Q 111.3 16 109.35 16 Q 107.4 16 105.75 15.15 Q 104.1 14.3 103 12.9 Q 101.9 14.3 100.25 15.15 Q 98.6 16 96.65 16 Q 94.7 16 93.1 15.15 Q 91.45 14.3 90.35 12.9 Q 89.2 14.3 87.6 15.15 Q 85.95 16 84 16 Q 82.05 16 80.4 15.15 Q 78.8 14.3 77.65 12.9 Q 76.55 14.3 74.9 15.15 Q 73.3 16 71.35 16 Q 69.4 16 67.75 15.15 Q 66.1 14.3 65 12.9 Q 63.9 14.3 62.25 15.15 Q 60.6 16 58.65 16 Q 56.7 16 55.1 15.15 Q 53.45 14.3 52.35 12.9 Q 51.2 14.3 49.6 15.15 Q 47.95 16 46 16 Q 44.05 16 42.4 15.15 Q 40.8 14.3 39.65 12.9 Q 38.55 14.3 36.9 15.15 Q 35.3 16 33.35 16 Q 31.4 16 29.75 15.15 Q 28.1 14.3 27 12.9 Q 25.9 14.3 24.25 15.15 Q 22.6 16 20.65 16 Q 18.7 16 17.1 15.15 Q 15.45 14.3 14.35 12.9 Q 13.2 14.3 11.6 15.15 Q 9.95 16 8 16 Q 4.6 15.9 2.35 13.65 Q 0.1 11.4 0 8 Q 0.1 4.6 2.35 2.35 Q 4.6 0.1 8 0 Q 9.95 0 11.6 0.85 Q 13.2 1.7 14.35 3.15 Q 15.45 1.7 17.1 0.85 Q 18.7 0 20.65 0 Q 22.6 0 24.25 0.85 Q 25.9 1.7 27 3.15 Q 28.1 1.7 29.75 0.85 Q 31.4 0 33.35 0 Q 35.3 0 36.9 0.85 Q 38.55 1.7 39.65 3.15 Q 40.8 1.7 42.4 0.85 Q 44.05 0 46 0 Q 47.95 0 49.6 0.85 Q 51.2 1.7 52.35 3.15 Q 53.45 1.7 55.1 0.85 Q 56.7 0 58.65 0 Q 60.6 0 62.25 0.85 Q 63.9 1.7 65 3.15 Q 66.1 1.7 67.75 0.85 Q 69.4 0 71.35 0 Q 73.3 0 74.9 0.85 Q 76.55 1.7 77.65 3.15 Q 78.8 1.7 80.4 0.85 Q 82.05 0 84 0 Q 85.95 0 87.6 0.85 Q 89.2 1.7 90.35 3.15 Q 91.45 1.7 93.1 0.85 Q 94.7 0 96.65 0 Q 98.6 0 100.25 0.85 Q 101.9 1.7 103 3.15 Q 104.1 1.7 105.75 0.85 Q 107.4 0 109.35 0 Q 111.3 0 112.9 0.85 Q 114.55 1.7 115.65 3.15 Q 116.8 1.7 118.4 0.85 Q 120.05 0 122 0 Q 123.95 0 125.6 0.85 Q 127.2 1.7 128.35 3.15 Q 129.45 1.7 131.1 0.85 Q 132.7 0 134.65 0 Q 136.6 0 138.25 0.85 Q 139.9 1.7 141 3.15 Q 142.1 1.7 143.75 0.85 Q 145.4 0 147.35 0 Q 149.3 0 150.9 0.85 Q 152.55 1.7 153.65 3.15 Q 154.8 1.7 156.4 0.85 Q 158.05 0 160 0 Q 161.95 0 163.6 0.85 Q 165.2 1.7 166.35 3.15 Q 167.45 1.7 169.1 0.85 Q 170.7 0 172.65 0 Q 174.6 0 176.25 0.85 Q 177.9 1.7 179 3.15 Q 180.1 1.7 181.75 0.85 Q 183.4 0 185.35 0 Q 187.3 0 188.9 0.85 Q 190.55 1.7 191.65 3.15 Q 192.8 1.7 194.4 0.85 Q 196.05 0 198 0 Q 199.95 0 201.6 0.85 Q 203.2 1.7 204.35 3.15 Q 205.45 1.7 207.05 0.85 Q 208.7 0 210.65 0 Q 212.6 0 214.25 0.85 Q 215.9 1.7 217 3.15 Q 218.1 1.7 219.75 0.85 Q 221.4 0 223.35 0 Q 225.3 0 226.9 0.85 Q 228.55 1.7 229.65 3.15 Q 230.75 1.7 232.4 0.85 Q 234.05 0 236 0 Q 237.95 0 239.6 0.85 Q 241.2 1.7 242.35 3.15 Q 243.45 1.7 245.05 0.85 Q 246.7 0 248.65 0 Q 250.6 0 252.25 0.85 Q 253.9 1.7 255 3.15 Q 256.1 1.7 257.75 0.85 Q 259.4 0 261.35 0 Q 263.3 0 264.9 0.85 Q 266.55 1.7 267.65 3.15 Q 268.75 1.7 270.4 0.85 Q 272.05 0 274 0 Z" transform="translate(6.65,24.65)" fill="#55C2F9"/>
		<path d="M 292.75 0 Q 293 1.3 293 2.65 Q 292.95 7.15 290.8 10.75 Q 288.7 14.35 285.1 16.5 Q 281.45 18.6 277 18.65 Q 272.1 18.6 268.3 16.1 Q 264.45 13.55 262.5 9.4 Q 260.55 13.55 256.7 16.1 Q 252.9 18.6 248 18.65 Q 243.1 18.6 239.3 16.1 Q 235.45 13.55 233.5 9.4 Q 231.55 13.55 227.7 16.1 Q 223.9 18.6 219 18.65 Q 214.1 18.6 210.3 16.1 Q 206.45 13.55 204.5 9.4 Q 202.55 13.55 198.7 16.1 Q 194.9 18.6 190 18.65 Q 185.1 18.6 181.3 16.1 Q 177.45 13.55 175.5 9.4 Q 173.55 13.55 169.7 16.1 Q 165.9 18.6 161 18.65 Q 156.1 18.6 152.3 16.1 Q 148.45 13.55 146.5 9.4 Q 144.55 13.55 140.7 16.1 Q 136.9 18.6 132 18.65 Q 127.1 18.6 123.3 16.1 Q 119.45 13.55 117.5 9.4 Q 115.55 13.55 111.7 16.1 Q 107.9 18.6 103 18.65 Q 98.1 18.6 94.3 16.1 Q 90.45 13.55 88.5 9.4 Q 86.55 13.55 82.7 16.1 Q 78.9 18.6 74 18.65 Q 69.1 18.6 65.3 16.1 Q 61.45 13.55 59.5 9.4 Q 57.55 13.55 53.7 16.1 Q 49.9 18.6 45 18.65 Q 40.1 18.6 36.3 16.1 Q 32.45 13.55 30.5 9.4 Q 28.55 13.55 24.7 16.1 Q 20.9 18.6 16 18.65 Q 11.55 18.6 7.9 16.5 Q 4.3 14.35 2.2 10.75 Q 0.05 7.15 0 2.65 Q 0 1.3 0.25 0 Z" transform="translate(3.65,17.65)" fill="#06AAEA"/>
		<path d="M 283.55 17.45 Q 286.35 16.25 288.45 14.15 Q 290.6 12 291.8 9.2 Q 293 6.4 293 3.15 Q 293 2.05 292.85 1 L 1.15 1 Q 1 2.05 1 3.15 Q 1 6.4 2.2 9.2 Q 3.4 12 5.55 14.15 Q 7.65 16.25 10.45 17.45 Q 13.25 18.65 16.5 18.65 Q 21.25 18.6 24.95 16.15 Q 28.65 13.75 30.55 9.7 L 31 8.7 L 31.45 9.7 Q 33.35 13.75 37.05 16.15 Q 40.75 18.6 45.5 18.65 Q 50.25 18.6 53.95 16.15 Q 57.65 13.75 59.55 9.7 L 60 8.7 L 60.45 9.7 Q 62.35 13.75 66.05 16.15 Q 69.75 18.6 74.5 18.65 Q 79.25 18.6 82.95 16.15 Q 86.65 13.75 88.55 9.7 L 89 8.7 L 89.45 9.7 Q 91.35 13.75 95.05 16.15 Q 98.75 18.6 103.5 18.65 Q 108.25 18.6 111.95 16.15 Q 115.65 13.75 117.55 9.7 L 118 8.7 L 118.45 9.7 Q 120.35 13.75 124.05 16.15 Q 127.75 18.6 132.5 18.65 Q 137.25 18.6 140.95 16.15 Q 144.65 13.75 146.55 9.7 L 147 8.7 L 147.45 9.7 Q 149.35 13.75 153.05 16.15 Q 156.75 18.6 161.5 18.65 Q 166.25 18.6 169.95 16.15 Q 173.65 13.75 175.55 9.7 L 176 8.7 L 176.45 9.7 Q 178.35 13.75 182.05 16.15 Q 185.75 18.6 190.5 18.65 Q 195.25 18.6 198.95 16.15 Q 202.65 13.75 204.55 9.7 L 205 8.7 L 205.45 9.7 Q 207.35 13.75 211.05 16.15 Q 214.75 18.6 219.5 18.65 Q 224.25 18.6 227.95 16.15 Q 231.65 13.75 233.55 9.7 L 234 8.7 L 234.45 9.7 Q 236.35 13.75 240.05 16.15 Q 243.75 18.6 248.5 18.65 Q 253.25 18.6 256.95 16.15 Q 260.65 13.75 262.55 9.7 L 263 8.7 L 263.45 9.7 Q 265.35 13.75 269.05 16.15 Q 272.75 18.6 277.5 18.65 Q 280.75 18.65 283.55 17.45 Z M 293.7 0 L 293.75 0.4 Q 294 1.75 294 3.15 Q 293.95 7.8 291.75 11.5 Q 289.55 15.2 285.85 17.4 Q 282.1 19.6 277.5 19.65 Q 272.75 19.6 268.95 17.25 Q 265.15 14.95 263 11 Q 260.85 14.95 257.05 17.25 Q 253.25 19.6 248.5 19.65 Q 243.75 19.6 239.95 17.25 Q 236.15 14.95 234 11 Q 231.85 14.95 228.05 17.25 Q 224.25 19.6 219.5 19.65 Q 214.75 19.6 210.95 17.25 Q 207.15 14.95 205 11 Q 202.85 14.95 199.05 17.25 Q 195.25 19.6 190.5 19.65 Q 185.75 19.6 181.95 17.25 Q 178.15 14.95 176 11 Q 173.85 14.95 170.05 17.25 Q 166.25 19.6 161.5 19.65 Q 156.75 19.6 152.95 17.25 Q 149.15 14.95 147 11 Q 144.85 14.95 141.05 17.25 Q 137.25 19.6 132.5 19.65 Q 127.75 19.6 123.95 17.25 Q 120.15 14.95 118 11 Q 115.85 14.95 112.05 17.25 Q 108.25 19.6 103.5 19.65 Q 98.75 19.6 94.95 17.25 Q 91.15 14.95 89 11 Q 86.85 14.95 83.05 17.25 Q 79.25 19.6 74.5 19.65 Q 69.75 19.6 65.95 17.25 Q 62.15 14.95 60 11 Q 57.85 14.95 54.05 17.25 Q 50.25 19.6 45.5 19.65 Q 40.75 19.6 36.95 17.25 Q 33.15 14.95 31 11 Q 28.85 14.95 25.05 17.25 Q 21.25 19.6 16.5 19.65 Q 11.9 19.6 8.15 17.4 Q 4.45 15.2 2.25 11.5 Q 0.05 7.75 0 3.15 Q 0 1.75 0.25 0.4 L 0.3 0 Z" transform="translate(3.15,17.15)" fill="#30DDF1"/>
		<path d="M 20.45 1.85 Q 23.5 3.65 25.3 6.75 Q 27.1 9.8 27.15 13.6 Q 27.1 17.4 25.3 20.45 Q 23.5 23.5 20.45 25.3 Q 17.4 27.1 13.6 27.15 Q 9.8 27.1 6.75 25.3 Q 3.65 23.5 1.85 20.45 Q 0.05 17.4 0 13.6 Q 0.05 9.8 1.85 6.75 Q 3.65 3.65 6.75 1.85 Q 9.8 0.05 13.6 0 Q 17.4 0.05 20.45 1.85 Z M 25.65 8.5 Q 24.65 6.15 22.85 4.35 Q 21.05 2.55 18.7 1.55 Q 16.3 0.5 13.6 0.5 Q 10.85 0.5 8.5 1.55 Q 6.15 2.55 4.35 4.35 Q 2.55 6.15 1.55 8.5 Q 0.5 10.85 0.5 13.6 Q 0.5 16.3 1.55 18.7 Q 2.55 21.05 4.35 22.85 Q 6.15 24.65 8.5 25.65 Q 10.85 26.65 13.6 26.65 Q 16.3 26.65 18.7 25.65 Q 21.05 24.65 22.85 22.85 Q 24.65 21.05 25.65 18.7 Q 26.65 16.3 26.65 13.6 Q 26.65 10.85 25.65 8.5 Z" transform="translate(0.75,8.05)" fill="#C4EBF7"/>
		<path d="M 20.45 1.85 Q 23.5 3.65 25.3 6.75 Q 27.1 9.8 27.15 13.6 Q 27.1 17.4 25.3 20.45 Q 23.5 23.5 20.45 25.3 Q 17.4 27.1 13.6 27.15 Q 9.8 27.1 6.75 25.3 Q 3.65 23.5 1.85 20.45 Q 0.05 17.4 0 13.6 Q 0.05 9.8 1.85 6.75 Q 3.65 3.65 6.75 1.85 Q 9.8 0.05 13.6 0 Q 17.4 0.05 20.45 1.85 Z M 25.65 8.5 Q 24.65 6.15 22.85 4.35 Q 21.05 2.55 18.7 1.55 Q 16.3 0.5 13.6 0.5 Q 10.85 0.5 8.5 1.55 Q 6.15 2.55 4.35 4.35 Q 2.55 6.15 1.55 8.5 Q 0.5 10.85 0.5 13.6 Q 0.5 16.3 1.55 18.7 Q 2.55 21.05 4.35 22.85 Q 6.15 24.65 8.5 25.65 Q 10.85 26.65 13.6 26.65 Q 16.3 26.65 18.7 25.65 Q 21.05 24.65 22.85 22.85 Q 24.65 21.05 25.65 18.7 Q 26.65 16.3 26.65 13.6 Q 26.65 10.85 25.65 8.5 Z" transform="translate(27.75,8.05)" fill="#C4EBF7"/>
		<path d="M 20.45 1.85 Q 23.5 3.65 25.3 6.75 Q 27.1 9.8 27.15 13.6 Q 27.1 17.4 25.3 20.45 Q 23.5 23.5 20.45 25.3 Q 17.4 27.1 13.6 27.15 Q 9.8 27.1 6.75 25.3 Q 3.65 23.5 1.85 20.45 Q 0.05 17.4 0 13.6 Q 0.05 9.8 1.85 6.75 Q 3.65 3.65 6.75 1.85 Q 9.8 0.05 13.6 0 Q 17.4 0.05 20.45 1.85 Z M 25.65 8.5 Q 24.65 6.15 22.85 4.35 Q 21.05 2.55 18.7 1.55 Q 16.3 0.5 13.6 0.5 Q 10.85 0.5 8.5 1.55 Q 6.15 2.55 4.35 4.35 Q 2.55 6.15 1.55 8.5 Q 0.5 10.85 0.5 13.6 Q 0.5 16.3 1.55 18.7 Q 2.55 21.05 4.35 22.85 Q 6.15 24.65 8.5 25.65 Q 10.85 26.65 13.6 26.65 Q 16.3 26.65 18.7 25.65 Q 21.05 24.65 22.85 22.85 Q 24.65 21.05 25.65 18.7 Q 26.65 16.3 26.65 13.6 Q 26.65 10.85 25.65 8.5 Z" transform="translate(54.75,8.05)" fill="#C4EBF7"/>
		<path d="M 20.45 1.85 Q 23.5 3.65 25.3 6.75 Q 27.1 9.8 27.15 13.6 Q 27.1 17.4 25.3 20.45 Q 23.5 23.5 20.45 25.3 Q 17.4 27.1 13.6 27.15 Q 9.8 27.1 6.75 25.3 Q 3.65 23.5 1.85 20.45 Q 0.05 17.4 0 13.6 Q 0.05 9.8 1.85 6.75 Q 3.65 3.65 6.75 1.85 Q 9.8 0.05 13.6 0 Q 17.4 0.05 20.45 1.85 Z M 25.65 8.5 Q 24.65 6.15 22.85 4.35 Q 21.05 2.55 18.7 1.55 Q 16.3 0.5 13.6 0.5 Q 10.85 0.5 8.5 1.55 Q 6.15 2.55 4.35 4.35 Q 2.55 6.15 1.55 8.5 Q 0.5 10.85 0.5 13.6 Q 0.5 16.3 1.55 18.7 Q 2.55 21.05 4.35 22.85 Q 6.15 24.65 8.5 25.65 Q 10.85 26.65 13.6 26.65 Q 16.3 26.65 18.7 25.65 Q 21.05 24.65 22.85 22.85 Q 24.65 21.05 25.65 18.7 Q 26.65 16.3 26.65 13.6 Q 26.65 10.85 25.65 8.5 Z" transform="translate(81.75,8.05)" fill="#C4EBF7"/>
		<path d="M 20.45 1.85 Q 23.5 3.65 25.3 6.75 Q 27.1 9.8 27.15 13.6 Q 27.1 17.4 25.3 20.45 Q 23.5 23.5 20.45 25.3 Q 17.4 27.1 13.6 27.15 Q 9.8 27.1 6.75 25.3 Q 3.65 23.5 1.85 20.45 Q 0.05 17.4 0 13.6 Q 0.05 9.8 1.85 6.75 Q 3.65 3.65 6.75 1.85 Q 9.8 0.05 13.6 0 Q 17.4 0.05 20.45 1.85 Z M 25.65 8.5 Q 24.65 6.15 22.85 4.35 Q 21.05 2.55 18.7 1.55 Q 16.3 0.5 13.6 0.5 Q 10.85 0.5 8.5 1.55 Q 6.15 2.55 4.35 4.35 Q 2.55 6.15 1.55 8.5 Q 0.5 10.85 0.5 13.6 Q 0.5 16.3 1.55 18.7 Q 2.55 21.05 4.35 22.85 Q 6.15 24.65 8.5 25.65 Q 10.85 26.65 13.6 26.65 Q 16.3 26.65 18.7 25.65 Q 21.05 24.65 22.85 22.85 Q 24.65 21.05 25.65 18.7 Q 26.65 16.3 26.65 13.6 Q 26.65 10.85 25.65 8.5 Z" transform="translate(108.75,8.05)" fill="#C4EBF7"/>
		<path d="M 20.45 1.85 Q 23.5 3.65 25.3 6.75 Q 27.1 9.8 27.15 13.6 Q 27.1 17.4 25.3 20.45 Q 23.5 23.5 20.45 25.3 Q 17.4 27.1 13.6 27.15 Q 9.8 27.1 6.75 25.3 Q 3.65 23.5 1.85 20.45 Q 0.05 17.4 0 13.6 Q 0.05 9.8 1.85 6.75 Q 3.65 3.65 6.75 1.85 Q 9.8 0.05 13.6 0 Q 17.4 0.05 20.45 1.85 Z M 25.65 8.5 Q 24.65 6.15 22.85 4.35 Q 21.05 2.55 18.7 1.55 Q 16.3 0.5 13.6 0.5 Q 10.85 0.5 8.5 1.55 Q 6.15 2.55 4.35 4.35 Q 2.55 6.15 1.55 8.5 Q 0.5 10.85 0.5 13.6 Q 0.5 16.3 1.55 18.7 Q 2.55 21.05 4.35 22.85 Q 6.1 24.65 8.5 25.65 Q 10.85 26.65 13.6 26.65 Q 16.3 26.65 18.7 25.65 Q 21.05 24.65 22.85 22.85 Q 24.65 21.05 25.65 18.7 Q 26.65 16.3 26.65 13.6 Q 26.65 10.85 25.65 8.5 Z" transform="translate(135.75,8.05)" fill="#C4EBF7"/>
		<path d="M 20.45 1.85 Q 23.5 3.65 25.3 6.75 Q 27.1 9.8 27.15 13.6 Q 27.1 17.4 25.3 20.45 Q 23.5 23.5 20.45 25.3 Q 17.4 27.1 13.6 27.15 Q 9.8 27.1 6.75 25.3 Q 3.65 23.5 1.85 20.45 Q 0.05 17.4 0 13.6 Q 0.05 9.8 1.85 6.75 Q 3.65 3.65 6.75 1.85 Q 9.8 0.05 13.6 0 Q 17.4 0.05 20.45 1.85 Z M 25.65 8.5 Q 24.65 6.15 22.85 4.35 Q 21.05 2.55 18.7 1.55 Q 16.3 0.5 13.6 0.5 Q 10.85 0.5 8.5 1.55 Q 6.15 2.55 4.35 4.35 Q 2.55 6.15 1.55 8.5 Q 0.5 10.85 0.5 13.6 Q 0.5 16.3 1.55 18.7 Q 2.55 21.05 4.35 22.85 Q 6.1 24.65 8.5 25.65 Q 10.85 26.65 13.6 26.65 Q 16.3 26.65 18.7 25.65 Q 21.05 24.65 22.85 22.85 Q 24.65 21.05 25.65 18.7 Q 26.65 16.3 26.65 13.6 Q 26.65 10.85 25.65 8.5 Z" transform="translate(162.75,8.05)" fill="#C4EBF7"/>
		<path d="M 20.45 1.85 Q 23.5 3.65 25.3 6.75 Q 27.1 9.8 27.15 13.6 Q 27.1 17.4 25.3 20.45 Q 23.5 23.5 20.45 25.3 Q 17.4 27.1 13.6 27.15 Q 9.8 27.1 6.75 25.3 Q 3.65 23.5 1.85 20.45 Q 0.05 17.4 0 13.6 Q 0.05 9.8 1.85 6.75 Q 3.65 3.65 6.75 1.85 Q 9.8 0.05 13.6 0 Q 17.4 0.05 20.45 1.85 Z M 25.65 8.5 Q 24.65 6.15 22.85 4.35 Q 21.05 2.55 18.7 1.55 Q 16.3 0.5 13.6 0.5 Q 10.85 0.5 8.5 1.55 Q 6.15 2.55 4.35 4.35 Q 2.55 6.15 1.55 8.5 Q 0.5 10.85 0.5 13.6 Q 0.5 16.3 1.55 18.7 Q 2.55 21.05 4.35 22.85 Q 6.1 24.65 8.5 25.65 Q 10.85 26.65 13.6 26.65 Q 16.3 26.65 18.7 25.65 Q 21.05 24.65 22.85 22.85 Q 24.65 21.05 25.65 18.7 Q 26.65 16.3 26.65 13.6 Q 26.65 10.85 25.65 8.5 Z" transform="translate(189.75,8.05)" fill="#C4EBF7"/>
		<path d="M 20.45 1.85 Q 23.5 3.65 25.3 6.75 Q 27.1 9.8 27.15 13.6 Q 27.1 17.4 25.3 20.45 Q 23.5 23.5 20.45 25.3 Q 17.4 27.1 13.6 27.15 Q 9.8 27.1 6.75 25.3 Q 3.65 23.5 1.85 20.45 Q 0.05 17.4 0 13.6 Q 0.05 9.8 1.85 6.75 Q 3.65 3.65 6.75 1.85 Q 9.8 0.05 13.6 0 Q 17.4 0.05 20.45 1.85 Z M 25.65 8.5 Q 24.65 6.15 22.85 4.35 Q 21.05 2.55 18.7 1.55 Q 16.3 0.5 13.6 0.5 Q 10.85 0.5 8.5 1.55 Q 6.15 2.55 4.35 4.35 Q 2.55 6.15 1.55 8.5 Q 0.5 10.85 0.5 13.6 Q 0.5 16.3 1.55 18.7 Q 2.55 21.05 4.35 22.85 Q 6.1 24.65 8.5 25.65 Q 10.85 26.65 13.6 26.65 Q 16.3 26.65 18.7 25.65 Q 21.05 24.65 22.85 22.85 Q 24.65 21.05 25.65 18.7 Q 26.65 16.3 26.65 13.6 Q 26.65 10.85 25.65 8.5 Z" transform="translate(216.75,8.05)" fill="#C4EBF7"/>
		<path d="M 20.45 1.85 Q 23.5 3.65 25.3 6.75 Q 27.1 9.8 27.15 13.6 Q 27.1 17.4 25.3 20.45 Q 23.5 23.5 20.45 25.3 Q 17.4 27.1 13.6 27.15 Q 9.8 27.1 6.75 25.3 Q 3.65 23.5 1.85 20.45 Q 0.05 17.4 0 13.6 Q 0.05 9.8 1.85 6.75 Q 3.65 3.65 6.75 1.85 Q 9.8 0.05 13.6 0 Q 17.4 0.05 20.45 1.85 Z M 25.65 8.5 Q 24.65 6.15 22.85 4.35 Q 21.05 2.55 18.7 1.55 Q 16.3 0.5 13.6 0.5 Q 10.85 0.5 8.5 1.55 Q 6.15 2.55 4.35 4.35 Q 2.55 6.15 1.55 8.5 Q 0.5 10.85 0.5 13.6 Q 0.5 16.3 1.55 18.7 Q 2.55 21.05 4.35 22.85 Q 6.1 24.65 8.5 25.65 Q 10.85 26.65 13.6 26.65 Q 16.3 26.65 18.7 25.65 Q 21.05 24.65 22.85 22.85 Q 24.65 21.05 25.65 18.7 Q 26.65 16.3 26.65 13.6 Q 26.65 10.85 25.65 8.5 Z" transform="translate(243.75,8.05)" fill="#C4EBF7"/>
		<path d="M 20.45 1.85 Q 23.5 3.65 25.3 6.75 Q 27.1 9.8 27.15 13.6 Q 27.1 17.4 25.3 20.45 Q 23.5 23.5 20.45 25.3 Q 17.4 27.1 13.6 27.15 Q 9.8 27.1 6.75 25.3 Q 3.65 23.5 1.85 20.45 Q 0.05 17.4 0 13.6 Q 0.05 9.8 1.85 6.75 Q 3.65 3.65 6.75 1.85 Q 9.8 0.05 13.6 0 Q 17.4 0.05 20.45 1.85 Z M 25.65 8.5 Q 24.65 6.15 22.85 4.35 Q 21.05 2.55 18.7 1.55 Q 16.3 0.5 13.6 0.5 Q 10.85 0.5 8.5 1.55 Q 6.15 2.55 4.35 4.35 Q 2.55 6.15 1.55 8.5 Q 0.5 10.85 0.5 13.6 Q 0.5 16.3 1.55 18.7 Q 2.55 21.05 4.35 22.85 Q 6.1 24.65 8.5 25.65 Q 10.85 26.65 13.6 26.65 Q 16.3 26.65 18.7 25.65 Q 21.05 24.65 22.85 22.85 Q 24.65 21.05 25.65 18.7 Q 26.65 16.3 26.65 13.6 Q 26.65 10.85 25.65 8.5 Z" transform="translate(270.75,8.05)" fill="#C4EBF7"/>
	</g>
</svg>
