<?xml version="1.0"?>
<!DOCTYPE svg PUBLIC "-//W3C//DTD SVG 1.1//EN" "http://www.w3.org/Graphics/SVG/1.1/DTD/svg11.dtd">
<svg version='1.1' width='24px' height='9px' xmlns='http://www.w3.org/2000/svg' xmlns:xlink='http://www.w3.org/1999/xlink'>
	<g transform="translate(-162.4,-114.8)">
		<path d="M 175.35 120.35 Q 175.25 120.35 175.2 120.35 Q 174.3 120.35 173.65 120.6 Q 172.95 120.85 172.9 121.65 Q 173 122.7 173.9 122.65 Q 174.45 122.65 174.8 122.35 Q 175.2 122.1 175.3 121.7 Q 175.35 121.55 175.35 121.35 Z M 175.95 118.15 Q 176.4 118.85 176.4 119.75 L 176.4 121.9 Q 176.4 122.7 176.45 123.3 L 175.55 123.3 L 175.45 122.6 L 175.4 122.6 Q 174.9 123.35 173.6 123.45 Q 172.75 123.4 172.3 122.95 Q 171.85 122.45 171.85 121.8 Q 171.9 119.65 175.3 119.6 Q 175.3 119.65 175.35 119.6 L 175.35 119.5 Q 175.35 119.1 175.1 118.65 Q 174.9 118.2 174.05 118.15 L 174 118.15 Q 173.15 118.15 172.5 118.6 L 172.25 117.9 Q 173.05 117.4 174.15 117.4 Q 175.5 117.4 175.95 118.15 Z M 178.1 114.8 L 179.15 114.8 L 179.15 123.3 L 178.1 123.3 Z M 169.3 116.3 L 169.25 116.3 Q 168.85 117.65 168.25 119.35 L 166.85 123.25 L 166.05 123.25 L 164.7 119.4 Q 164.15 117.7 163.8 116.3 L 163.75 116.3 Q 163.75 117.05 163.7 118 Q 163.65 118.9 163.6 119.85 L 163.4 123.3 L 162.4 123.3 L 162.95 115.25 L 164.3 115.25 L 165.65 119.15 Q 166.15 120.6 166.5 121.85 Q 166.85 120.65 167.4 119.15 L 168.8 115.25 L 170.15 115.25 L 170.65 123.3 L 169.6 123.3 L 169.45 119.75 Q 169.4 118.9 169.35 117.95 Q 169.3 117.05 169.3 116.3 Z M 184.55 119.85 Q 184.6 119.3 184.3 118.75 Q 184 118.15 183.1 118.1 Q 182.3 118.15 181.95 118.7 Q 181.55 119.25 181.5 119.85 Z M 183.2 117.35 Q 184.6 117.45 185.1 118.35 Q 185.6 119.25 185.6 120.1 Q 185.6 120.45 185.55 120.6 L 181.5 120.6 Q 181.55 121.65 182.1 122.15 Q 182.65 122.6 183.45 122.6 Q 184.55 122.6 185.1 122.3 L 185.25 123.05 Q 184.7 123.35 183.35 123.45 Q 182 123.4 181.25 122.6 Q 180.5 121.85 180.45 120.5 Q 180.5 119.15 181.2 118.25 Q 181.9 117.4 183.2 117.35 Z" fill="#841B93"/>
	</g>
</svg>
