<?xml version="1.0"?>
<!DOCTYPE svg PUBLIC "-//W3C//DTD SVG 1.1//EN" "http://www.w3.org/Graphics/SVG/1.1/DTD/svg11.dtd">
<svg version='1.1' width='184px' height='37px' xmlns='http://www.w3.org/2000/svg' xmlns:xlink='http://www.w3.org/1999/xlink'>
	<g transform="translate(85.75,32)">
	<g transform="translate(6,-13.5)">
			<path d="M 18.15 -17.5 Q 13.55 -17.4 10.85 -14.65 Q 8.2 -11.95 7.85 -7.05 Q 7.8 -6.55 7.8 -6 Q 7.9 -1.5 10.45 1.15 Q 12.95 3.85 17.05 4.2 Q 17.55 4.2 18.1 4.2 L 18.15 4.2 Q 22.75 4.15 25.35 1.45 Q 28 -1.25 28.35 -6.25 Q 28.4 -6.75 28.4 -7.25 Q 28.35 -10.35 27.05 -12.6 Q 25.8 -14.8 23.7 -16.05 Q 21.65 -17.3 19.2 -17.45 Q 18.7 -17.5 18.2 -17.5 Z M 18.25 -12.65 Q 18.1 -12.65 17.95 -12.7 Q 16.15 -12.65 15.1 -11.25 Q 14.05 -9.8 13.85 -7.25 Q 13.8 -6.65 13.8 -6.15 Q 13.85 -3.4 14.9 -2.1 Q 15.9 -0.8 17.95 -0.65 Q 18.1 -0.65 18.2 -0.65 L 18.25 -0.65 Q 19.9 -0.65 21 -2 Q 22.1 -3.35 22.35 -6.15 Q 22.4 -6.75 22.4 -7.35 Q 22.35 -10.1 21.35 -11.3 Q 20.35 -12.5 18.25 -12.65 Z M 10.15 -15.35 Q 13.1 -18.45 18.1 -18.5 Q 18.15 -18.5 18.2 -18.5 Q 18.75 -18.5 19.25 -18.45 Q 21.95 -18.3 24.25 -16.9 Q 26.5 -15.5 27.95 -13.05 Q 29.35 -10.6 29.4 -7.25 Q 29.4 -6.75 29.35 -6.2 Q 29 -0.9 26.1 2.15 Q 23.15 5.15 18.15 5.2 Q 18.1 5.2 18.05 5.2 Q 17.5 5.2 17 5.2 Q 12.5 4.85 9.7 1.85 Q 6.9 -1.15 6.8 -6 Q 6.8 -6.55 6.85 -7.15 Q 7.2 -12.3 10.15 -15.35 Z M 37.25 -8.6 Q 37.2 -9.3 36.55 -10.05 Q 35.9 -10.85 34.65 -11.05 L 32.15 -11.45 Q 32.2 -8.95 32.65 -6.2 Q 33.1 -3.45 33.8 -0.95 Q 34.5 1.6 35.35 3.45 Q 35.9 4.7 36.55 5.4 Q 37.2 6.05 38.5 6.25 L 39.9 6.45 Q 41.05 5.4 42.5 3.6 Q 43.9 1.75 45.2 -0.2 Q 46.5 -2.2 47.3 -3.75 Q 48.25 -5.4 48.6 -7.15 Q 48.6 -7.35 48.6 -7.55 Q 48.6 -8.95 46.95 -9.25 L 44.5 -9.6 Q 43.9 -7.75 43.05 -5.8 Q 42.2 -3.85 41.35 -2.25 Q 40.45 -0.6 39.75 0.35 L 39.2 1.1 L 38.9 0.25 Q 38.6 -0.65 38.25 -2.15 Q 37.9 -3.65 37.6 -5.4 Q 37.3 -7.1 37.25 -8.6 Z M 17.95 -13.7 Q 18.15 -13.7 18.35 -13.65 Q 20.8 -13.55 22.1 -11.95 Q 23.45 -10.35 23.4 -7.35 Q 23.4 -6.75 23.35 -6.05 Q 23.15 -3.05 21.8 -1.4 Q 20.45 0.3 18.25 0.35 Q 18.05 0.35 17.9 0.35 Q 15.45 0.2 14.1 -1.5 Q 12.8 -3.15 12.8 -6.15 Q 12.8 -6.7 12.85 -7.3 Q 13 -10.05 14.3 -11.85 Q 15.6 -13.6 17.95 -13.7 Z M 58.6 -8.2 L 58.65 -8.2 Q 59.75 -8.2 60.9 -7.95 Q 63.9 -7.25 65.8 -5.3 Q 67.65 -3.4 67.75 -0.55 Q 67.75 0.35 67.55 1.25 Q 66.7 4.75 62.95 4.75 Q 62.9 4.75 62.85 4.75 L 62.8 4.75 Q 60.7 4.7 57.7 4 L 55.85 3.55 Q 56 4.4 56.75 4.95 Q 57.45 5.5 58.95 5.85 Q 61.05 6.35 62.4 6.35 L 62.45 6.35 Q 63.6 6.35 64.25 6.05 L 64.4 6 L 64.55 6.05 L 65.25 6.2 L 64.8 8.05 Q 64.5 9.45 63.25 10.4 Q 62 11.3 59.85 11.35 L 59.75 11.35 Q 58.45 11.35 56.7 10.95 Q 52.95 10.05 51.05 7.65 Q 49.15 5.25 49.15 2.15 Q 49.15 0.95 49.45 -0.3 Q 50.3 -3.8 52.7 -5.95 Q 55.15 -8.1 58.6 -8.2 Z M 37.3 -10.75 Q 38.2 -9.7 38.25 -8.65 Q 38.35 -6.85 38.7 -4.75 Q 39.1 -2.6 39.55 -1.1 Q 40.55 -2.75 41.75 -5.3 Q 42.9 -7.85 43.7 -10.35 L 43.85 -10.75 L 47.1 -10.25 Q 48.25 -10.1 48.9 -9.35 Q 49.6 -8.65 49.6 -7.55 Q 49.6 -7.3 49.55 -7 Q 49.4 -6 49 -5.05 Q 48.6 -4.15 48.15 -3.3 Q 47.3 -1.65 45.95 0.45 Q 44.6 2.5 43.1 4.4 Q 41.65 6.25 40.35 7.35 L 40.2 7.5 L 38.35 7.25 Q 36.8 7 35.9 6.1 Q 35 5.2 34.45 3.9 Q 33.55 1.85 32.8 -0.85 Q 32.05 -3.5 31.6 -6.4 Q 31.2 -9.3 31.15 -11.95 L 31.15 -12.6 L 34.8 -12.05 Q 36.45 -11.75 37.3 -10.75 Z M 55.35 -0.5 L 55.55 -1 Q 55.85 -2.15 56.7 -2.9 Q 57.5 -3.65 58.8 -3.7 L 58.85 -3.7 Q 59.35 -3.7 59.85 -3.6 Q 61.1 -3.3 61.7 -2.6 Q 62.35 -1.9 62.35 -1.1 Q 62.3 -0.85 62.3 -0.65 Q 62.2 -0.15 61.8 0.15 Q 61.35 0.5 60.7 0.5 Q 60.65 0.5 60.55 0.5 Q 59.7 0.5 58.15 0.15 Z M 58.65 -7.2 L 58.6 -7.2 Q 55.55 -7.15 53.4 -5.2 Q 51.2 -3.25 50.4 -0.05 Q 50.15 1.05 50.15 2.15 Q 50.15 4.9 51.8 7 Q 53.45 9.1 56.95 10 Q 58.55 10.35 59.75 10.35 L 59.8 10.35 Q 61.75 10.3 62.7 9.6 Q 63.6 8.9 63.85 7.8 L 64 7.2 Q 63.3 7.35 62.45 7.35 L 62.4 7.35 Q 60.9 7.35 58.75 6.85 Q 56.9 6.45 55.85 5.5 Q 54.8 4.55 54.8 3.05 L 54.8 2.85 L 54.85 2.3 L 57.9 3 Q 60.9 3.7 62.75 3.75 L 62.8 3.75 Q 64.5 3.7 65.35 3.1 Q 66.2 2.5 66.55 1.05 Q 66.75 0.2 66.75 -0.55 Q 66.7 -2.95 65.05 -4.6 Q 63.45 -6.3 60.65 -6.95 Q 59.6 -7.2 58.65 -7.2 Z M 72.35 -2.05 Q 73.95 -3.3 76.15 -3.35 L 76.2 -3.35 Q 77.35 -3.35 78.6 -2.95 Q 82.3 -1.65 82.35 0.8 Q 82.35 1.25 82.2 1.75 L 81.35 4.3 L 80.6 4.05 L 80.55 4 Q 80.1 3.65 79.7 3.45 Q 79.35 3.3 78.8 3.1 Q 78.35 2.95 77.95 2.95 Q 77.35 2.95 76.9 3.3 Q 76.45 3.7 76.1 4.7 L 72.7 15 L 70.7 14.35 Q 69.15 13.85 68.25 12.9 Q 67.35 11.9 67.35 10.45 Q 67.35 9.55 67.7 8.5 L 70.05 1.35 Q 70.75 -0.75 72.35 -2.05 Z M 58.8 -2.7 Q 57.3 -2.65 56.7 -1.2 L 58.4 -0.8 Q 59.9 -0.5 60.55 -0.5 Q 61.1 -0.55 61.15 -0.6 Q 61.25 -0.65 61.3 -0.85 L 61.35 -1.1 Q 61.35 -1.5 60.95 -1.9 Q 60.6 -2.35 59.65 -2.6 Q 59.2 -2.7 58.85 -2.7 Z M 89.15 -2 L 87.05 -2.9 L 83.7 6 Q 83.45 6.7 83.45 7.3 Q 83.4 8.75 85.05 9.55 L 86.4 10.1 L 90.45 1.4 Q 90.75 0.7 90.75 0.1 Q 90.75 -1.3 89.15 -2 Z M 76.15 -2.35 Q 74.3 -2.3 72.95 -1.25 Q 71.6 -0.2 71 1.65 L 68.65 8.85 Q 68.35 9.75 68.35 10.4 Q 68.35 12.55 71 13.4 L 72.05 13.75 L 75.15 4.35 Q 75.55 3.15 76.25 2.55 Q 77 1.95 77.9 1.95 L 77.95 1.95 Q 78.55 1.95 79.1 2.15 Q 80 2.45 80.75 2.9 L 81.25 1.45 Q 81.35 1.1 81.35 0.8 Q 81.35 0.05 80.65 -0.7 Q 79.95 -1.4 78.3 -2 Q 77.2 -2.35 76.2 -2.35 Z M 86.45 -4.2 L 89.5 -2.9 Q 91.65 -2 91.75 0.1 Q 91.75 0.95 91.35 1.8 L 91.35 1.85 L 86.9 11.4 L 84.65 10.45 Q 83.6 10 83 9.15 Q 82.45 8.3 82.45 7.3 Q 82.45 6.5 82.75 5.65 Z M 83.8 12 Q 83.25 11.75 82.65 11.75 Q 81.8 11.8 81.1 12.25 Q 80.4 12.7 80 13.55 Q 79.8 14.1 79.8 14.65 Q 79.8 15.5 80.25 16.2 Q 80.75 16.95 81.55 17.3 Q 82.1 17.5 82.65 17.5 L 82.7 17.5 Q 83.55 17.5 84.25 17.05 Q 84.95 16.55 85.3 15.75 Q 85.55 15.2 85.55 14.65 Q 85.55 13.75 85.05 13.05 Q 84.6 12.35 83.8 12 Z M 82.65 10.75 L 82.7 10.75 Q 83.45 10.75 84.15 11.05 Q 85.3 11.55 85.9 12.5 Q 86.55 13.45 86.55 14.6 Q 86.55 15.4 86.25 16.15 Q 85.75 17.25 84.8 17.85 Q 83.85 18.5 82.7 18.5 L 82.65 18.5 Q 81.9 18.5 81.2 18.2 Q 80.05 17.7 79.45 16.75 Q 78.8 15.8 78.8 14.65 Q 78.8 13.9 79.1 13.15 Q 79.6 12 80.55 11.4 Q 81.5 10.8 82.65 10.75 Z M -82.35 -7.3 Q -86.55 -5.85 -88.65 -3.05 Q -90.75 -0.2 -90.75 3.3 Q -90.75 5.1 -90.15 6.95 Q -88.9 10.55 -86.2 12.4 Q -83.55 14.25 -80.2 14.25 L -80.15 14.25 Q -78.4 14.25 -76.55 13.7 Q -73.45 12.6 -72.1 11.2 Q -70.8 9.8 -70.85 8.15 Q -70.85 7.25 -71.15 6.25 L -72.05 3.5 Q -72.6 1.85 -74.2 1.85 Q -74.6 1.8 -75.1 2 L -77.4 2.75 Q -77.1 3.25 -76.85 3.9 Q -76.55 4.5 -76.4 5.05 L -75.65 7.35 Q -75.5 7.7 -75.5 8.1 Q -75.5 9.25 -77.3 9.85 Q -78.4 10.2 -79.45 10.2 L -79.5 10.2 Q -81.45 10.2 -83.05 8.9 Q -84.65 7.6 -85.55 4.9 Q -85.95 3.65 -85.95 2.55 Q -85.95 0.25 -84.65 -1.3 Q -83.35 -2.9 -81.3 -3.55 Q -78.95 -4.35 -77.2 -4.3 L -77.15 -4.3 Q -75.95 -4.3 -75 -4.05 L -75.4 -5.25 Q -75.8 -6.35 -76.85 -7.05 Q -77.9 -7.8 -79.6 -7.8 Q -80.85 -7.8 -82.35 -7.3 Z M -89.45 -3.65 Q -87.15 -6.75 -82.7 -8.25 Q -81 -8.8 -79.6 -8.8 L -79.55 -8.8 Q -77.6 -8.8 -76.25 -7.9 Q -74.95 -7 -74.45 -5.55 L -73.65 -3 L -74.45 -2.75 L -74.6 -2.8 Q -75.6 -3.3 -77.15 -3.3 L -77.2 -3.3 Q -78.75 -3.35 -81 -2.6 Q -82.75 -2.05 -83.85 -0.7 Q -84.95 0.6 -84.95 2.55 Q -84.95 3.5 -84.6 4.6 Q -83.75 7.1 -82.4 8.15 Q -81.05 9.2 -79.45 9.2 Q -78.55 9.2 -77.6 8.9 Q -76.8 8.6 -76.65 8.4 Q -76.45 8.2 -76.5 8.1 Q -76.5 7.95 -76.6 7.65 L -77.35 5.35 Q -77.55 4.7 -77.9 3.9 Q -78.3 3.15 -78.6 2.75 L -79 2.2 L -75.45 1.05 Q -74.8 0.8 -74.2 0.85 Q -74.15 0.8 -74.15 0.85 Q -73.05 0.85 -72.25 1.5 Q -71.45 2.15 -71.1 3.2 L -70.2 5.95 Q -69.85 7.05 -69.85 8.15 Q -69.75 12.4 -76.25 14.65 Q -78.2 15.25 -80.15 15.25 Q -80.2 15.25 -80.25 15.25 Q -83.9 15.25 -86.8 13.2 Q -89.75 11.15 -91.1 7.25 Q -91.75 5.25 -91.75 3.3 Q -91.75 -0.55 -89.45 -3.65 Z M -68.25 -1.55 Q -67.6 -2.4 -66.45 -3 Q -65.3 -3.65 -63.35 -4.1 Q -62.15 -4.35 -61.3 -4.35 Q -61.2 -4.35 -61.1 -4.35 Q -60.3 -4.35 -59.75 -3.95 Q -59.15 -3.5 -59 -2.7 L -58.75 -1.5 L -60.05 -1.2 Q -64.05 -0.35 -65.8 1.1 Q -67.55 2.5 -67.5 4.5 Q -67.45 5.1 -67.35 5.75 Q -66.85 7.75 -65.25 8.6 Q -63.7 9.45 -61.65 9.45 Q -60.55 9.45 -59.55 9.2 Q -55.95 8.45 -54.5 7.2 Q -53.05 5.95 -53.05 3.45 Q -53.05 2.05 -53.5 0.15 L -54.05 -2.45 Q -54.7 -5.4 -56.35 -6.7 Q -58 -8.05 -60.5 -8.05 Q -61.55 -8.05 -62.75 -7.8 Q -65.9 -7.05 -67.25 -5.75 Q -68.6 -4.45 -68.55 -3.2 Q -68.55 -2.95 -68.5 -2.7 Z M -66.35 -1.9 Q -67.35 -1.25 -68 -0.25 L -68.1 -0.1 L -68.3 -0.05 L -68.95 0.05 L -69.45 -2.5 Q -69.55 -2.85 -69.55 -3.2 Q -69.55 -5 -67.95 -6.5 Q -66.3 -8 -62.95 -8.75 Q -61.65 -9.05 -60.5 -9.05 Q -60.4 -9.05 -60.35 -9.05 Q -57.6 -9.05 -55.65 -7.45 Q -53.75 -5.85 -53.05 -2.65 L -52.5 -0.05 Q -52.1 1.9 -52.05 3.45 Q -52 6.3 -53.85 7.9 Q -55.65 9.5 -59.35 10.2 Q -60.45 10.45 -61.65 10.45 Q -61.7 10.45 -61.75 10.45 Q -63.95 10.5 -65.8 9.45 Q -67.7 8.4 -68.3 5.95 Q -68.45 5.2 -68.5 4.5 Q -68.45 -0.5 -60.25 -2.2 L -59.9 -2.25 L -59.95 -2.5 Q -60.1 -3 -60.35 -3.15 Q -60.6 -3.35 -61.25 -3.35 Q -61.95 -3.35 -63.15 -3.1 Q -65.4 -2.6 -66.35 -1.9 Z M -41.9 -11.35 Q -42.2 -11.35 -42.55 -11.3 Q -46.15 -10.85 -47.85 -8.95 Q -49.6 -7.05 -49.6 -3.95 Q -49.6 -3.35 -49.5 -2.75 L -48.85 3.3 Q -48.65 4.65 -48 5.3 Q -47.3 5.9 -45.85 5.95 Q -45.5 5.95 -45.1 5.9 L -43.55 5.7 L -44.6 -3.65 Q -44.65 -4.15 -44.65 -4.55 Q -44.7 -5.8 -44.05 -6.6 Q -43.4 -7.35 -42.2 -7.45 Q -41.95 -7.5 -41.75 -7.5 Q -41.7 -7.5 -41.65 -7.5 Q -40.5 -7.45 -39.8 -6.65 Q -39.1 -5.85 -38.95 -4.4 L -38.25 2.1 Q -38 3.7 -37.4 4.25 Q -36.8 4.8 -35.55 4.8 Q -35.15 4.8 -34.7 4.7 L -33.15 4.55 L -34.2 -4.9 Q -34.25 -5.25 -34.25 -5.65 Q -34.3 -6.75 -33.7 -7.6 Q -33.15 -8.45 -31.85 -8.6 Q -31.6 -8.65 -31.35 -8.65 Q -31.25 -8.65 -31.2 -8.65 Q -30 -8.65 -29.3 -7.8 Q -28.6 -6.95 -28.5 -5.4 L -27.8 0.95 Q -27.6 2.3 -27.1 2.9 Q -26.55 3.55 -24.95 3.6 Q -24.55 3.6 -24.05 3.5 L -22.5 3.35 L -23.5 -5.5 Q -24.45 -12.6 -30.7 -12.6 Q -31.25 -12.6 -31.85 -12.55 Q -33.55 -12.3 -34.8 -11.2 Q -36.05 -10.15 -36.5 -9.15 L -36.95 -8.25 L -37.4 -9.1 Q -37.8 -9.9 -39 -10.6 Q -40.2 -11.3 -41.85 -11.35 Z M -15.9 -13.25 Q -13.85 -14.65 -11.05 -14.75 Q -10.9 -14.75 -10.8 -14.75 Q -10.7 -14.75 -10.65 -14.75 Q -7.15 -14.75 -4.8 -12.85 Q -2.45 -10.95 -2.3 -7.5 L -2.3 -7.35 Q -2.25 -4.6 -4.55 -3.5 Q -6.8 -2.45 -11.15 -2.4 L -13.05 -2.35 Q -12.7 -1.6 -11.9 -1.25 Q -11.05 -0.9 -9.65 -0.9 L -9.4 -0.9 Q -5.4 -1.1 -4.25 -2.05 L -4.1 -2.15 L -3.25 -2.15 L -3.2 -0.2 Q -3.15 1.75 -4.85 3.1 Q -6.6 4.5 -10.3 4.6 Q -10.45 4.6 -10.6 4.6 Q -10.65 4.6 -10.75 4.6 Q -13.7 4.6 -15.8 3.35 Q -17.9 2.1 -19.05 0.1 Q -20.15 -1.95 -20.2 -4.45 Q -20.2 -4.6 -20.2 -4.7 Q -20.2 -7.45 -19.1 -9.65 Q -17.95 -11.9 -15.9 -13.25 Z M -42.65 -12.3 Q -42.25 -12.35 -41.9 -12.35 Q -40.3 -12.35 -39 -11.75 Q -37.75 -11.15 -37 -10.3 Q -36.3 -11.4 -35 -12.3 Q -33.75 -13.25 -32 -13.5 Q -31.3 -13.6 -30.7 -13.6 Q -30.6 -13.6 -30.55 -13.6 Q -27.15 -13.6 -25.05 -11.5 Q -22.95 -9.45 -22.5 -5.6 L -21.4 4.25 L -23.95 4.5 Q -24.5 4.55 -24.95 4.6 Q -25.05 4.6 -25.15 4.6 Q -27 4.55 -27.85 3.55 Q -28.7 2.55 -28.8 1.05 L -29.5 -5.3 Q -29.7 -6.75 -30.1 -7.2 Q -30.5 -7.65 -31.35 -7.65 Q -31.55 -7.65 -31.75 -7.65 Q -32.6 -7.5 -32.9 -7.05 Q -33.25 -6.6 -33.25 -5.65 Q -33.25 -5.35 -33.2 -5 L -32.05 5.45 L -34.6 5.7 Q -35.1 5.75 -35.55 5.8 Q -35.65 5.8 -35.75 5.8 Q -37.2 5.8 -38.15 4.9 Q -39.05 4 -39.25 2.2 L -39.95 -4.3 Q -40.15 -5.6 -40.55 -6.05 Q -40.95 -6.5 -41.75 -6.5 Q -41.9 -6.5 -42.1 -6.45 Q -43 -6.35 -43.3 -5.95 Q -43.65 -5.6 -43.65 -4.55 Q -43.7 -4.2 -43.6 -3.8 L -42.45 6.6 L -45 6.9 Q -45.45 6.95 -45.85 6.95 Q -45.9 6.95 -46 6.95 Q -47.7 6.9 -48.7 5.95 Q -49.7 5 -49.85 3.4 L -50.5 -2.6 Q -50.6 -3.3 -50.6 -3.95 Q -50.65 -7.4 -48.6 -9.65 Q -46.55 -11.85 -42.65 -12.3 Z M -10.8 -13.75 L -11.05 -13.75 Q -14.8 -13.55 -17 -11 Q -19.15 -8.5 -19.2 -4.7 L -19.2 -4.45 Q -19.1 -1 -16.95 1.25 Q -14.8 3.5 -10.6 3.6 Q -10.5 3.6 -10.35 3.6 Q -6.8 3.45 -5.5 2.35 Q -4.15 1.25 -4.2 -0.15 L -4.2 -0.9 Q -5.85 0 -9.4 0.1 L -9.65 0.1 Q -9.75 0.1 -9.85 0.1 Q -11.6 0.1 -12.75 -0.6 Q -13.9 -1.3 -14.2 -2.7 L -14.35 -3.3 L -11.15 -3.4 Q -6.85 -3.5 -5 -4.4 Q -4.1 -4.85 -3.7 -5.5 Q -3.3 -6.2 -3.3 -7.35 L -3.3 -7.5 Q -3.45 -10.5 -5.5 -12.1 Q -7.55 -13.75 -10.8 -13.75 Z M -13.4 -7.2 L -11.65 -7.25 Q -9.65 -7.3 -9.15 -7.55 Q -8.9 -7.7 -8.9 -7.75 Q -8.85 -7.8 -8.85 -8 Q -8.85 -8.45 -9.3 -8.85 Q -9.7 -9.25 -10.8 -9.3 L -10.9 -9.25 Q -12.1 -9.2 -12.7 -8.65 Q -13.25 -8.1 -13.4 -7.2 Z M -58.05 1.15 L -57.65 2.9 Q -57.6 3.3 -57.6 3.65 Q -57.6 4.65 -58.2 5.25 Q -58.8 5.8 -59.6 5.95 Q -60.2 6.1 -60.7 6.1 Q -60.75 6.1 -60.8 6.1 Q -61.6 6.1 -62.15 5.65 Q -62.7 5.2 -62.85 4.45 Q -62.9 4.2 -62.9 3.95 Q -62.85 3 -62.05 2.4 Q -61.2 1.8 -59.7 1.5 Z M -14.5 -6.7 Q -14.45 -8.1 -13.55 -9.15 Q -12.7 -10.2 -10.95 -10.25 L -10.8 -10.25 L -10.75 -10.3 Q -9.4 -10.25 -8.65 -9.6 Q -7.9 -8.95 -7.85 -8.05 L -8.35 -8 L -7.85 -8 Q -7.85 -7.6 -8.05 -7.2 Q -8.3 -6.85 -8.75 -6.65 Q -9.6 -6.25 -11.65 -6.25 L -14.5 -6.15 Z M -58.8 2.3 L -59.5 2.45 Q -60.95 2.8 -61.45 3.2 Q -61.95 3.55 -61.9 3.95 Q -61.9 4.1 -61.85 4.25 Q -61.75 4.7 -61.5 4.9 Q -61.3 5.1 -60.7 5.1 Q -60.3 5.1 -59.8 5 Q -59.2 4.85 -58.9 4.55 Q -58.6 4.25 -58.6 3.65 Q -58.6 3.4 -58.65 3.1 Z" fill="#FFFFFF"/>
			<path d="M 18.15 -17.5 L 18.2 -17.5 Q 18.7 -17.5 19.2 -17.45 Q 21.65 -17.3 23.7 -16.05 Q 25.8 -14.8 27.05 -12.6 Q 28.35 -10.35 28.4 -7.25 Q 28.4 -6.75 28.35 -6.25 Q 28 -1.25 25.35 1.45 Q 22.75 4.15 18.15 4.2 L 18.1 4.2 Q 17.55 4.2 17.05 4.2 Q 12.95 3.85 10.45 1.15 Q 7.9 -1.5 7.8 -6 Q 7.8 -6.55 7.85 -7.05 Q 8.2 -11.95 10.85 -14.65 Q 13.55 -17.4 18.15 -17.5 Z M 17.95 -13.7 Q 15.6 -13.6 14.3 -11.85 Q 13 -10.05 12.85 -7.3 Q 12.8 -6.7 12.8 -6.15 Q 12.8 -3.15 14.1 -1.5 Q 15.45 0.2 17.9 0.35 Q 18.05 0.35 18.25 0.35 Q 20.45 0.3 21.8 -1.4 Q 23.15 -3.05 23.35 -6.05 Q 23.4 -6.75 23.4 -7.35 Q 23.45 -10.35 22.1 -11.95 Q 20.8 -13.55 18.35 -13.65 Q 18.15 -13.7 17.95 -13.7 Z M 37.25 -8.6 Q 37.3 -7.1 37.6 -5.4 Q 37.9 -3.65 38.25 -2.15 Q 38.6 -0.65 38.9 0.25 L 39.2 1.1 L 39.75 0.35 Q 40.45 -0.6 41.35 -2.25 Q 42.2 -3.85 43.05 -5.8 Q 43.9 -7.75 44.5 -9.6 L 46.95 -9.25 Q 48.6 -8.95 48.6 -7.55 Q 48.6 -7.35 48.6 -7.15 Q 48.25 -5.4 47.3 -3.75 Q 46.5 -2.2 45.2 -0.2 Q 43.9 1.75 42.5 3.6 Q 41.05 5.4 39.9 6.45 L 38.5 6.25 Q 37.2 6.05 36.55 5.4 Q 35.9 4.7 35.35 3.45 Q 34.5 1.6 33.8 -0.95 Q 33.1 -3.45 32.65 -6.2 Q 32.2 -8.95 32.15 -11.45 L 34.65 -11.05 Q 35.9 -10.85 36.55 -10.05 Q 37.2 -9.3 37.25 -8.6 Z M 58.65 -7.2 Q 59.6 -7.2 60.65 -6.95 Q 63.45 -6.3 65.05 -4.6 Q 66.7 -2.95 66.75 -0.55 Q 66.75 0.2 66.55 1.05 Q 66.2 2.5 65.35 3.1 Q 64.5 3.7 62.8 3.75 L 62.75 3.75 Q 60.9 3.7 57.9 3 L 54.85 2.3 L 54.8 2.85 L 54.8 3.05 Q 54.8 4.55 55.85 5.5 Q 56.9 6.45 58.75 6.85 Q 60.9 7.35 62.4 7.35 L 62.45 7.35 Q 63.3 7.35 64 7.2 L 63.85 7.8 Q 63.6 8.9 62.7 9.6 Q 61.75 10.3 59.8 10.35 L 59.75 10.35 Q 58.55 10.35 56.95 10 Q 53.45 9.1 51.8 7 Q 50.15 4.9 50.15 2.15 Q 50.15 1.05 50.4 -0.05 Q 51.2 -3.25 53.4 -5.2 Q 55.55 -7.15 58.6 -7.2 Z M 55.35 -0.5 L 58.15 0.15 Q 59.7 0.5 60.55 0.5 Q 60.65 0.5 60.7 0.5 Q 61.35 0.5 61.8 0.15 Q 62.2 -0.15 62.3 -0.65 Q 62.3 -0.85 62.35 -1.1 Q 62.35 -1.9 61.7 -2.6 Q 61.1 -3.3 59.85 -3.6 Q 59.35 -3.7 58.85 -3.7 L 58.8 -3.7 Q 57.5 -3.65 56.7 -2.9 Q 55.85 -2.15 55.55 -1 Z M 76.15 -2.35 L 76.2 -2.35 Q 77.2 -2.35 78.3 -2 Q 79.95 -1.4 80.65 -0.7 Q 81.35 0.05 81.35 0.8 Q 81.35 1.1 81.25 1.45 L 80.75 2.9 Q 80 2.45 79.1 2.15 Q 78.55 1.95 77.95 1.95 L 77.9 1.95 Q 77 1.95 76.25 2.55 Q 75.55 3.15 75.15 4.35 L 72.05 13.75 L 71 13.4 Q 68.35 12.55 68.35 10.4 Q 68.35 9.75 68.65 8.85 L 71 1.65 Q 71.6 -0.2 72.95 -1.25 Q 74.3 -2.3 76.15 -2.35 Z M 89.15 -2 Q 90.75 -1.3 90.75 0.1 Q 90.75 0.7 90.45 1.4 L 86.4 10.1 L 85.05 9.55 Q 83.4 8.75 83.45 7.3 Q 83.45 6.7 83.7 6 L 87.05 -2.9 Z M 83.8 12 Q 84.6 12.35 85.05 13.05 Q 85.55 13.75 85.55 14.65 Q 85.55 15.2 85.3 15.75 Q 84.95 16.55 84.25 17.05 Q 83.55 17.5 82.7 17.5 L 82.65 17.5 Q 82.1 17.5 81.55 17.3 Q 80.75 16.95 80.25 16.2 Q 79.8 15.5 79.8 14.65 Q 79.8 14.1 80 13.55 Q 80.4 12.7 81.1 12.25 Q 81.8 11.8 82.65 11.75 Q 83.25 11.75 83.8 12 Z M -82.35 -7.3 Q -80.85 -7.8 -79.6 -7.8 Q -77.9 -7.8 -76.85 -7.05 Q -75.8 -6.35 -75.4 -5.25 L -75 -4.05 Q -75.95 -4.3 -77.15 -4.3 L -77.2 -4.3 Q -78.95 -4.35 -81.3 -3.55 Q -83.35 -2.9 -84.65 -1.3 Q -85.95 0.25 -85.95 2.55 Q -85.95 3.65 -85.55 4.9 Q -84.65 7.6 -83.05 8.9 Q -81.45 10.2 -79.5 10.2 L -79.45 10.2 Q -78.4 10.2 -77.3 9.85 Q -75.5 9.25 -75.5 8.1 Q -75.5 7.7 -75.65 7.35 L -76.4 5.05 Q -76.55 4.5 -76.85 3.9 Q -77.1 3.25 -77.4 2.75 L -75.1 2 Q -74.6 1.8 -74.2 1.85 Q -72.6 1.85 -72.05 3.5 L -71.15 6.25 Q -70.85 7.25 -70.85 8.15 Q -70.8 9.8 -72.1 11.2 Q -73.45 12.6 -76.55 13.7 Q -78.4 14.25 -80.15 14.25 L -80.2 14.25 Q -83.55 14.25 -86.2 12.4 Q -88.9 10.55 -90.15 6.95 Q -90.75 5.1 -90.75 3.3 Q -90.75 -0.2 -88.65 -3.05 Q -86.55 -5.85 -82.35 -7.3 Z M -68.25 -1.55 L -68.5 -2.7 Q -68.55 -2.95 -68.55 -3.2 Q -68.6 -4.45 -67.25 -5.75 Q -65.9 -7.05 -62.75 -7.8 Q -61.55 -8.05 -60.5 -8.05 Q -58 -8.05 -56.35 -6.7 Q -54.7 -5.4 -54.05 -2.45 L -53.5 0.15 Q -53.05 2.05 -53.05 3.45 Q -53.05 5.95 -54.5 7.2 Q -55.95 8.45 -59.55 9.2 Q -60.55 9.45 -61.65 9.45 Q -63.7 9.45 -65.25 8.6 Q -66.85 7.75 -67.35 5.75 Q -67.45 5.1 -67.5 4.5 Q -67.55 2.5 -65.8 1.1 Q -64.05 -0.35 -60.05 -1.2 L -58.75 -1.5 L -59 -2.7 Q -59.15 -3.5 -59.75 -3.95 Q -60.3 -4.35 -61.1 -4.35 Q -61.2 -4.35 -61.3 -4.35 Q -62.15 -4.35 -63.35 -4.1 Q -65.3 -3.65 -66.45 -3 Q -67.6 -2.4 -68.25 -1.55 Z M -41.9 -11.35 L -41.85 -11.35 Q -40.2 -11.3 -39 -10.6 Q -37.8 -9.9 -37.4 -9.1 L -36.95 -8.25 L -36.5 -9.15 Q -36.05 -10.15 -34.8 -11.2 Q -33.55 -12.3 -31.85 -12.55 Q -31.25 -12.6 -30.7 -12.6 Q -24.45 -12.6 -23.5 -5.5 L -22.5 3.35 L -24.05 3.5 Q -24.55 3.6 -24.95 3.6 Q -26.55 3.55 -27.1 2.9 Q -27.6 2.3 -27.8 0.95 L -28.5 -5.4 Q -28.6 -6.95 -29.3 -7.8 Q -30 -8.65 -31.2 -8.65 Q -31.25 -8.65 -31.35 -8.65 Q -31.6 -8.65 -31.85 -8.6 Q -33.15 -8.45 -33.7 -7.6 Q -34.3 -6.75 -34.25 -5.65 Q -34.25 -5.25 -34.2 -4.9 L -33.15 4.55 L -34.7 4.7 Q -35.15 4.8 -35.55 4.8 Q -36.8 4.8 -37.4 4.25 Q -38 3.7 -38.25 2.1 L -38.95 -4.4 Q -39.1 -5.85 -39.8 -6.65 Q -40.5 -7.45 -41.65 -7.5 Q -41.7 -7.5 -41.75 -7.5 Q -41.95 -7.5 -42.2 -7.45 Q -43.4 -7.35 -44.05 -6.6 Q -44.7 -5.8 -44.65 -4.55 Q -44.65 -4.15 -44.6 -3.65 L -43.55 5.7 L -45.1 5.9 Q -45.5 5.95 -45.85 5.95 Q -47.3 5.9 -48 5.3 Q -48.65 4.65 -48.85 3.3 L -49.5 -2.75 Q -49.6 -3.35 -49.6 -3.95 Q -49.6 -7.05 -47.85 -8.95 Q -46.15 -10.85 -42.55 -11.3 Q -42.2 -11.35 -41.9 -11.35 Z M -10.8 -13.75 Q -7.55 -13.75 -5.5 -12.1 Q -3.45 -10.5 -3.3 -7.5 L -3.3 -7.35 Q -3.3 -6.2 -3.7 -5.5 Q -4.1 -4.85 -5 -4.4 Q -6.85 -3.5 -11.15 -3.4 L -14.35 -3.3 L -14.2 -2.7 Q -13.9 -1.3 -12.75 -0.6 Q -11.6 0.1 -9.85 0.1 Q -9.75 0.1 -9.65 0.1 L -9.4 0.1 Q -5.85 0 -4.2 -0.9 L -4.2 -0.15 Q -4.15 1.25 -5.5 2.35 Q -6.8 3.45 -10.35 3.6 Q -10.5 3.6 -10.6 3.6 Q -14.8 3.5 -16.95 1.25 Q -19.1 -1 -19.2 -4.45 L -19.2 -4.7 Q -19.15 -8.5 -17 -11 Q -14.8 -13.55 -11.05 -13.75 Z M -14.5 -6.7 L -14.5 -6.15 L -11.65 -6.25 Q -9.6 -6.25 -8.75 -6.65 Q -8.3 -6.85 -8.05 -7.2 Q -7.85 -7.6 -7.85 -8 L -8.35 -8 L -7.85 -8.05 Q -7.9 -8.95 -8.65 -9.6 Q -9.4 -10.25 -10.75 -10.3 L -10.8 -10.25 L -10.95 -10.25 Q -12.7 -10.2 -13.55 -9.15 Q -14.45 -8.1 -14.5 -6.7 Z M -58.05 1.15 L -59.7 1.5 Q -61.2 1.8 -62.05 2.4 Q -62.85 3 -62.9 3.95 Q -62.9 4.2 -62.85 4.45 Q -62.7 5.2 -62.15 5.65 Q -61.6 6.1 -60.8 6.1 Q -60.75 6.1 -60.7 6.1 Q -60.2 6.1 -59.6 5.95 Q -58.8 5.8 -58.2 5.25 Q -57.6 4.65 -57.6 3.65 Q -57.6 3.3 -57.65 2.9 Z" fill="#A939EA"/>
	</g>
	</g>
</svg>
