<?xml version="1.0"?>
<!DOCTYPE svg PUBLIC "-//W3C//DTD SVG 1.1//EN" "http://www.w3.org/Graphics/SVG/1.1/DTD/svg11.dtd">
<svg version='1.1' width='135px' height='41px' xmlns='http://www.w3.org/2000/svg' xmlns:xlink='http://www.w3.org/1999/xlink'>
	<g transform="translate(64.75,5.65)">
		<path d="M -42.75 12.1 Q -42.45 11.85 -41.95 11.85 Q -41.5 11.8 -41.1 12.15 Q -40.7 12.5 -40.7 13.5 L -40.7 15.7 L -41.35 15.7 L -41.35 13.55 Q -41.35 12.45 -42.2 12.4 Q -42.8 12.45 -43 13 Q -43.05 13.2 -43.05 13.35 L -43.05 15.7 L -43.75 15.7 L -43.75 13.45 Q -43.75 12.45 -44.55 12.4 Q -45.2 12.5 -45.4 13.1 Q -45.45 13.25 -45.45 13.45 L -45.45 15.7 L -46.1 15.7 L -46.1 12.95 Q -46.1 12.35 -46.15 11.9 L -45.55 11.9 L -45.5 12.55 Q -45.2 11.9 -44.3 11.85 Q -43.5 11.9 -43.2 12.6 Q -43 12.25 -42.75 12.1 Z M -49.9 11.15 Q -49 11.25 -48.9 12.15 L -48.9 14.65 Q -49 15.55 -49.9 15.65 L -57.4 15.65 L -57.4 16.45 Q -57.5 18.15 -58.65 18.2 Q -59.2 18.2 -59.9 17.75 L -63.75 15.1 Q -64.75 14.4 -64.75 13.45 Q -64.75 12.45 -63.75 11.75 L -59.9 9.1 Q -59.2 8.65 -58.65 8.65 Q -57.45 8.7 -57.4 10.4 L -57.4 11.15 Z M -21.4 12.45 Q -21.05 13.05 -21.05 13.6 Q -21.05 13.8 -21.1 13.95 L -23.75 13.95 Q -23.75 14.65 -23.35 14.95 Q -23 15.25 -22.45 15.25 Q -21.75 15.25 -21.4 15.05 L -21.25 15.55 Q -21.65 15.75 -22.55 15.8 Q -23.45 15.8 -23.9 15.25 Q -24.4 14.75 -24.4 13.9 Q -24.4 13 -23.95 12.45 Q -23.5 11.85 -22.65 11.85 Q -21.7 11.9 -21.4 12.45 Z M -21.75 13.45 Q -21.7 13.1 -21.9 12.75 Q -22.1 12.35 -22.7 12.35 Q -23.2 12.35 -23.45 12.7 Q -23.7 13.05 -23.75 13.45 Z M -37.15 14.85 Q -36.85 14.45 -36.85 13.8 Q -36.8 13.3 -37.1 12.85 Q -37.35 12.4 -37.95 12.35 Q -38.55 12.4 -38.85 12.8 Q -39.15 13.25 -39.15 13.8 Q -39.1 14.45 -38.8 14.85 Q -38.5 15.3 -38 15.3 Q -37.5 15.25 -37.15 14.85 Z M -31.2 13.95 Q -31.2 14.65 -30.8 14.95 Q -30.45 15.25 -29.9 15.25 Q -29.2 15.25 -28.85 15.05 L -28.75 15.55 Q -29.1 15.75 -30 15.8 Q -30.9 15.8 -31.4 15.25 Q -31.9 14.75 -31.9 13.9 Q -31.85 13 -31.4 12.45 Q -30.95 11.85 -30.1 11.85 Q -29.15 11.9 -28.85 12.45 Q -28.5 13.05 -28.5 13.6 Q -28.5 13.8 -28.55 13.95 Z M -30.9 12.7 Q -31.15 13.05 -31.2 13.45 L -29.2 13.45 Q -29.15 13.1 -29.35 12.75 Q -29.6 12.35 -30.15 12.35 Q -30.65 12.35 -30.9 12.7 Z M -32.9 11.9 L -32.2 11.9 L -33.65 15.7 L -34.35 15.7 L -35.75 11.9 L -35.05 11.9 L -34.3 14.05 Q -34.1 14.55 -34 15 L -33.95 15 Q -33.8 14.55 -33.65 14.05 Z M -39.3 12.35 Q -38.75 11.85 -37.95 11.85 Q -37.1 11.85 -36.6 12.4 Q -36.15 12.9 -36.1 13.8 Q -36.15 14.85 -36.7 15.3 Q -37.3 15.8 -38 15.8 Q -38.8 15.8 -39.3 15.3 Q -39.8 14.75 -39.85 13.85 Q -39.8 12.9 -39.3 12.35 Z M -26 10.15 L -25.3 10.15 L -25.3 15.7 L -26 15.7 Z M -4.2 16.8 Q -4.4 16.6 -4.75 16.6 Q -5.1 16.6 -5.35 16.8 Q -5.6 16.95 -5.7 17.25 Q -5.8 17.55 -5.8 17.9 Q -5.8 18.25 -5.7 18.55 Q -5.6 18.85 -5.35 19 Q -5.1 19.2 -4.8 19.2 Q -4.45 19.2 -4.25 18.95 Q -4 18.8 -3.9 18.45 Q -3.9 18.35 -3.9 18.3 Q -3.9 18.25 -3.9 18.2 L -3.9 17.6 Q -3.9 17.55 -3.9 17.45 Q -3.9 17.4 -3.9 17.3 Q -3.95 17.05 -4.2 16.8 Z M -3.9 14.65 L -3.25 14.65 L -3.25 18.7 Q -3.25 18.95 -3.25 19.2 Q -3.25 19.4 -3.25 19.6 L -3.75 19.6 L -3.85 19 Q -3.95 19.3 -4.25 19.5 Q -4.55 19.65 -5 19.65 Q -5.4 19.65 -5.7 19.5 Q -6.05 19.25 -6.2 18.85 Q -6.4 18.5 -6.4 17.95 Q -6.4 17.4 -6.2 16.95 Q -6 16.55 -5.65 16.35 Q -5.35 16.15 -4.9 16.15 Q -4.55 16.15 -4.25 16.25 Q -4 16.45 -3.9 16.6 Z M -17.65 11.9 L -17.65 11.2 L -17 11 L -17 11.9 L -16 11.9 L -16 12.45 L -17 12.45 L -17 14.5 Q -17 15.2 -16.45 15.25 Q -16.2 15.2 -16.05 15.2 L -16.05 15.7 Q -16.25 15.8 -16.65 15.8 Q -17.15 15.8 -17.4 15.5 Q -17.7 15.2 -17.65 14.5 L -17.65 12.45 L -18.25 12.45 L -18.25 11.9 Z M -18.75 10.05 Q -18.4 10.05 -18.2 10.15 L -18.25 10.7 Q -18.4 10.6 -18.7 10.6 Q -19.15 10.6 -19.3 10.95 Q -19.45 11.25 -19.45 11.7 L -19.45 11.9 L -18.55 11.9 L -18.55 12.45 L -19.45 12.45 L -19.45 15.7 L -20.15 15.7 L -20.15 12.45 L -20.65 12.45 L -20.65 11.9 L -20.15 11.9 L -20.15 11.75 Q -20.15 10.9 -19.7 10.4 Q -19.3 10.05 -18.75 10.05 Z M -2.25 8.15 L -1.7 8.15 L -1.7 10.4 Q -1.7 10.9 -1.7 11.3 L -2.15 11.3 L -2.2 10.85 Q -2.3 11 -2.55 11.15 Q -2.85 11.35 -3.25 11.35 Q -3.65 11.35 -3.95 11.05 Q -4.3 10.85 -4.35 9.95 L -4.35 8.15 L -3.75 8.15 L -3.75 9.9 Q -3.75 10.85 -3.1 10.85 Q -2.5 10.85 -2.3 10.35 Q -2.25 10.25 -2.25 10.05 Z M -5.8 8.15 L -5.25 8.15 L -5.25 11 Q -5.25 11.85 -5.65 12.3 Q -6.05 12.7 -6.55 12.65 L -6.65 12.2 Q -6.2 12.2 -6.05 11.95 Q -5.85 11.8 -5.8 11.6 Q -5.8 11.3 -5.8 10.85 Z M -5.8 7.3 Q -5.8 7 -5.5 6.95 Q -5.25 7 -5.15 7.3 Q -5.15 7.6 -5.5 7.6 Q -5.8 7.6 -5.8 7.3 Z M 1.6 21.55 Q 2.4 21.7 2.5 22.5 L 2.5 28.25 L 3.25 28.25 Q 4.35 28.3 4.7 28.95 Q 5.05 29.6 4.45 30.55 L 2 34.1 Q 1.35 35 0.4 35 Q -0.45 35 -1.1 34.1 L -3.55 30.55 Q -4.2 29.6 -3.85 28.95 Q -3.5 28.3 -2.3 28.25 L -1.6 28.25 L -1.6 22.5 Q -1.55 21.7 -0.7 21.55 Z M 1.6 17.05 Q 1.8 16.6 2.2 16.4 Q 2.65 16.15 3.2 16.15 Q 3.45 16.15 3.65 16.2 Q 3.9 16.25 4 16.35 L 3.9 16.8 Q 3.8 16.75 3.6 16.7 Q 3.45 16.6 3.2 16.6 Q 2.8 16.6 2.5 16.8 Q 2.3 16.95 2.15 17.25 Q 2 17.55 2 17.9 Q 2 18.3 2.15 18.6 Q 2.35 18.9 2.55 19 Q 2.85 19.2 3.15 19.2 Q 3.45 19.2 3.6 19.15 Q 3.8 19.05 3.9 19 L 4 19.5 Q 3.9 19.55 3.65 19.6 Q 3.4 19.65 3.05 19.65 Q 2.55 19.65 2.15 19.5 Q 1.8 19.25 1.6 18.85 Q 1.4 18.45 1.4 17.95 Q 1.4 17.45 1.6 17.05 Z M 0 18.3 L 0 16.2 L 0.6 16.2 L 0.6 18.65 Q 0.6 18.95 0.6 19.2 Q 0.65 19.4 0.65 19.6 L 0.1 19.6 L 0.05 19 Q -0.05 19.2 -0.15 19.3 Q -0.35 19.5 -0.55 19.6 Q -0.75 19.65 -1.1 19.65 Q -1.35 19.65 -1.6 19.55 Q -1.85 19.4 -2.05 19.15 Q -2.25 18.8 -2.25 18.2 L -2.25 16.2 L -1.6 16.2 L -1.6 18.1 Q -1.6 18.55 -1.45 18.85 Q -1.25 19.15 -0.85 19.2 Q -0.7 19.15 -0.5 19.05 Q -0.35 19 -0.2 18.85 Q -0.1 18.7 -0.05 18.6 Q -0.05 18.55 0 18.45 Q 0 18.35 0 18.3 Z M 6.7 16.2 L 7.4 16.2 L 6.1 17.6 L 7.55 19.6 L 6.9 19.6 L 5.7 17.95 L 5.35 18.3 L 5.35 19.6 L 4.8 19.6 L 4.8 14.65 L 5.35 14.65 L 5.35 17.8 Q 5.5 17.65 5.55 17.55 Q 5.6 17.5 5.7 17.4 Z M 6.05 8.55 Q 5.4 8.55 5.2 9.25 L 5.15 9.5 L 5.15 10 Q 5.15 10.15 5.2 10.25 Q 5.35 10.85 6.05 10.9 Q 6.95 10.85 7 9.7 Q 7 9.25 6.7 8.9 Q 6.45 8.55 6.05 8.55 Z M 2.65 8.1 Q 3 8.1 3.35 8.4 Q 3.65 8.65 3.65 9.5 L 3.65 11.3 L 3.15 11.3 L 3.15 9.5 Q 3.15 8.55 2.45 8.55 Q 2 8.6 1.75 9 Q 1.75 9.2 1.75 9.35 L 1.75 11.3 L 1.15 11.3 L 1.15 9.5 Q 1.15 8.6 0.55 8.55 Q 0 8.6 -0.2 9.15 Q -0.2 9.25 -0.2 9.45 L -0.2 11.3 L -0.75 11.3 L -0.75 9 Q -0.75 8.55 -0.75 8.15 L -0.3 8.15 L -0.2 8.65 Q 0 8.15 0.7 8.1 Q 1.4 8.1 1.6 8.75 Q 1.75 8.5 2 8.3 Q 2.2 8.1 2.65 8.1 Z M 4.6 9.2 Q 4.6 8.6 4.55 8.15 L 5.05 8.15 L 5.05 8.65 Q 5.5 8.1 6.2 8.1 Q 6.8 8.1 7.15 8.55 Q 7.55 8.95 7.55 9.65 Q 7.5 10.5 7.1 10.95 Q 6.65 11.35 6.1 11.35 Q 5.5 11.3 5.2 10.85 L 5.15 10.85 L 5.15 12.55 L 4.6 12.55 Z M 25.55 11.2 Q 26.4 11.2 26.9 11.75 Q 27.35 12.25 27.4 13.15 Q 27.35 14.2 26.8 14.7 Q 26.2 15.15 25.5 15.15 Q 24.7 15.15 24.2 14.65 Q 23.7 14.1 23.65 13.2 Q 23.7 12.25 24.2 11.75 Q 24.75 11.2 25.55 11.2 Z M 26.4 12.2 Q 26.15 11.75 25.55 11.7 Q 24.95 11.75 24.65 12.2 Q 24.35 12.65 24.35 13.2 Q 24.4 13.8 24.7 14.25 Q 25 14.65 25.5 14.65 Q 26.6 14.55 26.65 13.15 Q 26.7 12.65 26.4 12.2 Z M 21.55 11.2 Q 22 11.2 22.4 11.55 Q 22.8 11.9 22.8 12.85 L 22.8 15.1 L 22.15 15.1 L 22.15 12.95 Q 22.15 11.8 21.3 11.75 Q 20.7 11.8 20.5 12.4 Q 20.45 12.55 20.45 12.75 L 20.45 15.1 L 19.75 15.1 L 19.75 12.8 Q 19.75 11.85 18.95 11.75 Q 18.3 11.85 18.1 12.45 Q 18.05 12.6 18.05 12.8 L 18.05 15.1 L 17.4 15.1 L 17.4 12.3 Q 17.4 11.7 17.35 11.3 L 17.95 11.3 L 18 11.9 Q 18.3 11.3 19.2 11.2 Q 20 11.25 20.3 11.95 Q 20.5 11.65 20.75 11.45 Q 21.05 11.2 21.55 11.2 Z M 38.15 12.05 Q 38.45 11.25 39.2 11.2 L 39.4 11.2 L 39.4 11.85 Q 39.3 11.85 39.15 11.85 Q 38.4 11.9 38.2 12.75 Q 38.2 12.9 38.2 13.05 L 38.2 15.1 L 37.5 15.1 L 37.5 12.45 Q 37.5 11.8 37.45 11.3 L 38.1 11.3 L 38.1 12.05 Z M 40.45 10.65 Q 40.05 10.6 40 10.2 Q 40.05 9.8 40.45 9.8 Q 40.85 9.8 40.9 10.2 Q 40.85 10.6 40.45 10.65 Z M 34.15 12.1 Q 33.9 11.7 33.35 11.7 Q 32.85 11.7 32.6 12.05 Q 32.35 12.4 32.3 12.8 L 34.3 12.8 Q 34.35 12.45 34.15 12.1 Z M 33.4 11.2 Q 34.35 11.25 34.65 11.85 Q 35 12.4 35 13 Q 35 13.2 34.95 13.3 L 32.3 13.3 Q 32.3 14 32.7 14.3 Q 33.05 14.6 33.6 14.6 Q 34.3 14.6 34.65 14.45 L 34.75 14.9 Q 34.4 15.15 33.5 15.15 Q 32.6 15.15 32.1 14.65 Q 31.6 14.1 31.6 13.25 Q 31.65 12.35 32.1 11.8 Q 32.55 11.2 33.4 11.2 Z M 30.6 11.3 L 31.3 11.3 L 29.85 15.1 L 29.15 15.1 L 27.75 11.3 L 28.45 11.3 L 29.2 13.4 Q 29.4 13.9 29.5 14.4 L 29.55 14.4 Q 29.7 13.95 29.85 13.4 Z M 40.8 11.3 L 40.8 15.1 L 40.1 15.1 L 40.1 11.3 Z M 44.45 13.85 Q 44.5 13.65 44.5 13.45 L 44.5 12.8 Q 44.5 12.6 44.45 12.45 Q 44.25 11.8 43.5 11.75 Q 42.45 11.8 42.35 13.15 Q 42.35 13.75 42.65 14.15 Q 42.95 14.55 43.5 14.55 Q 44.2 14.5 44.45 13.85 Z M 47.05 11.9 Q 47.2 11.55 47.55 11.4 Q 47.85 11.2 48.25 11.2 Q 48.65 11.2 49.1 11.5 Q 49.55 11.85 49.6 12.8 L 49.6 15.1 L 48.9 15.1 L 48.9 12.9 Q 48.9 12.4 48.7 12.1 Q 48.5 11.8 48 11.75 Q 47.3 11.85 47.1 12.45 Q 47 12.6 47.05 12.8 L 47.05 15.1 L 46.35 15.1 L 46.35 9.5 L 47.05 9.5 Z M 44.6 11.3 L 45.25 11.3 Q 45.2 11.65 45.2 12.3 L 45.2 14.5 Q 45.2 15.8 44.65 16.25 Q 44.05 16.75 43.25 16.7 Q 42.5 16.7 42 16.4 L 42.15 15.85 Q 42.55 16.15 43.3 16.2 Q 44.45 16.25 44.5 14.85 L 44.5 14.45 Q 44.2 15 43.3 15.05 Q 42.55 15.05 42.1 14.55 Q 41.7 14 41.65 13.2 Q 41.7 12.25 42.2 11.7 Q 42.7 11.2 43.4 11.2 Q 44.35 11.3 44.6 11.85 Z M 50.85 10.55 L 51.5 10.35 L 51.5 11.3 L 52.5 11.3 L 52.5 11.8 L 51.5 11.8 L 51.5 13.85 Q 51.5 14.55 52 14.6 Q 52.3 14.6 52.4 14.55 L 52.45 15.05 Q 52.25 15.15 51.85 15.15 Q 51.35 15.15 51.1 14.9 Q 50.8 14.55 50.85 13.9 L 50.85 11.8 L 50.25 11.8 L 50.25 11.3 L 50.85 11.3 Z M 63.8 7.95 Q 64.35 7.95 65 8.4 L 68.9 11.05 Q 69.9 11.75 69.9 12.7 Q 69.9 13.7 68.9 14.4 L 65 17.05 Q 64.35 17.5 63.8 17.5 Q 62.6 17.45 62.55 15.75 L 62.55 15 L 55.1 15 Q 54.2 14.9 54.1 14 L 54.1 11.5 Q 54.2 10.6 55.1 10.5 L 62.55 10.5 L 62.55 9.7 Q 62.6 8 63.8 7.95 Z M 4.1 -1.7 Q 4.65 -0.85 4.35 -0.3 Q 4 0.3 3 0.35 L 2.4 0.35 L 2.4 5.4 Q 2.35 6.15 1.6 6.3 L -0.45 6.3 Q -1.15 6.15 -1.25 5.4 L -1.25 0.35 L -1.95 0.35 Q -2.95 0.3 -3.25 -0.3 Q -3.55 -0.85 -2.95 -1.7 L -0.8 -4.85 Q -0.2 -5.65 0.6 -5.65 Q 1.35 -5.65 1.95 -4.85 Z" fill="#C106BC"/>
	</g>
</svg>
