<?xml version="1.0"?>
<!DOCTYPE svg PUBLIC "-//W3C//DTD SVG 1.1//EN" "http://www.w3.org/Graphics/SVG/1.1/DTD/svg11.dtd">
<svg version='1.1' width='57px' height='14px' xmlns='http://www.w3.org/2000/svg' xmlns:xlink='http://www.w3.org/1999/xlink'>
	<g transform="translate(-2.25,-1.2)">
		<path d="M 56.05 3.65 Q 54.15 2.05 51.5 2 L 6.65 1.6 Q 5.6 1.65 4.35 2.45 Q 3.05 3.25 2.25 3.85 Q 3.1 2.65 4.45 1.95 Q 5.75 1.2 7.35 1.2 L 52.45 1.2 Q 55.1 1.25 56.85 3.05 Q 58.6 4.8 58.65 7.45 L 58.65 12.2 Q 58.65 13.55 58.15 14.7 Q 58.05 15 58 15 Q 58 14.95 58.15 14.05 Q 58.35 13.15 58.25 12.05 L 58.05 7.95 Q 57.95 5.3 56.05 3.65 Z" fill="#FFE6FA" fill-opacity="0.6"/>
	</g>
</svg>
