<?xml version="1.0"?>
<!DOCTYPE svg PUBLIC "-//W3C//DTD SVG 1.1//EN" "http://www.w3.org/Graphics/SVG/1.1/DTD/svg11.dtd">
<svg version='1.1' width='38px' height='28px' xmlns='http://www.w3.org/2000/svg' xmlns:xlink='http://www.w3.org/1999/xlink'>
	<g transform="translate(-102.5,-96.7)">
		<path d="M 123.75 99.7 Q 123.7 99.7 123.6 99.7 Q 122.75 99.65 122.05 99.95 Q 121.35 100.2 121.3 101 Q 121.3 101.5 121.6 101.75 Q 121.9 102 122.3 102 Q 122.85 102 123.25 101.7 Q 123.6 101.4 123.7 101.05 Q 123.75 100.85 123.75 100.7 Z M 139.65 101.3 Q 140.35 101.3 140.35 102.05 Q 140.35 102.7 139.65 102.8 Q 139 102.7 138.95 102.05 Q 139 101.3 139.65 101.3 Z M 140.4 97.8 Q 140.35 98.5 139.7 98.55 L 139.65 98.55 Q 139 98.5 138.95 97.8 Q 139 97.1 139.7 97.05 Q 140.35 97.1 140.4 97.8 Z M 136.6 98.05 Q 136.3 97.5 135.45 97.45 Q 134.65 97.5 134.25 98.05 Q 133.85 98.6 133.8 99.15 L 136.9 99.15 Q 136.9 98.65 136.6 98.05 Z M 133.5 97.6 Q 134.25 96.75 135.5 96.7 Q 136.9 96.75 137.4 97.65 Q 137.95 98.55 137.9 99.45 Q 137.9 99.75 137.85 99.95 L 133.8 99.95 Q 133.85 101 134.4 101.45 Q 134.95 101.95 135.8 101.95 Q 136.85 101.9 137.4 101.65 L 137.55 102.4 Q 137 102.7 135.65 102.75 Q 134.3 102.75 133.55 101.95 Q 132.8 101.15 132.8 99.85 Q 132.8 98.5 133.5 97.6 Z M 128.85 97.55 Q 128.1 97.55 127.6 98.1 Q 127.15 98.7 127.15 99.75 Q 127.15 100.6 127.55 101.2 Q 128 101.8 128.85 101.8 Q 129.9 101.8 130.3 100.75 Q 130.4 100.45 130.4 100.15 L 130.4 99.1 Q 130.4 98.85 130.35 98.65 Q 130.2 98.15 129.8 97.85 Q 129.45 97.55 128.85 97.55 Z M 126.9 97.5 Q 127.65 96.7 128.7 96.7 Q 129.45 96.75 129.9 97.05 Q 130.3 97.35 130.5 97.7 L 130.55 97.7 L 130.55 96.85 L 131.5 96.85 Q 131.45 97.4 131.45 98.45 L 131.45 101.8 Q 131.45 103.75 130.65 104.45 Q 129.7 105.2 128.5 105.15 Q 127.35 105.15 126.55 104.7 L 126.85 103.85 Q 127.45 104.3 128.55 104.35 Q 129.35 104.35 129.9 103.85 Q 130.4 103.4 130.4 102.3 L 130.4 101.65 Q 129.9 102.55 128.55 102.6 Q 127.45 102.6 126.75 101.8 Q 126.1 101.05 126.05 99.8 Q 126.1 98.3 126.9 97.5 Z M 120.9 97.9 L 120.65 97.2 Q 121.4 96.75 122.6 96.7 Q 123.9 96.75 124.35 97.45 Q 124.85 98.2 124.8 99.1 L 124.8 101.25 Q 124.8 102.05 124.9 102.65 L 123.95 102.65 L 123.85 101.9 L 123.8 101.9 Q 123.3 102.7 122 102.8 Q 121.15 102.75 120.7 102.25 Q 120.25 101.75 120.25 101.1 Q 120.3 99 123.7 98.95 L 123.75 98.95 L 123.75 98.85 Q 123.75 98.45 123.55 98 Q 123.3 97.55 122.45 97.5 L 122.4 97.5 Q 121.55 97.5 120.9 97.9 Z" fill="#076B66"/>
		<path d="M 118.55 116 Q 119.2 115.95 119.85 116.45 Q 120.55 117 120.6 118.45 L 120.6 121.9 L 119.55 121.9 L 119.55 118.55 Q 119.55 117.85 119.25 117.35 Q 118.9 116.85 118.2 116.85 Q 117.65 116.85 117.3 117.15 Q 116.9 117.45 116.75 117.9 Q 116.7 118.15 116.7 118.4 L 116.7 121.9 L 115.65 121.9 L 115.65 117.7 Q 115.65 116.8 115.6 116.1 L 116.55 116.1 L 116.6 117.05 Q 116.85 116.65 117.3 116.3 Q 117.8 116 118.55 116 Z M 110.7 117.3 Q 110.3 117.85 110.25 118.45 L 113.3 118.45 Q 113.35 117.9 113.05 117.35 Q 112.7 116.75 111.85 116.7 Q 111.05 116.75 110.7 117.3 Z M 110.25 119.2 Q 110.25 120.25 110.85 120.75 Q 111.4 121.2 112.2 121.2 Q 113.3 121.2 113.8 120.9 L 114 121.65 Q 113.45 121.95 112.05 122.05 Q 110.7 122 109.95 121.2 Q 109.2 120.45 109.2 119.1 Q 109.2 117.75 109.95 116.85 Q 110.65 116 111.95 115.95 Q 113.35 116.05 113.85 116.95 Q 114.35 117.85 114.35 118.7 Q 114.35 119.05 114.3 119.2 Z M 106.25 117.1 Q 105.9 116.8 105.3 116.8 Q 104.55 116.8 104.05 117.4 Q 103.6 117.95 103.55 119 Q 103.55 119.85 104 120.45 Q 104.45 121.05 105.3 121.1 Q 106.35 121.05 106.75 120 Q 106.85 119.75 106.85 119.45 L 106.85 118.4 Q 106.85 118.15 106.75 117.9 Q 106.6 117.45 106.25 117.1 Z M 106.95 116.95 L 107 116.1 L 107.95 116.1 Q 107.9 116.7 107.9 117.7 L 107.9 121.05 Q 107.9 123 107.05 123.75 Q 106.1 124.45 104.95 124.4 Q 104.4 124.4 103.9 124.3 Q 103.35 124.2 103 123.95 L 103.25 123.15 Q 103.85 123.55 104.95 123.6 Q 105.8 123.6 106.3 123.15 Q 106.85 122.65 106.85 121.55 L 106.85 120.9 L 106.8 120.9 Q 106.35 121.8 104.95 121.9 Q 103.85 121.85 103.2 121.1 Q 102.5 120.3 102.5 119.05 Q 102.55 117.55 103.3 116.8 Q 104.1 116 105.15 116 Q 105.9 116 106.3 116.3 Q 106.75 116.6 106.95 116.95 Z M 140.35 121.3 Q 140.35 122 139.65 122.05 Q 139 122 138.95 121.3 Q 139 120.6 139.65 120.55 Q 140.35 120.6 140.35 121.3 Z M 138.95 117.05 Q 139 116.35 139.65 116.3 Q 140.35 116.35 140.35 117.05 Q 140.35 117.75 139.65 117.8 Q 139 117.75 138.95 117.05 Z M 137.95 116 L 137.95 117 Q 137.8 117 137.6 116.95 Q 136.45 117.05 136.15 118.3 Q 136.15 118.55 136.15 118.8 L 136.15 121.9 L 135.1 121.9 L 135.1 117.9 Q 135.1 116.9 135.05 116.1 L 135.95 116.1 L 136 117.25 L 136.05 117.25 Q 136.55 116 137.65 116 Q 137.85 116 137.95 116 Z M 124.7 116.8 Q 123.85 116.85 123.4 117.45 Q 122.95 118.05 122.95 119.05 Q 122.95 119.95 123.4 120.55 Q 123.8 121.15 124.65 121.2 Q 125.2 121.2 125.65 120.85 Q 126.05 120.55 126.2 119.95 Q 126.25 119.7 126.25 119.5 L 126.25 118.45 Q 126.25 118.25 126.2 118 Q 126.1 117.5 125.7 117.15 Q 125.3 116.8 124.7 116.8 Z M 126.25 116.85 L 126.25 113.4 L 127.3 113.4 L 127.3 120.4 Q 127.3 121.25 127.35 121.9 L 126.4 121.9 L 126.35 120.9 Q 125.85 121.95 124.35 122.05 Q 123.3 122.05 122.6 121.25 Q 121.9 120.45 121.9 119.1 Q 121.9 117.65 122.65 116.8 Q 123.4 116 124.5 116 Q 125.15 116 125.6 116.25 Q 126.05 116.5 126.25 116.85 Z M 131.3 116.7 Q 130.5 116.75 130.1 117.3 Q 129.75 117.85 129.7 118.45 L 132.75 118.45 Q 132.8 117.9 132.45 117.35 Q 132.15 116.75 131.3 116.7 Z M 129.4 116.85 Q 130.1 116 131.4 115.95 Q 132.8 116.05 133.3 116.95 Q 133.8 117.85 133.75 118.7 Q 133.75 119.05 133.75 119.2 L 129.65 119.2 Q 129.7 120.25 130.25 120.75 Q 130.85 121.2 131.65 121.2 Q 132.75 121.2 133.25 120.9 L 133.45 121.65 Q 132.9 121.95 131.5 122.05 Q 130.15 122 129.4 121.2 Q 128.65 120.45 128.65 119.1 Q 128.65 117.75 129.4 116.85 Z" fill="#076B66"/>
	</g>
</svg>
